  0
SECTION
  2
HEADER
  9
$ACADVER
  1
AC1014
  9
$HANDSEED
  5
FFFF
  9
$MEASUREMENT
 70
     1
  0
ENDSEC
  0
SECTION
  2
TABLES
  0
TABLE
  2
VPORT
  5
8
330
0
100
AcDbSymbolTable
 70
     4
  0
VPORT
  5
2E
330
8
100
AcDbSymbolTableRecord
100
AcDbViewportTableRecord
  2
*ACTIVE
 70
     0
 10
0.0
 20
0.0
 11
1.0
 21
1.0
 12
210.0
 22
148.5
 13
0.0
 23
0.0
 14
10.0
 24
10.0
 15
10.0
 25
10.0
 16
0.0
 26
0.0
 36
1.0
 17
0.0
 27
0.0
 37
0.0
 40
341.0
 41
1.24
 42
50.0
 43
0.0
 44
0.0
 50
0.0
 51
0.0
 71
     0
 72
   100
 73
     1
 74
     3
 75
     0
 76
     0
 77
     0
 78
     0
  0
ENDTAB
  0
TABLE
  2
LTYPE
  5
5
330
0
100
AcDbSymbolTable
 70
     1
  0
LTYPE
  5
14
330
5
100
AcDbSymbolTableRecord
100
AcDbLinetypeTableRecord
  2
BYBLOCK
 70
     0
  3

 72
    65
 73
     0
 40
0.0
  0
LTYPE
  5
15
330
5
100
AcDbSymbolTableRecord
100
AcDbLinetypeTableRecord
  2
BYLAYER
 70
     0
  3

 72
    65
 73
     0
 40
0.0
  0
LTYPE
  5
16
330
5
100
AcDbSymbolTableRecord
100
AcDbLinetypeTableRecord
  2
CONTINUOUS
 70
     0
  3
Solid line
 72
    65
 73
     0
 40
0.0
  0
ENDTAB
  0
TABLE
  2
LAYER
  5
2
100
AcDbSymbolTable
 70
2
  0
LAYER
  5
50
100
AcDbSymbolTableRecord
100
AcDbLayerTableRecord
  2
0
 70
0
  6
CONTINUOUS
  0
LAYER
  5
51
100
AcDbSymbolTableRecord
100
AcDbLayerTableRecord
  2
Plast_1
 70
0
  6
CONTINUOUS
  0
ENDTAB
  0
TABLE
  2
STYLE
  5
3
330
0
100
AcDbSymbolTable
 70
     1
  0
STYLE
  5
11
330
3
100
AcDbSymbolTableRecord
100
AcDbTextStyleTableRecord
  2
STANDARD
 70
     0
 40
0.0
 41
1.0
 50
0.0
 71
     0
 42
2.5
  3
txt
  4

  0
ENDTAB
  0
TABLE
  2
VIEW
  5
6
330
0
100
AcDbSymbolTable
 70
     0
  0
ENDTAB
  0
TABLE
  2
UCS
  5
7
330
0
100
AcDbSymbolTable
 70
     0
  0
ENDTAB
  0
TABLE
  2
APPID
  5
9
330
0
100
AcDbSymbolTable
 70
     2
  0
APPID
  5
12
330
9
100
AcDbSymbolTableRecord
100
AcDbRegAppTableRecord
  2
ACAD
 70
     0
  0
ENDTAB
  0
TABLE
  2
DIMSTYLE
  5
A
330
0
100
AcDbSymbolTable
 70
     1
  0
DIMSTYLE
105
27
330
A
100
AcDbSymbolTableRecord
100
AcDbDimStyleTableRecord
  2
ISO-25
 70
     0
  3

  4

  5

  6

  7

 40
1.0
 41
2.5
 42
0.625
 43
3.75
 44
1.25
 45
0.0
 46
0.0
 47
0.0
 48
0.0
140
2.5
141
2.5
142
0.0
143
0.03937007874016
144
1.0
145
0.0
146
1.0
147
0.625
 71
     0
 72
     0
 73
     0
 74
     0
 75
     0
 76
     0
 77
     1
 78
     8
170
     0
171
     3
172
     1
173
     0
174
     0
175
     0
176
     0
177
     0
178
     0
270
     2
271
     2
272
     2
273
     2
274
     3
340
11
275
     0
280
     0
281
     0
282
     0
283
     0
284
     8
285
     0
286
     0
287
     3
288
     0
  0
ENDTAB
  0
TABLE
  2
BLOCK_RECORD
  5
1
330
0
100
AcDbSymbolTable
 70
     1
  0
BLOCK_RECORD
  5
1F
330
1
100
AcDbSymbolTableRecord
100
AcDbBlockTableRecord
  2
*MODEL_SPACE
  0
BLOCK_RECORD
  5
1B
330
1
100
AcDbSymbolTableRecord
100
AcDbBlockTableRecord
  2
*PAPER_SPACE
  0
ENDTAB
  0
ENDSEC
  0
SECTION
  2
BLOCKS
  0
BLOCK
  5
20
330
1F
100
AcDbEntity
  8
0
100
AcDbBlockBegin
  2
*MODEL_SPACE
 70
     0
 10
0.0
 20
0.0
 30
0.0
  3
*MODEL_SPACE
  1

  0
ENDBLK
  5
21
330
1F
100
AcDbEntity
  8
0
100
AcDbBlockEnd
  0
BLOCK
  5
1C
330
1B
100
AcDbEntity
 67
     1
  8
0
100
AcDbBlockBegin
  2
*PAPER_SPACE
  1

  0
ENDBLK
  5
1D
330
1B
100
AcDbEntity
 67
     1
  8
0
100
AcDbBlockEnd
  0
ENDSEC
  0
SECTION
  2
ENTITIES
  0
SPLINE
  5
100
100
AcDbEntity
  8
Plast_1
 62
7
100
AcDbSpline
 70
8
 71
3
 72
8
 73
4
 74
0
 40
0
 40
0
 40
0
 40
0
 40
1
 40
1
 40
1
 40
1
 10
44.149748
 20
191.274540
 30
0.0
 10
44.475823
 20
191.274540
 30
0.0
 10
44.777008
 20
191.244673
 30
0.0
 10
45.053301
 20
191.184940
 30
0.0
  0
SPLINE
  5
101
100
AcDbEntity
  8
Plast_1
 62
7
100
AcDbSpline
 70
8
 71
3
 72
8
 73
4
 74
0
 40
0
 40
0
 40
0
 40
0
 40
1
 40
1
 40
1
 40
1
 10
45.053301
 20
191.184940
 30
0.0
 10
45.332083
 20
191.125207
 30
0.0
 10
45.572284
 20
191.051777
 30
0.0
 10
45.773903
 20
190.964650
 30
0.0
  0
SPLINE
  5
102
100
AcDbEntity
  8
Plast_1
 62
7
100
AcDbSpline
 70
8
 71
3
 72
8
 73
4
 74
0
 40
0
 40
0
 40
0
 40
0
 40
1
 40
1
 40
1
 40
1
 10
45.773903
 20
190.964650
 30
0.0
 10
45.975522
 20
190.877530
 30
0.0
 10
46.133582
 20
190.784190
 30
0.0
 10
46.248082
 20
190.684630
 30
0.0
  0
SPLINE
  5
103
100
AcDbEntity
  8
Plast_1
 62
7
100
AcDbSpline
 70
8
 71
3
 72
8
 73
4
 74
0
 40
0
 40
0
 40
0
 40
0
 40
1
 40
1
 40
1
 40
1
 10
46.248082
 20
190.684630
 30
0.0
 10
46.362582
 20
190.585063
 30
0.0
 10
46.419832
 20
190.494210
 30
0.0
 10
46.419832
 20
190.412070
 30
0.0
  0
SPLINE
  5
104
100
AcDbEntity
  8
Plast_1
 62
7
100
AcDbSpline
 70
8
 71
3
 72
8
 73
4
 74
0
 40
0
 40
0
 40
0
 40
0
 40
1
 40
1
 40
1
 40
1
 10
46.419832
 20
190.412070
 30
0.0
 10
46.419832
 20
190.240317
 30
0.0
 10
46.413609
 20
190.017540
 30
0.0
 10
46.401162
 20
189.743740
 30
0.0
  0
SPLINE
  5
105
100
AcDbEntity
  8
Plast_1
 62
7
100
AcDbSpline
 70
8
 71
3
 72
8
 73
4
 74
0
 40
0
 40
0
 40
0
 40
0
 40
1
 40
1
 40
1
 40
1
 10
46.401162
 20
189.743740
 30
0.0
 10
46.388715
 20
189.469933
 30
0.0
 10
46.372535
 20
189.138877
 30
0.0
 10
46.352622
 20
188.750570
 30
0.0
  0
SPLINE
  5
106
100
AcDbEntity
  8
Plast_1
 62
7
100
AcDbSpline
 70
8
 71
3
 72
8
 73
4
 74
0
 40
0
 40
0
 40
0
 40
0
 40
1
 40
1
 40
1
 40
1
 10
46.027791
 20
188.761770
 30
0.0
 10
46.030258
 20
188.796637
 30
0.0
 10
46.031491
 20
188.829003
 30
0.0
 10
46.031491
 20
188.858870
 30
0.0
  0
SPLINE
  5
107
100
AcDbEntity
  8
Plast_1
 62
7
100
AcDbSpline
 70
8
 71
3
 72
8
 73
4
 74
0
 40
0
 40
0
 40
0
 40
0
 40
1
 40
1
 40
1
 40
1
 10
46.031491
 20
188.858870
 30
0.0
 10
46.033958
 20
188.891203
 30
0.0
 10
46.035191
 20
188.924807
 30
0.0
 10
46.035191
 20
188.959680
 30
0.0
  0
SPLINE
  5
108
100
AcDbEntity
  8
Plast_1
 62
7
100
AcDbSpline
 70
8
 71
3
 72
8
 73
4
 74
0
 40
0
 40
0
 40
0
 40
0
 40
1
 40
1
 40
1
 40
1
 10
46.035191
 20
188.959680
 30
0.0
 10
46.032724
 20
189.131433
 30
0.0
 10
46.012811
 20
189.294470
 30
0.0
 10
45.975451
 20
189.448790
 30
0.0
  0
SPLINE
  5
109
100
AcDbEntity
  8
Plast_1
 62
7
100
AcDbSpline
 70
8
 71
3
 72
8
 73
4
 74
0
 40
0
 40
0
 40
0
 40
0
 40
1
 40
1
 40
1
 40
1
 10
45.975451
 20
189.448790
 30
0.0
 10
45.940604
 20
189.605610
 30
0.0
 10
45.875887
 20
189.754960
 30
0.0
 10
45.781299
 20
189.896840
 30
0.0
  0
SPLINE
  5
10a
100
AcDbEntity
  8
Plast_1
 62
7
100
AcDbSpline
 70
8
 71
3
 72
8
 73
4
 74
0
 40
0
 40
0
 40
0
 40
0
 40
1
 40
1
 40
1
 40
1
 10
45.781299
 20
189.896840
 30
0.0
 10
45.681734
 20
190.038720
 30
0.0
 10
45.562255
 20
190.164420
 30
0.0
 10
45.422864
 20
190.273940
 30
0.0
  0
SPLINE
  5
10b
100
AcDbEntity
  8
Plast_1
 62
7
100
AcDbSpline
 70
8
 71
3
 72
8
 73
4
 74
0
 40
0
 40
0
 40
0
 40
0
 40
1
 40
1
 40
1
 40
1
 10
45.422864
 20
190.273940
 30
0.0
 10
45.285962
 20
190.383460
 30
0.0
 10
45.135370
 20
190.475557
 30
0.0
 10
44.971088
 20
190.550230
 30
0.0
  0
SPLINE
  5
10c
100
AcDbEntity
  8
Plast_1
 62
7
100
AcDbSpline
 70
8
 71
3
 72
8
 73
4
 74
0
 40
0
 40
0
 40
0
 40
0
 40
1
 40
1
 40
1
 40
1
 10
44.971088
 20
190.550230
 30
0.0
 10
44.806805
 20
190.624903
 30
0.0
 10
44.631322
 20
190.680910
 30
0.0
 10
44.444637
 20
190.718250
 30
0.0
  0
SPLINE
  5
10d
100
AcDbEntity
  8
Plast_1
 62
7
100
AcDbSpline
 70
8
 71
3
 72
8
 73
4
 74
0
 40
0
 40
0
 40
0
 40
0
 40
1
 40
1
 40
1
 40
1
 10
44.444637
 20
190.718250
 30
0.0
 10
44.257952
 20
190.758050
 30
0.0
 10
44.067534
 20
190.777950
 30
0.0
 10
43.873382
 20
190.777950
 30
0.0
  0
SPLINE
  5
10e
100
AcDbEntity
  8
Plast_1
 62
7
100
AcDbSpline
 70
8
 71
3
 72
8
 73
4
 74
0
 40
0
 40
0
 40
0
 40
0
 40
1
 40
1
 40
1
 40
1
 10
43.873382
 20
190.777950
 30
0.0
 10
43.539839
 20
190.777950
 30
0.0
 10
43.236166
 20
190.725677
 30
0.0
 10
42.962362
 20
190.621130
 30
0.0
  0
SPLINE
  5
10f
100
AcDbEntity
  8
Plast_1
 62
7
100
AcDbSpline
 70
8
 71
3
 72
8
 73
4
 74
0
 40
0
 40
0
 40
0
 40
0
 40
1
 40
1
 40
1
 40
1
 10
42.962362
 20
190.621130
 30
0.0
 10
42.691047
 20
190.519077
 30
0.0
 10
42.448357
 20
190.375953
 30
0.0
 10
42.234292
 20
190.191760
 30
0.0
  0
SPLINE
  5
110
100
AcDbEntity
  8
Plast_1
 62
7
100
AcDbSpline
 70
8
 71
3
 72
8
 73
4
 74
0
 40
0
 40
0
 40
0
 40
0
 40
1
 40
1
 40
1
 40
1
 10
42.234292
 20
190.191760
 30
0.0
 10
42.020227
 20
190.010053
 30
0.0
 10
41.833543
 20
189.793500
 30
0.0
 10
41.674238
 20
189.542100
 30
0.0
  0
SPLINE
  5
111
100
AcDbEntity
  8
Plast_1
 62
7
100
AcDbSpline
 70
8
 71
3
 72
8
 73
4
 74
0
 40
0
 40
0
 40
0
 40
0
 40
1
 40
1
 40
1
 40
1
 10
41.674238
 20
189.542100
 30
0.0
 10
41.517423
 20
189.293187
 30
0.0
 10
41.386744
 20
189.021870
 30
0.0
 10
41.282201
 20
188.728150
 30
0.0
  0
SPLINE
  5
112
100
AcDbEntity
  8
Plast_1
 62
7
100
AcDbSpline
 70
8
 71
3
 72
8
 73
4
 74
0
 40
0
 40
0
 40
0
 40
0
 40
1
 40
1
 40
1
 40
1
 10
41.282201
 20
188.728150
 30
0.0
 10
41.180146
 20
188.434437
 30
0.0
 10
41.102983
 20
188.125787
 30
0.0
 10
41.050712
 20
187.802200
 30
0.0
  0
SPLINE
  5
113
100
AcDbEntity
  8
Plast_1
 62
7
100
AcDbSpline
 70
8
 71
3
 72
8
 73
4
 74
0
 40
0
 40
0
 40
0
 40
0
 40
1
 40
1
 40
1
 40
1
 10
41.050712
 20
187.802200
 30
0.0
 10
41.000932
 20
187.478613
 30
0.0
 10
40.976042
 20
187.151293
 30
0.0
 10
40.976042
 20
186.820240
 30
0.0
  0
SPLINE
  5
114
100
AcDbEntity
  8
Plast_1
 62
7
100
AcDbSpline
 70
8
 71
3
 72
8
 73
4
 74
0
 40
0
 40
0
 40
0
 40
0
 40
1
 40
1
 40
1
 40
1
 10
40.976042
 20
186.820240
 30
0.0
 10
40.976042
 20
186.429447
 30
0.0
 10
41.008402
 20
186.061053
 30
0.0
 10
41.073122
 20
185.715060
 30
0.0
  0
SPLINE
  5
115
100
AcDbEntity
  8
Plast_1
 62
7
100
AcDbSpline
 70
8
 71
3
 72
8
 73
4
 74
0
 40
0
 40
0
 40
0
 40
0
 40
1
 40
1
 40
1
 40
1
 10
41.073122
 20
185.715060
 30
0.0
 10
41.137842
 20
185.369073
 30
0.0
 10
41.229940
 20
185.050467
 30
0.0
 10
41.349415
 20
184.759240
 30
0.0
  0
SPLINE
  5
116
100
AcDbEntity
  8
Plast_1
 62
7
100
AcDbSpline
 70
8
 71
3
 72
8
 73
4
 74
0
 40
0
 40
0
 40
0
 40
0
 40
1
 40
1
 40
1
 40
1
 10
41.349415
 20
184.759240
 30
0.0
 10
41.468893
 20
184.468013
 30
0.0
 10
41.613262
 20
184.206653
 30
0.0
 10
41.782523
 20
183.975160
 30
0.0
  0
SPLINE
  5
117
100
AcDbEntity
  8
Plast_1
 62
7
100
AcDbSpline
 70
8
 71
3
 72
8
 73
4
 74
0
 40
0
 40
0
 40
0
 40
0
 40
1
 40
1
 40
1
 40
1
 10
41.782523
 20
183.975160
 30
0.0
 10
41.951784
 20
183.743673
 30
0.0
 10
42.140957
 20
183.547033
 30
0.0
 10
42.350044
 20
183.385240
 30
0.0
  0
SPLINE
  5
118
100
AcDbEntity
  8
Plast_1
 62
7
100
AcDbSpline
 70
8
 71
3
 72
8
 73
4
 74
0
 40
0
 40
0
 40
0
 40
0
 40
1
 40
1
 40
1
 40
1
 10
42.350044
 20
183.385240
 30
0.0
 10
42.561620
 20
183.225933
 30
0.0
 10
42.789375
 20
183.103967
 30
0.0
 10
43.033310
 20
183.019340
 30
0.0
  0
SPLINE
  5
119
100
AcDbEntity
  8
Plast_1
 62
7
100
AcDbSpline
 70
8
 71
3
 72
8
 73
4
 74
0
 40
0
 40
0
 40
0
 40
0
 40
1
 40
1
 40
1
 40
1
 10
43.033310
 20
183.019340
 30
0.0
 10
43.279733
 20
182.934707
 30
0.0
 10
43.538603
 20
182.892390
 30
0.0
 10
43.809918
 20
182.892390
 30
0.0
  0
SPLINE
  5
11a
100
AcDbEntity
  8
Plast_1
 62
7
100
AcDbSpline
 70
8
 71
3
 72
8
 73
4
 74
0
 40
0
 40
0
 40
0
 40
0
 40
1
 40
1
 40
1
 40
1
 10
43.809918
 20
182.892390
 30
0.0
 10
43.999091
 20
182.892390
 30
0.0
 10
44.193243
 20
182.912290
 30
0.0
 10
44.392374
 20
182.952090
 30
0.0
  0
SPLINE
  5
11b
100
AcDbEntity
  8
Plast_1
 62
7
100
AcDbSpline
 70
8
 71
3
 72
8
 73
4
 74
0
 40
0
 40
0
 40
0
 40
0
 40
1
 40
1
 40
1
 40
1
 10
44.392374
 20
182.952090
 30
0.0
 10
44.593993
 20
182.994423
 30
0.0
 10
44.798102
 20
183.059140
 30
0.0
 10
45.004699
 20
183.146240
 30
0.0
  0
SPLINE
  5
11c
100
AcDbEntity
  8
Plast_1
 62
7
100
AcDbSpline
 70
8
 71
3
 72
8
 73
4
 74
0
 40
0
 40
0
 40
0
 40
0
 40
1
 40
1
 40
1
 40
1
 10
45.004699
 20
183.146240
 30
0.0
 10
45.211296
 20
183.235853
 30
0.0
 10
45.419138
 20
183.347867
 30
0.0
 10
45.628225
 20
183.482280
 30
0.0
  0
SPLINE
  5
11d
100
AcDbEntity
  8
Plast_1
 62
7
100
AcDbSpline
 70
8
 71
3
 72
8
 73
4
 74
0
 40
0
 40
0
 40
0
 40
0
 40
1
 40
1
 40
1
 40
1
 10
45.628225
 20
183.482280
 30
0.0
 10
45.839801
 20
183.619180
 30
0.0
 10
46.050132
 20
183.782217
 30
0.0
 10
46.259219
 20
183.971390
 30
0.0
  0
SPLINE
  5
11e
100
AcDbEntity
  8
Plast_1
 62
7
100
AcDbSpline
 70
8
 71
3
 72
8
 73
4
 74
0
 40
0
 40
0
 40
0
 40
0
 40
1
 40
1
 40
1
 40
1
 10
46.259219
 20
183.971390
 30
0.0
 10
46.279132
 20
183.961457
 30
0.0
 10
46.301536
 20
183.949023
 30
0.0
 10
46.326429
 20
183.934090
 30
0.0
  0
SPLINE
  5
11f
100
AcDbEntity
  8
Plast_1
 62
7
100
AcDbSpline
 70
8
 71
3
 72
8
 73
4
 74
0
 40
0
 40
0
 40
0
 40
0
 40
1
 40
1
 40
1
 40
1
 10
46.326429
 20
183.934090
 30
0.0
 10
46.353809
 20
183.919157
 30
0.0
 10
46.378699
 20
183.901723
 30
0.0
 10
46.401099
 20
183.881790
 30
0.0
  0
SPLINE
  5
120
100
AcDbEntity
  8
Plast_1
 62
7
100
AcDbSpline
 70
8
 71
3
 72
8
 73
4
 74
0
 40
0
 40
0
 40
0
 40
0
 40
1
 40
1
 40
1
 40
1
 10
46.401099
 20
183.881790
 30
0.0
 10
46.423499
 20
183.864390
 30
0.0
 10
46.442169
 20
183.844490
 30
0.0
 10
46.457109
 20
183.822090
 30
0.0
  0
SPLINE
  5
121
100
AcDbEntity
  8
Plast_1
 62
7
100
AcDbSpline
 70
8
 71
3
 72
8
 73
4
 74
0
 40
0
 40
0
 40
0
 40
0
 40
1
 40
1
 40
1
 40
1
 10
46.457109
 20
183.822090
 30
0.0
 10
46.474536
 20
183.799690
 30
0.0
 10
46.483249
 20
183.777290
 30
0.0
 10
46.483249
 20
183.754890
 30
0.0
  0
SPLINE
  5
122
100
AcDbEntity
  8
Plast_1
 62
7
100
AcDbSpline
 70
8
 71
3
 72
8
 73
4
 74
0
 40
0
 40
0
 40
0
 40
0
 40
1
 40
1
 40
1
 40
1
 10
46.483249
 20
183.754890
 30
0.0
 10
46.483249
 20
183.739957
 30
0.0
 10
46.473292
 20
183.718790
 30
0.0
 10
46.453379
 20
183.691390
 30
0.0
  0
SPLINE
  5
123
100
AcDbEntity
  8
Plast_1
 62
7
100
AcDbSpline
 70
8
 71
3
 72
8
 73
4
 74
0
 40
0
 40
0
 40
0
 40
0
 40
1
 40
1
 40
1
 40
1
 10
46.453379
 20
183.691390
 30
0.0
 10
46.209444
 20
183.422563
 30
0.0
 10
45.963021
 20
183.197297
 30
0.0
 10
45.714108
 20
183.015590
 30
0.0
  0
SPLINE
  5
124
100
AcDbEntity
  8
Plast_1
 62
7
100
AcDbSpline
 70
8
 71
3
 72
8
 73
4
 74
0
 40
0
 40
0
 40
0
 40
0
 40
1
 40
1
 40
1
 40
1
 10
45.714108
 20
183.015590
 30
0.0
 10
45.465195
 20
182.833883
 30
0.0
 10
45.215038
 20
182.687027
 30
0.0
 10
44.963636
 20
182.575020
 30
0.0
  0
SPLINE
  5
125
100
AcDbEntity
  8
Plast_1
 62
7
100
AcDbSpline
 70
8
 71
3
 72
8
 73
4
 74
0
 40
0
 40
0
 40
0
 40
0
 40
1
 40
1
 40
1
 40
1
 10
44.963636
 20
182.575020
 30
0.0
 10
44.712234
 20
182.463007
 30
0.0
 10
44.458343
 20
182.383353
 30
0.0
 10
44.201963
 20
182.336060
 30
0.0
  0
SPLINE
  5
126
100
AcDbEntity
  8
Plast_1
 62
7
100
AcDbSpline
 70
8
 71
3
 72
8
 73
4
 74
0
 40
0
 40
0
 40
0
 40
0
 40
1
 40
1
 40
1
 40
1
 10
44.201963
 20
182.336060
 30
0.0
 10
43.948072
 20
182.286260
 30
0.0
 10
43.694181
 20
182.261360
 30
0.0
 10
43.440290
 20
182.261360
 30
0.0
  0
SPLINE
  5
127
100
AcDbEntity
  8
Plast_1
 62
7
100
AcDbSpline
 70
8
 71
3
 72
8
 73
4
 74
0
 40
0
 40
0
 40
0
 40
0
 40
1
 40
1
 40
1
 40
1
 10
43.440290
 20
182.261360
 30
0.0
 10
43.104258
 20
182.261360
 30
0.0
 10
42.783161
 20
182.308653
 30
0.0
 10
42.476998
 20
182.403240
 30
0.0
  0
SPLINE
  5
128
100
AcDbEntity
  8
Plast_1
 62
7
100
AcDbSpline
 70
8
 71
3
 72
8
 73
4
 74
0
 40
0
 40
0
 40
0
 40
0
 40
1
 40
1
 40
1
 40
1
 10
42.476998
 20
182.403240
 30
0.0
 10
42.173325
 20
182.495340
 30
0.0
 10
41.890809
 20
182.628507
 30
0.0
 10
41.629450
 20
182.802740
 30
0.0
  0
SPLINE
  5
129
100
AcDbEntity
  8
Plast_1
 62
7
100
AcDbSpline
 70
8
 71
3
 72
8
 73
4
 74
0
 40
0
 40
0
 40
0
 40
0
 40
1
 40
1
 40
1
 40
1
 10
41.629450
 20
182.802740
 30
0.0
 10
41.368091
 20
182.976980
 30
0.0
 10
41.131624
 20
183.187313
 30
0.0
 10
40.920049
 20
183.433740
 30
0.0
  0
SPLINE
  5
12a
100
AcDbEntity
  8
Plast_1
 62
7
100
AcDbSpline
 70
8
 71
3
 72
8
 73
4
 74
0
 40
0
 40
0
 40
0
 40
0
 40
1
 40
1
 40
1
 40
1
 10
40.920049
 20
183.433740
 30
0.0
 10
40.708473
 20
183.682653
 30
0.0
 10
40.528011
 20
183.961433
 30
0.0
 10
40.378663
 20
184.270080
 30
0.0
  0
SPLINE
  5
12b
100
AcDbEntity
  8
Plast_1
 62
7
100
AcDbSpline
 70
8
 71
3
 72
8
 73
4
 74
0
 40
0
 40
0
 40
0
 40
0
 40
1
 40
1
 40
1
 40
1
 10
40.378663
 20
184.270080
 30
0.0
 10
40.229316
 20
184.578733
 30
0.0
 10
40.113571
 20
184.913523
 30
0.0
 10
40.031430
 20
185.274450
 30
0.0
  0
SPLINE
  5
12c
100
AcDbEntity
  8
Plast_1
 62
7
100
AcDbSpline
 70
8
 71
3
 72
8
 73
4
 74
0
 40
0
 40
0
 40
0
 40
0
 40
1
 40
1
 40
1
 40
1
 10
40.031430
 20
185.274450
 30
0.0
 10
39.951778
 20
185.637863
 30
0.0
 10
39.911952
 20
186.021187
 30
0.0
 10
39.911952
 20
186.424420
 30
0.0
  0
SPLINE
  5
12d
100
AcDbEntity
  8
Plast_1
 62
7
100
AcDbSpline
 70
8
 71
3
 72
8
 73
4
 74
0
 40
0
 40
0
 40
0
 40
0
 40
1
 40
1
 40
1
 40
1
 10
39.911952
 20
186.424420
 30
0.0
 10
39.911952
 20
186.812727
 30
0.0
 10
39.950533
 20
187.202277
 30
0.0
 10
40.027696
 20
187.593070
 30
0.0
  0
SPLINE
  5
12e
100
AcDbEntity
  8
Plast_1
 62
7
100
AcDbSpline
 70
8
 71
3
 72
8
 73
4
 74
0
 40
0
 40
0
 40
0
 40
0
 40
1
 40
1
 40
1
 40
1
 10
40.027696
 20
187.593070
 30
0.0
 10
40.107349
 20
187.986350
 30
0.0
 10
40.224338
 20
188.362207
 30
0.0
 10
40.378663
 20
188.720640
 30
0.0
  0
SPLINE
  5
12f
100
AcDbEntity
  8
Plast_1
 62
7
100
AcDbSpline
 70
8
 71
3
 72
8
 73
4
 74
0
 40
0
 40
0
 40
0
 40
0
 40
1
 40
1
 40
1
 40
1
 10
40.378663
 20
188.720640
 30
0.0
 10
40.535478
 20
189.079080
 30
0.0
 10
40.730875
 20
189.413870
 30
0.0
 10
40.964853
 20
189.725010
 30
0.0
  0
SPLINE
  5
130
100
AcDbEntity
  8
Plast_1
 62
7
100
AcDbSpline
 70
8
 71
3
 72
8
 73
4
 74
0
 40
0
 40
0
 40
0
 40
0
 40
1
 40
1
 40
1
 40
1
 10
40.964853
 20
189.725010
 30
0.0
 10
41.201320
 20
190.036150
 30
0.0
 10
41.476369
 20
190.306220
 30
0.0
 10
41.789999
 20
190.535220
 30
0.0
  0
SPLINE
  5
131
100
AcDbEntity
  8
Plast_1
 62
7
100
AcDbSpline
 70
8
 71
3
 72
8
 73
4
 74
0
 40
0
 40
0
 40
0
 40
0
 40
1
 40
1
 40
1
 40
1
 10
41.789999
 20
190.535220
 30
0.0
 10
42.103629
 20
190.766707
 30
0.0
 10
42.457085
 20
190.947167
 30
0.0
 10
42.850367
 20
191.076600
 30
0.0
  0
SPLINE
  5
132
100
AcDbEntity
  8
Plast_1
 62
7
100
AcDbSpline
 70
8
 71
3
 72
8
 73
4
 74
0
 40
0
 40
0
 40
0
 40
0
 40
1
 40
1
 40
1
 40
1
 10
42.850367
 20
191.076600
 30
0.0
 10
43.243649
 20
191.208527
 30
0.0
 10
43.676757
 20
191.274490
 30
0.0
 10
44.149692
 20
191.274490
 30
0.0
  0
LWPOLYLINE
  5
133
100
AcDbEntity
  8
Plast_1
 62
7
100
AcDbPolyline
 90
2
 70
0
 10
46.352622
 20
188.750570
 30
0.0
 10
46.027791
 20
188.761770
 30
0.0
  0
SPLINE
  5
134
100
AcDbEntity
  8
Plast_1
 62
7
100
AcDbSpline
 70
8
 71
3
 72
8
 73
4
 74
0
 40
0
 40
0
 40
0
 40
0
 40
1
 40
1
 40
1
 40
1
 10
48.424824
 20
184.475490
 30
0.0
 10
48.616487
 20
185.105237
 30
0.0
 10
48.819351
 20
185.639153
 30
0.0
 10
49.033416
 20
186.077240
 30
0.0
  0
SPLINE
  5
135
100
AcDbEntity
  8
Plast_1
 62
7
100
AcDbSpline
 70
8
 71
3
 72
8
 73
4
 74
0
 40
0
 40
0
 40
0
 40
0
 40
1
 40
1
 40
1
 40
1
 10
49.033416
 20
186.077240
 30
0.0
 10
49.249970
 20
186.515327
 30
0.0
 10
49.469013
 20
186.870027
 30
0.0
 10
49.690545
 20
187.141340
 30
0.0
  0
SPLINE
  5
136
100
AcDbEntity
  8
Plast_1
 62
7
100
AcDbSpline
 70
8
 71
3
 72
8
 73
4
 74
0
 40
0
 40
0
 40
0
 40
0
 40
1
 40
1
 40
1
 40
1
 10
49.690545
 20
187.141340
 30
0.0
 10
49.914567
 20
187.415147
 30
0.0
 10
50.137344
 20
187.613033
 30
0.0
 10
50.358876
 20
187.735000
 30
0.0
  0
SPLINE
  5
137
100
AcDbEntity
  8
Plast_1
 62
7
100
AcDbSpline
 70
8
 71
3
 72
8
 73
4
 74
0
 40
0
 40
0
 40
0
 40
0
 40
1
 40
1
 40
1
 40
1
 10
50.358876
 20
187.735000
 30
0.0
 10
50.580409
 20
187.856967
 30
0.0
 10
50.791985
 20
187.917950
 30
0.0
 10
50.993604
 20
187.917950
 30
0.0
  0
SPLINE
  5
138
100
AcDbEntity
  8
Plast_1
 62
7
100
AcDbSpline
 70
8
 71
3
 72
8
 73
4
 74
0
 40
0
 40
0
 40
0
 40
0
 40
1
 40
1
 40
1
 40
1
 10
50.993604
 20
187.917950
 30
0.0
 10
51.132995
 20
187.917950
 30
0.0
 10
51.267407
 20
187.890583
 30
0.0
 10
51.396842
 20
187.835850
 30
0.0
  0
SPLINE
  5
139
100
AcDbEntity
  8
Plast_1
 62
7
100
AcDbSpline
 70
8
 71
3
 72
8
 73
4
 74
0
 40
0
 40
0
 40
0
 40
0
 40
1
 40
1
 40
1
 40
1
 10
51.396842
 20
187.835850
 30
0.0
 10
51.526277
 20
187.783583
 30
0.0
 10
51.640777
 20
187.701443
 30
0.0
 10
51.740342
 20
187.589430
 30
0.0
  0
SPLINE
  5
13a
100
AcDbEntity
  8
Plast_1
 62
7
100
AcDbSpline
 70
8
 71
3
 72
8
 73
4
 74
0
 40
0
 40
0
 40
0
 40
0
 40
1
 40
1
 40
1
 40
1
 10
51.740342
 20
187.589430
 30
0.0
 10
51.842396
 20
187.477417
 30
0.0
 10
51.923293
 20
187.333047
 30
0.0
 10
51.983032
 20
187.156320
 30
0.0
  0
SPLINE
  5
13b
100
AcDbEntity
  8
Plast_1
 62
7
100
AcDbSpline
 70
8
 71
3
 72
8
 73
4
 74
0
 40
0
 40
0
 40
0
 40
0
 40
1
 40
1
 40
1
 40
1
 10
51.983032
 20
187.156320
 30
0.0
 10
52.042772
 20
186.979593
 30
0.0
 10
52.072642
 20
186.768017
 30
0.0
 10
52.072642
 20
186.521590
 30
0.0
  0
SPLINE
  5
13c
100
AcDbEntity
  8
Plast_1
 62
7
100
AcDbSpline
 70
8
 71
3
 72
8
 73
4
 74
0
 40
0
 40
0
 40
0
 40
0
 40
1
 40
1
 40
1
 40
1
 10
52.072642
 20
186.521590
 30
0.0
 10
52.072642
 20
186.446917
 30
0.0
 10
52.067665
 20
186.344863
 30
0.0
 10
52.057712
 20
186.215430
 30
0.0
  0
SPLINE
  5
13d
100
AcDbEntity
  8
Plast_1
 62
7
100
AcDbSpline
 70
8
 71
3
 72
8
 73
4
 74
0
 40
0
 40
0
 40
0
 40
0
 40
1
 40
1
 40
1
 40
1
 10
52.057712
 20
186.215430
 30
0.0
 10
52.050245
 20
186.088483
 30
0.0
 10
52.040289
 20
185.945357
 30
0.0
 10
52.027842
 20
185.786050
 30
0.0
  0
SPLINE
  5
13e
100
AcDbEntity
  8
Plast_1
 62
7
100
AcDbSpline
 70
8
 71
3
 72
8
 73
4
 74
0
 40
0
 40
0
 40
0
 40
0
 40
1
 40
1
 40
1
 40
1
 10
52.027842
 20
185.786050
 30
0.0
 10
52.015395
 20
185.629237
 30
0.0
 10
52.000462
 20
185.463710
 30
0.0
 10
51.983042
 20
185.289470
 30
0.0
  0
SPLINE
  5
13f
100
AcDbEntity
  8
Plast_1
 62
7
100
AcDbSpline
 70
8
 71
3
 72
8
 73
4
 74
0
 40
0
 40
0
 40
0
 40
0
 40
1
 40
1
 40
1
 40
1
 10
51.983042
 20
185.289470
 30
0.0
 10
51.968109
 20
185.115230
 30
0.0
 10
51.954419
 20
184.943480
 30
0.0
 10
51.941972
 20
184.774220
 30
0.0
  0
SPLINE
  5
140
100
AcDbEntity
  8
Plast_1
 62
7
100
AcDbSpline
 70
8
 71
3
 72
8
 73
4
 74
0
 40
0
 40
0
 40
0
 40
0
 40
1
 40
1
 40
1
 40
1
 10
51.941972
 20
184.774220
 30
0.0
 10
51.929525
 20
184.604960
 30
0.0
 10
51.918325
 20
184.444413
 30
0.0
 10
51.908372
 20
184.292580
 30
0.0
  0
SPLINE
  5
141
100
AcDbEntity
  8
Plast_1
 62
7
100
AcDbSpline
 70
8
 71
3
 72
8
 73
4
 74
0
 40
0
 40
0
 40
0
 40
0
 40
1
 40
1
 40
1
 40
1
 10
51.908372
 20
184.292580
 30
0.0
 10
51.900905
 20
184.140740
 30
0.0
 10
51.897172
 20
184.010060
 30
0.0
 10
51.897172
 20
183.900540
 30
0.0
  0
SPLINE
  5
142
100
AcDbEntity
  8
Plast_1
 62
7
100
AcDbSpline
 70
8
 71
3
 72
8
 73
4
 74
0
 40
0
 40
0
 40
0
 40
0
 40
1
 40
1
 40
1
 40
1
 10
51.897172
 20
183.900540
 30
0.0
 10
51.897172
 20
183.706387
 30
0.0
 10
51.904639
 20
183.548327
 30
0.0
 10
51.919572
 20
183.426360
 30
0.0
  0
SPLINE
  5
143
100
AcDbEntity
  8
Plast_1
 62
7
100
AcDbSpline
 70
8
 71
3
 72
8
 73
4
 74
0
 40
0
 40
0
 40
0
 40
0
 40
1
 40
1
 40
1
 40
1
 10
51.919572
 20
183.426360
 30
0.0
 10
51.936999
 20
183.304393
 30
0.0
 10
51.964379
 20
183.207317
 30
0.0
 10
52.001712
 20
183.135130
 30
0.0
  0
SPLINE
  5
144
100
AcDbEntity
  8
Plast_1
 62
7
100
AcDbSpline
 70
8
 71
3
 72
8
 73
4
 74
0
 40
0
 40
0
 40
0
 40
0
 40
1
 40
1
 40
1
 40
1
 10
52.001712
 20
183.135130
 30
0.0
 10
52.039052
 20
183.065437
 30
0.0
 10
52.088835
 20
183.016900
 30
0.0
 10
52.151060
 20
182.989520
 30
0.0
  0
SPLINE
  5
145
100
AcDbEntity
  8
Plast_1
 62
7
100
AcDbSpline
 70
8
 71
3
 72
8
 73
4
 74
0
 40
0
 40
0
 40
0
 40
0
 40
1
 40
1
 40
1
 40
1
 10
52.151060
 20
182.989520
 30
0.0
 10
52.213287
 20
182.964653
 30
0.0
 10
52.289205
 20
182.952220
 30
0.0
 10
52.378815
 20
182.952220
 30
0.0
  0
SPLINE
  5
146
100
AcDbEntity
  8
Plast_1
 62
7
100
AcDbSpline
 70
8
 71
3
 72
8
 73
4
 74
0
 40
0
 40
0
 40
0
 40
0
 40
1
 40
1
 40
1
 40
1
 10
52.378815
 20
182.952220
 30
0.0
 10
52.508250
 20
182.952220
 30
0.0
 10
52.642663
 20
182.969653
 30
0.0
 10
52.782054
 20
183.004520
 30
0.0
  0
SPLINE
  5
147
100
AcDbEntity
  8
Plast_1
 62
7
100
AcDbSpline
 70
8
 71
3
 72
8
 73
4
 74
0
 40
0
 40
0
 40
0
 40
0
 40
1
 40
1
 40
1
 40
1
 10
52.782054
 20
183.004520
 30
0.0
 10
52.921445
 20
183.041853
 30
0.0
 10
53.062080
 20
183.092880
 30
0.0
 10
53.203961
 20
183.157600
 30
0.0
  0
LWPOLYLINE
  5
148
100
AcDbEntity
  8
Plast_1
 62
7
100
AcDbPolyline
 90
1
 70
1
 10
44.149692
 20
191.274490
 30
0.0
  0
SPLINE
  5
149
100
AcDbEntity
  8
Plast_1
 62
7
100
AcDbSpline
 70
8
 71
3
 72
8
 73
4
 74
0
 40
0
 40
0
 40
0
 40
0
 40
1
 40
1
 40
1
 40
1
 10
53.274901
 20
182.963450
 30
0.0
 10
53.185292
 20
182.891270
 30
0.0
 10
53.072037
 20
182.817840
 30
0.0
 10
52.935135
 20
182.743160
 30
0.0
  0
SPLINE
  5
14a
100
AcDbEntity
  8
Plast_1
 62
7
100
AcDbSpline
 70
8
 71
3
 72
8
 73
4
 74
0
 40
0
 40
0
 40
0
 40
0
 40
1
 40
1
 40
1
 40
1
 10
52.935135
 20
182.743160
 30
0.0
 10
52.798233
 20
182.668487
 30
0.0
 10
52.653864
 20
182.600037
 30
0.0
 10
52.502027
 20
182.537810
 30
0.0
  0
SPLINE
  5
14b
100
AcDbEntity
  8
Plast_1
 62
7
100
AcDbSpline
 70
8
 71
3
 72
8
 73
4
 74
0
 40
0
 40
0
 40
0
 40
0
 40
1
 40
1
 40
1
 40
1
 10
52.502027
 20
182.537810
 30
0.0
 10
52.352679
 20
182.475610
 30
0.0
 10
52.203331
 20
182.425827
 30
0.0
 10
52.053984
 20
182.388460
 30
0.0
  0
SPLINE
  5
14c
100
AcDbEntity
  8
Plast_1
 62
7
100
AcDbSpline
 70
8
 71
3
 72
8
 73
4
 74
0
 40
0
 40
0
 40
0
 40
0
 40
1
 40
1
 40
1
 40
1
 10
52.053984
 20
182.388460
 30
0.0
 10
51.904636
 20
182.348660
 30
0.0
 10
51.772712
 20
182.328760
 30
0.0
 10
51.658213
 20
182.328760
 30
0.0
  0
SPLINE
  5
14d
100
AcDbEntity
  8
Plast_1
 62
7
100
AcDbSpline
 70
8
 71
3
 72
8
 73
4
 74
0
 40
0
 40
0
 40
0
 40
0
 40
1
 40
1
 40
1
 40
1
 10
51.658213
 20
182.328760
 30
0.0
 10
51.523800
 20
182.328760
 30
0.0
 10
51.418012
 20
182.364853
 30
0.0
 10
51.340849
 20
182.437040
 30
0.0
  0
SPLINE
  5
14e
100
AcDbEntity
  8
Plast_1
 62
7
100
AcDbSpline
 70
8
 71
3
 72
8
 73
4
 74
0
 40
0
 40
0
 40
0
 40
0
 40
1
 40
1
 40
1
 40
1
 10
51.340849
 20
182.437040
 30
0.0
 10
51.263686
 20
182.509227
 30
0.0
 10
51.205191
 20
182.607547
 30
0.0
 10
51.165365
 20
182.732000
 30
0.0
  0
SPLINE
  5
14f
100
AcDbEntity
  8
Plast_1
 62
7
100
AcDbSpline
 70
8
 71
3
 72
8
 73
4
 74
0
 40
0
 40
0
 40
0
 40
0
 40
1
 40
1
 40
1
 40
1
 10
51.165365
 20
182.732000
 30
0.0
 10
51.128025
 20
182.856460
 30
0.0
 10
51.103135
 20
183.002077
 30
0.0
 10
51.090695
 20
183.168850
 30
0.0
  0
SPLINE
  5
150
100
AcDbEntity
  8
Plast_1
 62
7
100
AcDbSpline
 70
8
 71
3
 72
8
 73
4
 74
0
 40
0
 40
0
 40
0
 40
0
 40
1
 40
1
 40
1
 40
1
 10
51.090695
 20
183.168850
 30
0.0
 10
51.080735
 20
183.335617
 30
0.0
 10
51.075755
 20
183.514833
 30
0.0
 10
51.075755
 20
183.706500
 30
0.0
  0
SPLINE
  5
151
100
AcDbEntity
  8
Plast_1
 62
7
100
AcDbSpline
 70
8
 71
3
 72
8
 73
4
 74
0
 40
0
 40
0
 40
0
 40
0
 40
1
 40
1
 40
1
 40
1
 10
51.075755
 20
183.706500
 30
0.0
 10
51.075755
 20
183.937987
 30
0.0
 10
51.083222
 20
184.176943
 30
0.0
 10
51.098155
 20
184.423370
 30
0.0
  0
SPLINE
  5
152
100
AcDbEntity
  8
Plast_1
 62
7
100
AcDbSpline
 70
8
 71
3
 72
8
 73
4
 74
0
 40
0
 40
0
 40
0
 40
0
 40
1
 40
1
 40
1
 40
1
 10
51.098155
 20
184.423370
 30
0.0
 10
51.115582
 20
184.669790
 30
0.0
 10
51.133005
 20
184.906257
 30
0.0
 10
51.150425
 20
185.132770
 30
0.0
  0
SPLINE
  5
153
100
AcDbEntity
  8
Plast_1
 62
7
100
AcDbSpline
 70
8
 71
3
 72
8
 73
4
 74
0
 40
0
 40
0
 40
0
 40
0
 40
1
 40
1
 40
1
 40
1
 10
51.150425
 20
185.132770
 30
0.0
 10
51.170338
 20
185.359277
 30
0.0
 10
51.187762
 20
185.565873
 30
0.0
 10
51.202695
 20
185.752560
 30
0.0
  0
SPLINE
  5
154
100
AcDbEntity
  8
Plast_1
 62
7
100
AcDbSpline
 70
8
 71
3
 72
8
 73
4
 74
0
 40
0
 40
0
 40
0
 40
0
 40
1
 40
1
 40
1
 40
1
 10
51.202695
 20
185.752560
 30
0.0
 10
51.220122
 20
185.941733
 30
0.0
 10
51.228835
 20
186.093570
 30
0.0
 10
51.228835
 20
186.208070
 30
0.0
  0
SPLINE
  5
155
100
AcDbEntity
  8
Plast_1
 62
7
100
AcDbSpline
 70
8
 71
3
 72
8
 73
4
 74
0
 40
0
 40
0
 40
0
 40
0
 40
1
 40
1
 40
1
 40
1
 10
51.228835
 20
186.208070
 30
0.0
 10
51.228835
 20
186.484363
 30
0.0
 10
51.175319
 20
186.690960
 30
0.0
 10
51.068286
 20
186.827860
 30
0.0
  0
SPLINE
  5
156
100
AcDbEntity
  8
Plast_1
 62
7
100
AcDbSpline
 70
8
 71
3
 72
8
 73
4
 74
0
 40
0
 40
0
 40
0
 40
0
 40
1
 40
1
 40
1
 40
1
 10
51.068286
 20
186.827860
 30
0.0
 10
50.961254
 20
186.967253
 30
0.0
 10
50.816885
 20
187.036950
 30
0.0
 10
50.635178
 20
187.036950
 30
0.0
  0
SPLINE
  5
157
100
AcDbEntity
  8
Plast_1
 62
7
100
AcDbSpline
 70
8
 71
3
 72
8
 73
4
 74
0
 40
0
 40
0
 40
0
 40
0
 40
1
 40
1
 40
1
 40
1
 10
50.635178
 20
187.036950
 30
0.0
 10
50.493298
 20
187.036950
 30
0.0
 10
50.341461
 20
186.975967
 30
0.0
 10
50.179668
 20
186.854000
 30
0.0
  0
SPLINE
  5
158
100
AcDbEntity
  8
Plast_1
 62
7
100
AcDbSpline
 70
8
 71
3
 72
8
 73
4
 74
0
 40
0
 40
0
 40
0
 40
0
 40
1
 40
1
 40
1
 40
1
 10
50.179668
 20
186.854000
 30
0.0
 10
50.020364
 20
186.732033
 30
0.0
 10
49.861060
 20
186.564017
 30
0.0
 10
49.701755
 20
186.349950
 30
0.0
  0
SPLINE
  5
159
100
AcDbEntity
  8
Plast_1
 62
7
100
AcDbSpline
 70
8
 71
3
 72
8
 73
4
 74
0
 40
0
 40
0
 40
0
 40
0
 40
1
 40
1
 40
1
 40
1
 10
49.701755
 20
186.349950
 30
0.0
 10
49.544940
 20
186.138377
 30
0.0
 10
49.393104
 20
185.886973
 30
0.0
 10
49.246245
 20
185.595740
 30
0.0
  0
SPLINE
  5
15a
100
AcDbEntity
  8
Plast_1
 62
7
100
AcDbSpline
 70
8
 71
3
 72
8
 73
4
 74
0
 40
0
 40
0
 40
0
 40
0
 40
1
 40
1
 40
1
 40
1
 10
49.246245
 20
185.595740
 30
0.0
 10
49.099386
 20
185.307007
 30
0.0
 10
48.967463
 20
184.993377
 30
0.0
 10
48.850474
 20
184.654850
 30
0.0
  0
SPLINE
  5
15b
100
AcDbEntity
  8
Plast_1
 62
7
100
AcDbSpline
 70
8
 71
3
 72
8
 73
4
 74
0
 40
0
 40
0
 40
0
 40
0
 40
1
 40
1
 40
1
 40
1
 10
48.850474
 20
184.654850
 30
0.0
 10
48.733485
 20
184.318823
 30
0.0
 10
48.636409
 20
183.966613
 30
0.0
 10
48.559246
 20
183.598220
 30
0.0
  0
SPLINE
  5
15c
100
AcDbEntity
  8
Plast_1
 62
7
100
AcDbSpline
 70
8
 71
3
 72
8
 73
4
 74
0
 40
0
 40
0
 40
0
 40
0
 40
1
 40
1
 40
1
 40
1
 10
48.559246
 20
183.598220
 30
0.0
 10
48.482083
 20
183.229827
 30
0.0
 10
48.433545
 20
182.861437
 30
0.0
 10
48.413632
 20
182.493050
 30
0.0
  0
LWPOLYLINE
  5
15d
100
AcDbEntity
  8
Plast_1
 62
7
100
AcDbPolyline
 90
2
 70
0
 10
53.203961
 20
183.157600
 30
0.0
 10
53.274901
 20
182.963450
 30
0.0
  0
SPLINE
  5
15e
100
AcDbEntity
  8
Plast_1
 62
7
100
AcDbSpline
 70
8
 71
3
 72
8
 73
4
 74
0
 40
0
 40
0
 40
0
 40
0
 40
1
 40
1
 40
1
 40
1
 10
47.558616
 20
182.399950
 30
0.0
 10
47.573549
 20
182.693670
 30
0.0
 10
47.589729
 20
183.017257
 30
0.0
 10
47.607156
 20
183.370710
 30
0.0
  0
SPLINE
  5
15f
100
AcDbEntity
  8
Plast_1
 62
7
100
AcDbSpline
 70
8
 71
3
 72
8
 73
4
 74
0
 40
0
 40
0
 40
0
 40
0
 40
1
 40
1
 40
1
 40
1
 10
47.607156
 20
183.370710
 30
0.0
 10
47.627069
 20
183.726657
 30
0.0
 10
47.646983
 20
184.103760
 30
0.0
 10
47.666896
 20
184.502020
 30
0.0
  0
SPLINE
  5
160
100
AcDbEntity
  8
Plast_1
 62
7
100
AcDbSpline
 70
8
 71
3
 72
8
 73
4
 74
0
 40
0
 40
0
 40
0
 40
0
 40
1
 40
1
 40
1
 40
1
 10
47.666896
 20
184.502020
 30
0.0
 10
47.689296
 20
184.900280
 30
0.0
 10
47.711699
 20
185.314720
 30
0.0
 10
47.734106
 20
185.745340
 30
0.0
  0
SPLINE
  5
161
100
AcDbEntity
  8
Plast_1
 62
7
100
AcDbSpline
 70
8
 71
3
 72
8
 73
4
 74
0
 40
0
 40
0
 40
0
 40
0
 40
1
 40
1
 40
1
 40
1
 10
47.734106
 20
185.745340
 30
0.0
 10
47.758999
 20
186.178447
 30
0.0
 10
47.782646
 20
186.619023
 30
0.0
 10
47.805046
 20
187.067070
 30
0.0
  0
SPLINE
  5
162
100
AcDbEntity
  8
Plast_1
 62
7
100
AcDbSpline
 70
8
 71
3
 72
8
 73
4
 74
0
 40
0
 40
0
 40
0
 40
0
 40
1
 40
1
 40
1
 40
1
 10
47.805046
 20
187.067070
 30
0.0
 10
47.829939
 20
187.515110
 30
0.0
 10
47.854829
 20
187.966887
 30
0.0
 10
47.879716
 20
188.422400
 30
0.0
  0
SPLINE
  5
163
100
AcDbEntity
  8
Plast_1
 62
7
100
AcDbSpline
 70
8
 71
3
 72
8
 73
4
 74
0
 40
0
 40
0
 40
0
 40
0
 40
1
 40
1
 40
1
 40
1
 10
47.879716
 20
188.422400
 30
0.0
 10
47.904609
 20
188.877907
 30
0.0
 10
47.928256
 20
189.327193
 30
0.0
 10
47.950656
 20
189.770260
 30
0.0
  0
SPLINE
  5
164
100
AcDbEntity
  8
Plast_1
 62
7
100
AcDbSpline
 70
8
 71
3
 72
8
 73
4
 74
0
 40
0
 40
0
 40
0
 40
0
 40
1
 40
1
 40
1
 40
1
 10
47.950656
 20
189.770260
 30
0.0
 10
47.975549
 20
190.215813
 30
0.0
 10
47.999196
 20
190.651410
 30
0.0
 10
48.021596
 20
191.077050
 30
0.0
  0
SPLINE
  5
165
100
AcDbEntity
  8
Plast_1
 62
7
100
AcDbSpline
 70
8
 71
3
 72
8
 73
4
 74
0
 40
0
 40
0
 40
0
 40
0
 40
1
 40
1
 40
1
 40
1
 10
48.021596
 20
191.077050
 30
0.0
 10
48.043996
 20
191.502690
 30
0.0
 10
48.065153
 20
191.909663
 30
0.0
 10
48.085066
 20
192.297970
 30
0.0
  0
SPLINE
  5
166
100
AcDbEntity
  8
Plast_1
 62
7
100
AcDbSpline
 70
8
 71
3
 72
8
 73
4
 74
0
 40
0
 40
0
 40
0
 40
0
 40
1
 40
1
 40
1
 40
1
 10
48.085066
 20
192.297970
 30
0.0
 10
48.087533
 20
192.357703
 30
0.0
 10
48.104956
 20
192.408730
 30
0.0
 10
48.137336
 20
192.451050
 30
0.0
  0
SPLINE
  5
167
100
AcDbEntity
  8
Plast_1
 62
7
100
AcDbSpline
 70
8
 71
3
 72
8
 73
4
 74
0
 40
0
 40
0
 40
0
 40
0
 40
1
 40
1
 40
1
 40
1
 10
48.137336
 20
192.451050
 30
0.0
 10
48.169696
 20
192.495850
 30
0.0
 10
48.210767
 20
192.530700
 30
0.0
 10
48.260548
 20
192.555600
 30
0.0
  0
SPLINE
  5
168
100
AcDbEntity
  8
Plast_1
 62
7
100
AcDbSpline
 70
8
 71
3
 72
8
 73
4
 74
0
 40
0
 40
0
 40
0
 40
0
 40
1
 40
1
 40
1
 40
1
 10
48.260548
 20
192.555600
 30
0.0
 10
48.312821
 20
192.583000
 30
0.0
 10
48.371316
 20
192.602900
 30
0.0
 10
48.436031
 20
192.615300
 30
0.0
  0
SPLINE
  5
169
100
AcDbEntity
  8
Plast_1
 62
7
100
AcDbSpline
 70
8
 71
3
 72
8
 73
4
 74
0
 40
0
 40
0
 40
0
 40
0
 40
1
 40
1
 40
1
 40
1
 10
48.436031
 20
192.615300
 30
0.0
 10
48.500751
 20
192.627767
 30
0.0
 10
48.567957
 20
192.634000
 30
0.0
 10
48.637650
 20
192.634000
 30
0.0
  0
SPLINE
  5
16a
100
AcDbEntity
  8
Plast_1
 62
7
100
AcDbSpline
 70
8
 71
3
 72
8
 73
4
 74
0
 40
0
 40
0
 40
0
 40
0
 40
1
 40
1
 40
1
 40
1
 10
48.637650
 20
192.634000
 30
0.0
 10
48.786998
 20
192.634000
 30
0.0
 10
48.943813
 20
192.594173
 30
0.0
 10
49.108095
 20
192.514520
 30
0.0
  0
SPLINE
  5
16b
100
AcDbEntity
  8
Plast_1
 62
7
100
AcDbSpline
 70
8
 71
3
 72
8
 73
4
 74
0
 40
0
 40
0
 40
0
 40
0
 40
1
 40
1
 40
1
 40
1
 10
49.108095
 20
192.514520
 30
0.0
 10
49.050848
 20
192.006740
 30
0.0
 10
48.999821
 20
191.540030
 30
0.0
 10
48.955014
 20
191.114390
 30
0.0
  0
SPLINE
  5
16c
100
AcDbEntity
  8
Plast_1
 62
7
100
AcDbSpline
 70
8
 71
3
 72
8
 73
4
 74
0
 40
0
 40
0
 40
0
 40
0
 40
1
 40
1
 40
1
 40
1
 10
48.955014
 20
191.114390
 30
0.0
 10
48.910207
 20
190.691237
 30
0.0
 10
48.869137
 20
190.297953
 30
0.0
 10
48.831802
 20
189.934540
 30
0.0
  0
SPLINE
  5
16d
100
AcDbEntity
  8
Plast_1
 62
7
100
AcDbSpline
 70
8
 71
3
 72
8
 73
4
 74
0
 40
0
 40
0
 40
0
 40
0
 40
1
 40
1
 40
1
 40
1
 10
48.831802
 20
189.934540
 30
0.0
 10
48.796955
 20
189.573620
 30
0.0
 10
48.764595
 20
189.236343
 30
0.0
 10
48.734722
 20
188.922710
 30
0.0
  0
SPLINE
  5
16e
100
AcDbEntity
  8
Plast_1
 62
7
100
AcDbSpline
 70
8
 71
3
 72
8
 73
4
 74
0
 40
0
 40
0
 40
0
 40
0
 40
1
 40
1
 40
1
 40
1
 10
48.734722
 20
188.922710
 30
0.0
 10
48.707342
 20
188.609083
 30
0.0
 10
48.681205
 20
188.307900
 30
0.0
 10
48.656312
 20
188.019160
 30
0.0
  0
SPLINE
  5
16f
100
AcDbEntity
  8
Plast_1
 62
7
100
AcDbSpline
 70
8
 71
3
 72
8
 73
4
 74
0
 40
0
 40
0
 40
0
 40
0
 40
1
 40
1
 40
1
 40
1
 10
48.656312
 20
188.019160
 30
0.0
 10
48.633912
 20
187.732913
 30
0.0
 10
48.612755
 20
187.452887
 30
0.0
 10
48.592842
 20
187.179080
 30
0.0
  0
SPLINE
  5
170
100
AcDbEntity
  8
Plast_1
 62
7
100
AcDbSpline
 70
8
 71
3
 72
8
 73
4
 74
0
 40
0
 40
0
 40
0
 40
0
 40
1
 40
1
 40
1
 40
1
 10
48.592842
 20
187.179080
 30
0.0
 10
48.572929
 20
186.905273
 30
0.0
 10
48.553015
 20
186.626490
 30
0.0
 10
48.533102
 20
186.342730
 30
0.0
  0
SPLINE
  5
171
100
AcDbEntity
  8
Plast_1
 62
7
100
AcDbSpline
 70
8
 71
3
 72
8
 73
4
 74
0
 40
0
 40
0
 40
0
 40
0
 40
1
 40
1
 40
1
 40
1
 10
48.533102
 20
186.342730
 30
0.0
 10
48.513189
 20
186.061463
 30
0.0
 10
48.492032
 20
185.767747
 30
0.0
 10
48.469632
 20
185.461580
 30
0.0
  0
SPLINE
  5
172
100
AcDbEntity
  8
Plast_1
 62
7
100
AcDbSpline
 70
8
 71
3
 72
8
 73
4
 74
0
 40
0
 40
0
 40
0
 40
0
 40
1
 40
1
 40
1
 40
1
 10
48.469632
 20
185.461580
 30
0.0
 10
48.449719
 20
185.157907
 30
0.0
 10
48.427315
 20
184.830587
 30
0.0
 10
48.402422
 20
184.479620
 30
0.0
  0
LWPOLYLINE
  5
173
100
AcDbEntity
  8
Plast_1
 62
7
100
AcDbPolyline
 90
3
 70
0
 10
48.413632
 20
182.493050
 30
0.0
 10
47.618356
 20
182.395950
 30
0.0
 10
47.558616
 20
182.399950
 30
0.0
  0
SPLINE
  5
174
100
AcDbEntity
  8
Plast_1
 62
7
100
AcDbSpline
 70
8
 71
3
 72
8
 73
4
 74
0
 40
0
 40
0
 40
0
 40
0
 40
1
 40
1
 40
1
 40
1
 10
56.750955
 20
186.331130
 30
0.0
 10
56.750955
 20
186.527770
 30
0.0
 10
56.718595
 20
186.698277
 30
0.0
 10
56.653875
 20
186.842650
 30
0.0
  0
SPLINE
  5
175
100
AcDbEntity
  8
Plast_1
 62
7
100
AcDbSpline
 70
8
 71
3
 72
8
 73
4
 74
0
 40
0
 40
0
 40
0
 40
0
 40
1
 40
1
 40
1
 40
1
 10
56.653875
 20
186.842650
 30
0.0
 10
56.589155
 20
186.987017
 30
0.0
 10
56.504525
 20
187.105250
 30
0.0
 10
56.399984
 20
187.197350
 30
0.0
  0
SPLINE
  5
176
100
AcDbEntity
  8
Plast_1
 62
7
100
AcDbSpline
 70
8
 71
3
 72
8
 73
4
 74
0
 40
0
 40
0
 40
0
 40
0
 40
1
 40
1
 40
1
 40
1
 10
56.399984
 20
187.197350
 30
0.0
 10
56.295441
 20
187.289443
 30
0.0
 10
56.177207
 20
187.357893
 30
0.0
 10
56.045284
 20
187.402700
 30
0.0
  0
SPLINE
  5
177
100
AcDbEntity
  8
Plast_1
 62
7
100
AcDbSpline
 70
8
 71
3
 72
8
 73
4
 74
0
 40
0
 40
0
 40
0
 40
0
 40
1
 40
1
 40
1
 40
1
 10
56.045284
 20
187.402700
 30
0.0
 10
55.913360
 20
187.447500
 30
0.0
 10
55.781436
 20
187.469900
 30
0.0
 10
55.649512
 20
187.469900
 30
0.0
  0
SPLINE
  5
178
100
AcDbEntity
  8
Plast_1
 62
7
100
AcDbSpline
 70
8
 71
3
 72
8
 73
4
 74
0
 40
0
 40
0
 40
0
 40
0
 40
1
 40
1
 40
1
 40
1
 10
55.649512
 20
187.469900
 30
0.0
 10
55.472784
 20
187.469900
 30
0.0
 10
55.323436
 20
187.451233
 30
0.0
 10
55.201469
 20
187.413900
 30
0.0
  0
SPLINE
  5
179
100
AcDbEntity
  8
Plast_1
 62
7
100
AcDbSpline
 70
8
 71
3
 72
8
 73
4
 74
0
 40
0
 40
0
 40
0
 40
0
 40
1
 40
1
 40
1
 40
1
 10
55.201469
 20
187.413900
 30
0.0
 10
55.079502
 20
187.376567
 30
0.0
 10
54.979937
 20
187.325540
 30
0.0
 10
54.902774
 20
187.260820
 30
0.0
  0
SPLINE
  5
17a
100
AcDbEntity
  8
Plast_1
 62
7
100
AcDbSpline
 70
8
 71
3
 72
8
 73
4
 74
0
 40
0
 40
0
 40
0
 40
0
 40
1
 40
1
 40
1
 40
1
 10
54.902774
 20
187.260820
 30
0.0
 10
54.828100
 20
187.196087
 30
0.0
 10
54.773339
 20
187.118923
 30
0.0
 10
54.738492
 20
187.029330
 30
0.0
  0
SPLINE
  5
17b
100
AcDbEntity
  8
Plast_1
 62
7
100
AcDbSpline
 70
8
 71
3
 72
8
 73
4
 74
0
 40
0
 40
0
 40
0
 40
0
 40
1
 40
1
 40
1
 40
1
 10
54.738492
 20
187.029330
 30
0.0
 10
54.706132
 20
186.942210
 30
0.0
 10
54.689952
 20
186.847623
 30
0.0
 10
54.689952
 20
186.745570
 30
0.0
  0
SPLINE
  5
17c
100
AcDbEntity
  8
Plast_1
 62
7
100
AcDbSpline
 70
8
 71
3
 72
8
 73
4
 74
0
 40
0
 40
0
 40
0
 40
0
 40
1
 40
1
 40
1
 40
1
 10
54.689952
 20
186.745570
 30
0.0
 10
54.689952
 20
186.626090
 30
0.0
 10
54.711109
 20
186.505367
 30
0.0
 10
54.753422
 20
186.383400
 30
0.0
  0
SPLINE
  5
17d
100
AcDbEntity
  8
Plast_1
 62
7
100
AcDbSpline
 70
8
 71
3
 72
8
 73
4
 74
0
 40
0
 40
0
 40
0
 40
0
 40
1
 40
1
 40
1
 40
1
 10
54.753422
 20
186.383400
 30
0.0
 10
54.798229
 20
186.263927
 30
0.0
 10
54.862946
 20
186.146940
 30
0.0
 10
54.947574
 20
186.032440
 30
0.0
  0
LWPOLYLINE
  5
17e
100
AcDbEntity
  8
Plast_1
 62
7
100
AcDbPolyline
 90
2
 70
0
 10
48.402422
 20
184.479620
 30
0.0
 10
48.424824
 20
184.475490
 30
0.0
  0
SPLINE
  5
17f
100
AcDbEntity
  8
Plast_1
 62
7
100
AcDbSpline
 70
8
 71
3
 72
8
 73
4
 74
0
 40
0
 40
0
 40
0
 40
0
 40
1
 40
1
 40
1
 40
1
 10
54.932644
 20
185.991340
 30
0.0
 10
54.790763
 20
185.921640
 30
0.0
 10
54.647638
 20
185.886790
 30
0.0
 10
54.503269
 20
185.886790
 30
0.0
  0
SPLINE
  5
180
100
AcDbEntity
  8
Plast_1
 62
7
100
AcDbSpline
 70
8
 71
3
 72
8
 73
4
 74
0
 40
0
 40
0
 40
0
 40
0
 40
1
 40
1
 40
1
 40
1
 10
54.503269
 20
185.886790
 30
0.0
 10
54.418639
 20
185.886790
 30
0.0
 10
54.338987
 20
185.899223
 30
0.0
 10
54.264313
 20
185.924090
 30
0.0
  0
SPLINE
  5
181
100
AcDbEntity
  8
Plast_1
 62
7
100
AcDbSpline
 70
8
 71
3
 72
8
 73
4
 74
0
 40
0
 40
0
 40
0
 40
0
 40
1
 40
1
 40
1
 40
1
 10
54.264313
 20
185.924090
 30
0.0
 10
54.192128
 20
185.951490
 30
0.0
 10
54.128656
 20
185.990070
 30
0.0
 10
54.073895
 20
186.039830
 30
0.0
  0
SPLINE
  5
182
100
AcDbEntity
  8
Plast_1
 62
7
100
AcDbSpline
 70
8
 71
3
 72
8
 73
4
 74
0
 40
0
 40
0
 40
0
 40
0
 40
1
 40
1
 40
1
 40
1
 10
54.073895
 20
186.039830
 30
0.0
 10
54.021622
 20
186.089630
 30
0.0
 10
53.979306
 20
186.150613
 30
0.0
 10
53.946949
 20
186.222780
 30
0.0
  0
SPLINE
  5
183
100
AcDbEntity
  8
Plast_1
 62
7
100
AcDbSpline
 70
8
 71
3
 72
8
 73
4
 74
0
 40
0
 40
0
 40
0
 40
0
 40
1
 40
1
 40
1
 40
1
 10
53.946949
 20
186.222780
 30
0.0
 10
53.917082
 20
186.294967
 30
0.0
 10
53.902149
 20
186.375863
 30
0.0
 10
53.902149
 20
186.465470
 30
0.0
  0
SPLINE
  5
184
100
AcDbEntity
  8
Plast_1
 62
7
100
AcDbSpline
 70
8
 71
3
 72
8
 73
4
 74
0
 40
0
 40
0
 40
0
 40
0
 40
1
 40
1
 40
1
 40
1
 10
53.902149
 20
186.465470
 30
0.0
 10
53.902149
 20
186.612330
 30
0.0
 10
53.936997
 20
186.750477
 30
0.0
 10
54.006692
 20
186.879910
 30
0.0
  0
SPLINE
  5
185
100
AcDbEntity
  8
Plast_1
 62
7
100
AcDbSpline
 70
8
 71
3
 72
8
 73
4
 74
0
 40
0
 40
0
 40
0
 40
0
 40
1
 40
1
 40
1
 40
1
 10
54.006692
 20
186.879910
 30
0.0
 10
54.078877
 20
187.009350
 30
0.0
 10
54.173464
 20
187.127583
 30
0.0
 10
54.290453
 20
187.234610
 30
0.0
  0
SPLINE
  5
186
100
AcDbEntity
  8
Plast_1
 62
7
100
AcDbSpline
 70
8
 71
3
 72
8
 73
4
 74
0
 40
0
 40
0
 40
0
 40
0
 40
1
 40
1
 40
1
 40
1
 10
54.290453
 20
187.234610
 30
0.0
 10
54.407442
 20
187.341643
 30
0.0
 10
54.543099
 20
187.437477
 30
0.0
 10
54.697425
 20
187.522110
 30
0.0
  0
SPLINE
  5
187
100
AcDbEntity
  8
Plast_1
 62
7
100
AcDbSpline
 70
8
 71
3
 72
8
 73
4
 74
0
 40
0
 40
0
 40
0
 40
0
 40
1
 40
1
 40
1
 40
1
 10
54.697425
 20
187.522110
 30
0.0
 10
54.851751
 20
187.606737
 30
0.0
 10
55.011055
 20
187.677677
 30
0.0
 10
55.175338
 20
187.734930
 30
0.0
  0
SPLINE
  5
188
100
AcDbEntity
  8
Plast_1
 62
7
100
AcDbSpline
 70
8
 71
3
 72
8
 73
4
 74
0
 40
0
 40
0
 40
0
 40
0
 40
1
 40
1
 40
1
 40
1
 10
55.175338
 20
187.734930
 30
0.0
 10
55.339620
 20
187.794663
 30
0.0
 10
55.503902
 20
187.839467
 30
0.0
 10
55.668185
 20
187.869340
 30
0.0
  0
SPLINE
  5
189
100
AcDbEntity
  8
Plast_1
 62
7
100
AcDbSpline
 70
8
 71
3
 72
8
 73
4
 74
0
 40
0
 40
0
 40
0
 40
0
 40
1
 40
1
 40
1
 40
1
 10
55.668185
 20
187.869340
 30
0.0
 10
55.834956
 20
187.901673
 30
0.0
 10
55.989282
 20
187.917840
 30
0.0
 10
56.131163
 20
187.917840
 30
0.0
  0
SPLINE
  5
18a
100
AcDbEntity
  8
Plast_1
 62
7
100
AcDbSpline
 70
8
 71
3
 72
8
 73
4
 74
0
 40
0
 40
0
 40
0
 40
0
 40
1
 40
1
 40
1
 40
1
 10
56.131163
 20
187.917840
 30
0.0
 10
56.392521
 20
187.917840
 30
0.0
 10
56.615298
 20
187.882993
 30
0.0
 10
56.799493
 20
187.813300
 30
0.0
  0
SPLINE
  5
18b
100
AcDbEntity
  8
Plast_1
 62
7
100
AcDbSpline
 70
8
 71
3
 72
8
 73
4
 74
0
 40
0
 40
0
 40
0
 40
0
 40
1
 40
1
 40
1
 40
1
 10
56.799493
 20
187.813300
 30
0.0
 10
56.986178
 20
187.743600
 30
0.0
 10
57.136770
 20
187.641543
 30
0.0
 10
57.251270
 20
187.507130
 30
0.0
  0
SPLINE
  5
18c
100
AcDbEntity
  8
Plast_1
 62
7
100
AcDbSpline
 70
8
 71
3
 72
8
 73
4
 74
0
 40
0
 40
0
 40
0
 40
0
 40
1
 40
1
 40
1
 40
1
 10
57.251270
 20
187.507130
 30
0.0
 10
57.368259
 20
187.375210
 30
0.0
 10
57.452889
 20
187.214663
 30
0.0
 10
57.505161
 20
187.025490
 30
0.0
  0
SPLINE
  5
18d
100
AcDbEntity
  8
Plast_1
 62
7
100
AcDbSpline
 70
8
 71
3
 72
8
 73
4
 74
0
 40
0
 40
0
 40
0
 40
0
 40
1
 40
1
 40
1
 40
1
 10
57.505161
 20
187.025490
 30
0.0
 10
57.559921
 20
186.836317
 30
0.0
 10
57.587301
 20
186.622250
 30
0.0
 10
57.587301
 20
186.383290
 30
0.0
  0
SPLINE
  5
18e
100
AcDbEntity
  8
Plast_1
 62
7
100
AcDbSpline
 70
8
 71
3
 72
8
 73
4
 74
0
 40
0
 40
0
 40
0
 40
0
 40
1
 40
1
 40
1
 40
1
 10
57.587301
 20
186.383290
 30
0.0
 10
57.587301
 20
186.219010
 30
0.0
 10
57.579834
 20
186.038550
 30
0.0
 10
57.564901
 20
185.841910
 30
0.0
  0
SPLINE
  5
18f
100
AcDbEntity
  8
Plast_1
 62
7
100
AcDbSpline
 70
8
 71
3
 72
8
 73
4
 74
0
 40
0
 40
0
 40
0
 40
0
 40
1
 40
1
 40
1
 40
1
 10
57.564901
 20
185.841910
 30
0.0
 10
57.552454
 20
185.645270
 30
0.0
 10
57.537521
 20
185.438673
 30
0.0
 10
57.520101
 20
185.222120
 30
0.0
  0
SPLINE
  5
190
100
AcDbEntity
  8
Plast_1
 62
7
100
AcDbSpline
 70
8
 71
3
 72
8
 73
4
 74
0
 40
0
 40
0
 40
0
 40
0
 40
1
 40
1
 40
1
 40
1
 10
57.520101
 20
185.222120
 30
0.0
 10
57.502674
 20
185.008053
 30
0.0
 10
57.486494
 20
184.786520
 30
0.0
 10
57.471561
 20
184.557520
 30
0.0
  0
SPLINE
  5
191
100
AcDbEntity
  8
Plast_1
 62
7
100
AcDbSpline
 70
8
 71
3
 72
8
 73
4
 74
0
 40
0
 40
0
 40
0
 40
0
 40
1
 40
1
 40
1
 40
1
 10
57.471561
 20
184.557520
 30
0.0
 10
57.459114
 20
184.328520
 30
0.0
 10
57.452891
 20
184.100763
 30
0.0
 10
57.452891
 20
183.874250
 30
0.0
  0
SPLINE
  5
192
100
AcDbEntity
  8
Plast_1
 62
7
100
AcDbSpline
 70
8
 71
3
 72
8
 73
4
 74
0
 40
0
 40
0
 40
0
 40
0
 40
1
 40
1
 40
1
 40
1
 10
57.452891
 20
183.874250
 30
0.0
 10
57.452891
 20
183.515817
 30
0.0
 10
57.518853
 20
183.245747
 30
0.0
 10
57.650777
 20
183.064040
 30
0.0
  0
SPLINE
  5
193
100
AcDbEntity
  8
Plast_1
 62
7
100
AcDbSpline
 70
8
 71
3
 72
8
 73
4
 74
0
 40
0
 40
0
 40
0
 40
0
 40
1
 40
1
 40
1
 40
1
 10
57.650777
 20
183.064040
 30
0.0
 10
57.785190
 20
182.884827
 30
0.0
 10
57.960673
 20
182.795220
 30
0.0
 10
58.177227
 20
182.795220
 30
0.0
  0
SPLINE
  5
194
100
AcDbEntity
  8
Plast_1
 62
7
100
AcDbSpline
 70
8
 71
3
 72
8
 73
4
 74
0
 40
0
 40
0
 40
0
 40
0
 40
1
 40
1
 40
1
 40
1
 10
58.177227
 20
182.795220
 30
0.0
 10
58.368890
 20
182.795220
 30
0.0
 10
58.582955
 20
182.866160
 30
0.0
 10
58.819422
 20
183.008040
 30
0.0
  0
LWPOLYLINE
  5
195
100
AcDbEntity
  8
Plast_1
 62
7
100
AcDbPolyline
 90
2
 70
0
 10
54.947574
 20
186.032440
 30
0.0
 10
54.932644
 20
185.991340
 30
0.0
  0
SPLINE
  5
196
100
AcDbEntity
  8
Plast_1
 62
7
100
AcDbSpline
 70
8
 71
3
 72
8
 73
4
 74
0
 40
0
 40
0
 40
0
 40
0
 40
1
 40
1
 40
1
 40
1
 10
58.927699
 20
182.847490
 30
0.0
 10
58.760928
 20
182.680717
 30
0.0
 10
58.579221
 20
182.553770
 30
0.0
 10
58.382580
 20
182.466650
 30
0.0
  0
SPLINE
  5
197
100
AcDbEntity
  8
Plast_1
 62
7
100
AcDbSpline
 70
8
 71
3
 72
8
 73
4
 74
0
 40
0
 40
0
 40
0
 40
0
 40
1
 40
1
 40
1
 40
1
 10
58.382580
 20
182.466650
 30
0.0
 10
58.185939
 20
182.379530
 30
0.0
 10
57.979342
 20
182.335970
 30
0.0
 10
57.762788
 20
182.335970
 30
0.0
  0
SPLINE
  5
198
100
AcDbEntity
  8
Plast_1
 62
7
100
AcDbSpline
 70
8
 71
3
 72
8
 73
4
 74
0
 40
0
 40
0
 40
0
 40
0
 40
1
 40
1
 40
1
 40
1
 10
57.762788
 20
182.335970
 30
0.0
 10
57.600995
 20
182.335970
 30
0.0
 10
57.451647
 20
182.363337
 30
0.0
 10
57.314745
 20
182.418070
 30
0.0
  0
SPLINE
  5
199
100
AcDbEntity
  8
Plast_1
 62
7
100
AcDbSpline
 70
8
 71
3
 72
8
 73
4
 74
0
 40
0
 40
0
 40
0
 40
0
 40
1
 40
1
 40
1
 40
1
 10
57.314745
 20
182.418070
 30
0.0
 10
57.177843
 20
182.472803
 30
0.0
 10
57.059609
 20
182.553700
 30
0.0
 10
56.960044
 20
182.660760
 30
0.0
  0
SPLINE
  5
19a
100
AcDbEntity
  8
Plast_1
 62
7
100
AcDbSpline
 70
8
 71
3
 72
8
 73
4
 74
0
 40
0
 40
0
 40
0
 40
0
 40
1
 40
1
 40
1
 40
1
 10
56.960044
 20
182.660760
 30
0.0
 10
56.860479
 20
182.770287
 30
0.0
 10
56.783316
 20
182.907190
 30
0.0
 10
56.728555
 20
183.071470
 30
0.0
  0
SPLINE
  5
19b
100
AcDbEntity
  8
Plast_1
 62
7
100
AcDbSpline
 70
8
 71
3
 72
8
 73
4
 74
0
 40
0
 40
0
 40
0
 40
0
 40
1
 40
1
 40
1
 40
1
 10
56.728555
 20
183.071470
 30
0.0
 10
56.673795
 20
183.235750
 30
0.0
 10
56.646415
 20
183.426167
 30
0.0
 10
56.646415
 20
183.642720
 30
0.0
  0
SPLINE
  5
19c
100
AcDbEntity
  8
Plast_1
 62
7
100
AcDbSpline
 70
8
 71
3
 72
8
 73
4
 74
0
 40
0
 40
0
 40
0
 40
0
 40
1
 40
1
 40
1
 40
1
 10
56.646415
 20
183.642720
 30
0.0
 10
56.646415
 20
183.707453
 30
0.0
 10
56.647648
 20
183.772173
 30
0.0
 10
56.650115
 20
183.836880
 30
0.0
  0
SPLINE
  5
19d
100
AcDbEntity
  8
Plast_1
 62
7
100
AcDbSpline
 70
8
 71
3
 72
8
 73
4
 74
0
 40
0
 40
0
 40
0
 40
0
 40
1
 40
1
 40
1
 40
1
 10
56.650115
 20
183.836880
 30
0.0
 10
56.655115
 20
183.901613
 30
0.0
 10
56.663828
 20
183.970063
 30
0.0
 10
56.676255
 20
184.042230
 30
0.0
  0
LWPOLYLINE
  5
19e
100
AcDbEntity
  8
Plast_1
 62
7
100
AcDbPolyline
 90
2
 70
0
 10
58.819422
 20
183.008040
 30
0.0
 10
58.927699
 20
182.847490
 30
0.0
  0
SPLINE
  5
19f
100
AcDbEntity
  8
Plast_1
 62
7
100
AcDbSpline
 70
8
 71
3
 72
8
 73
4
 74
0
 40
0
 40
0
 40
0
 40
0
 40
1
 40
1
 40
1
 40
1
 10
56.653855
 20
184.042230
 30
0.0
 10
56.546823
 20
183.828163
 30
0.0
 10
56.422367
 20
183.616587
 30
0.0
 10
56.280486
 20
183.407500
 30
0.0
  0
SPLINE
  5
1a0
100
AcDbEntity
  8
Plast_1
 62
7
100
AcDbSpline
 70
8
 71
3
 72
8
 73
4
 74
0
 40
0
 40
0
 40
0
 40
0
 40
1
 40
1
 40
1
 40
1
 10
56.280486
 20
183.407500
 30
0.0
 10
56.141095
 20
183.200907
 30
0.0
 10
55.986769
 20
183.015467
 30
0.0
 10
55.817508
 20
182.851180
 30
0.0
  0
SPLINE
  5
1a1
100
AcDbEntity
  8
Plast_1
 62
7
100
AcDbSpline
 70
8
 71
3
 72
8
 73
4
 74
0
 40
0
 40
0
 40
0
 40
0
 40
1
 40
1
 40
1
 40
1
 10
55.817508
 20
182.851180
 30
0.0
 10
55.650737
 20
182.689387
 30
0.0
 10
55.471520
 20
182.558707
 30
0.0
 10
55.279857
 20
182.459140
 30
0.0
  0
SPLINE
  5
1a2
100
AcDbEntity
  8
Plast_1
 62
7
100
AcDbSpline
 70
8
 71
3
 72
8
 73
4
 74
0
 40
0
 40
0
 40
0
 40
0
 40
1
 40
1
 40
1
 40
1
 10
55.279857
 20
182.459140
 30
0.0
 10
55.090683
 20
182.357087
 30
0.0
 10
54.891553
 20
182.306060
 30
0.0
 10
54.682466
 20
182.306060
 30
0.0
  0
SPLINE
  5
1a3
100
AcDbEntity
  8
Plast_1
 62
7
100
AcDbSpline
 70
8
 71
3
 72
8
 73
4
 74
0
 40
0
 40
0
 40
0
 40
0
 40
1
 40
1
 40
1
 40
1
 10
54.682466
 20
182.306060
 30
0.0
 10
54.510717
 20
182.306060
 30
0.0
 10
54.353902
 20
182.335927
 30
0.0
 10
54.212021
 20
182.395660
 30
0.0
  0
SPLINE
  5
1a4
100
AcDbEntity
  8
Plast_1
 62
7
100
AcDbSpline
 70
8
 71
3
 72
8
 73
4
 74
0
 40
0
 40
0
 40
0
 40
0
 40
1
 40
1
 40
1
 40
1
 10
54.212021
 20
182.395660
 30
0.0
 10
54.070141
 20
182.455393
 30
0.0
 10
53.948174
 20
182.537533
 30
0.0
 10
53.846119
 20
182.642080
 30
0.0
  0
SPLINE
  5
1a5
100
AcDbEntity
  8
Plast_1
 62
7
100
AcDbSpline
 70
8
 71
3
 72
8
 73
4
 74
0
 40
0
 40
0
 40
0
 40
0
 40
1
 40
1
 40
1
 40
1
 10
53.846119
 20
182.642080
 30
0.0
 10
53.746554
 20
182.746627
 30
0.0
 10
53.668147
 20
182.869840
 30
0.0
 10
53.610897
 20
183.011720
 30
0.0
  0
SPLINE
  5
1a6
100
AcDbEntity
  8
Plast_1
 62
7
100
AcDbSpline
 70
8
 71
3
 72
8
 73
4
 74
0
 40
0
 40
0
 40
0
 40
0
 40
1
 40
1
 40
1
 40
1
 10
53.610897
 20
183.011720
 30
0.0
 10
53.556137
 20
183.156087
 30
0.0
 10
53.528757
 20
183.312903
 30
0.0
 10
53.528757
 20
183.482170
 30
0.0
  0
SPLINE
  5
1a7
100
AcDbEntity
  8
Plast_1
 62
7
100
AcDbSpline
 70
8
 71
3
 72
8
 73
4
 74
0
 40
0
 40
0
 40
0
 40
0
 40
1
 40
1
 40
1
 40
1
 10
53.528757
 20
183.482170
 30
0.0
 10
53.528757
 20
183.701210
 30
0.0
 10
53.568583
 20
183.900340
 30
0.0
 10
53.648235
 20
184.079560
 30
0.0
  0
SPLINE
  5
1a8
100
AcDbEntity
  8
Plast_1
 62
7
100
AcDbSpline
 70
8
 71
3
 72
8
 73
4
 74
0
 40
0
 40
0
 40
0
 40
0
 40
1
 40
1
 40
1
 40
1
 10
53.648235
 20
184.079560
 30
0.0
 10
53.730376
 20
184.258773
 30
0.0
 10
53.842387
 20
184.419320
 30
0.0
 10
53.984267
 20
184.561200
 30
0.0
  0
SPLINE
  5
1a9
100
AcDbEntity
  8
Plast_1
 62
7
100
AcDbSpline
 70
8
 71
3
 72
8
 73
4
 74
0
 40
0
 40
0
 40
0
 40
0
 40
1
 40
1
 40
1
 40
1
 10
53.984267
 20
184.561200
 30
0.0
 10
54.128636
 20
184.703080
 30
0.0
 10
54.300386
 20
184.825047
 30
0.0
 10
54.499516
 20
184.927100
 30
0.0
  0
SPLINE
  5
1aa
100
AcDbEntity
  8
Plast_1
 62
7
100
AcDbSpline
 70
8
 71
3
 72
8
 73
4
 74
0
 40
0
 40
0
 40
0
 40
0
 40
1
 40
1
 40
1
 40
1
 10
54.499516
 20
184.927100
 30
0.0
 10
54.698647
 20
185.031647
 30
0.0
 10
54.915201
 20
185.117523
 30
0.0
 10
55.149179
 20
185.184730
 30
0.0
  0
SPLINE
  5
1ab
100
AcDbEntity
  8
Plast_1
 62
7
100
AcDbSpline
 70
8
 71
3
 72
8
 73
4
 74
0
 40
0
 40
0
 40
0
 40
0
 40
1
 40
1
 40
1
 40
1
 10
55.149179
 20
185.184730
 30
0.0
 10
55.383157
 20
185.254423
 30
0.0
 10
55.630825
 20
185.305450
 30
0.0
 10
55.892183
 20
185.337810
 30
0.0
  0
SPLINE
  5
1ac
100
AcDbEntity
  8
Plast_1
 62
7
100
AcDbSpline
 70
8
 71
3
 72
8
 73
4
 74
0
 40
0
 40
0
 40
0
 40
0
 40
1
 40
1
 40
1
 40
1
 10
55.892183
 20
185.337810
 30
0.0
 10
56.153542
 20
185.372677
 30
0.0
 10
56.419878
 20
185.390110
 30
0.0
 10
56.691193
 20
185.390110
 30
0.0
  0
SPLINE
  5
1ad
100
AcDbEntity
  8
Plast_1
 62
7
100
AcDbSpline
 70
8
 71
3
 72
8
 73
4
 74
0
 40
0
 40
0
 40
0
 40
0
 40
1
 40
1
 40
1
 40
1
 10
56.691193
 20
185.390110
 30
0.0
 10
56.708620
 20
185.546923
 30
0.0
 10
56.722310
 20
185.698760
 30
0.0
 10
56.732263
 20
185.845620
 30
0.0
  0
SPLINE
  5
1ae
100
AcDbEntity
  8
Plast_1
 62
7
100
AcDbSpline
 70
8
 71
3
 72
8
 73
4
 74
0
 40
0
 40
0
 40
0
 40
0
 40
1
 40
1
 40
1
 40
1
 10
56.732263
 20
185.845620
 30
0.0
 10
56.744710
 20
185.992480
 30
0.0
 10
56.750933
 20
186.154273
 30
0.0
 10
56.750933
 20
186.331000
 30
0.0
  0
LWPOLYLINE
  5
1af
100
AcDbEntity
  8
Plast_1
 62
7
100
AcDbPolyline
 90
2
 70
0
 10
56.676255
 20
184.042230
 30
0.0
 10
56.653855
 20
184.042230
 30
0.0
  0
SPLINE
  5
1b0
100
AcDbEntity
  8
Plast_1
 62
7
100
AcDbSpline
 70
8
 71
3
 72
8
 73
4
 74
0
 40
0
 40
0
 40
0
 40
0
 40
1
 40
1
 40
1
 40
1
 10
54.458469
 20
183.766090
 30
0.0
 10
54.458469
 20
183.669010
 30
0.0
 10
54.468426
 20
183.575667
 30
0.0
 10
54.488339
 20
183.486060
 30
0.0
  0
SPLINE
  5
1b1
100
AcDbEntity
  8
Plast_1
 62
7
100
AcDbSpline
 70
8
 71
3
 72
8
 73
4
 74
0
 40
0
 40
0
 40
0
 40
0
 40
1
 40
1
 40
1
 40
1
 10
54.488339
 20
183.486060
 30
0.0
 10
54.510739
 20
183.398940
 30
0.0
 10
54.544342
 20
183.321777
 30
0.0
 10
54.589149
 20
183.254570
 30
0.0
  0
SPLINE
  5
1b2
100
AcDbEntity
  8
Plast_1
 62
7
100
AcDbSpline
 70
8
 71
3
 72
8
 73
4
 74
0
 40
0
 40
0
 40
0
 40
0
 40
1
 40
1
 40
1
 40
1
 10
54.589149
 20
183.254570
 30
0.0
 10
54.636442
 20
183.187363
 30
0.0
 10
54.694937
 20
183.133847
 30
0.0
 10
54.764632
 20
183.094020
 30
0.0
  0
SPLINE
  5
1b3
100
AcDbEntity
  8
Plast_1
 62
7
100
AcDbSpline
 70
8
 71
3
 72
8
 73
4
 74
0
 40
0
 40
0
 40
0
 40
0
 40
1
 40
1
 40
1
 40
1
 10
54.764632
 20
183.094020
 30
0.0
 10
54.836817
 20
183.056687
 30
0.0
 10
54.922692
 20
183.038020
 30
0.0
 10
55.022257
 20
183.038020
 30
0.0
  0
SPLINE
  5
1b4
100
AcDbEntity
  8
Plast_1
 62
7
100
AcDbSpline
 70
8
 71
3
 72
8
 73
4
 74
0
 40
0
 40
0
 40
0
 40
0
 40
1
 40
1
 40
1
 40
1
 10
55.022257
 20
183.038020
 30
0.0
 10
55.134268
 20
183.038020
 30
0.0
 10
55.250012
 20
183.064153
 30
0.0
 10
55.369490
 20
183.116420
 30
0.0
  0
SPLINE
  5
1b5
100
AcDbEntity
  8
Plast_1
 62
7
100
AcDbSpline
 70
8
 71
3
 72
8
 73
4
 74
0
 40
0
 40
0
 40
0
 40
0
 40
1
 40
1
 40
1
 40
1
 10
55.369490
 20
183.116420
 30
0.0
 10
55.488969
 20
183.168687
 30
0.0
 10
55.605958
 20
183.240873
 30
0.0
 10
55.720457
 20
183.332980
 30
0.0
  0
SPLINE
  5
1b6
100
AcDbEntity
  8
Plast_1
 62
7
100
AcDbSpline
 70
8
 71
3
 72
8
 73
4
 74
0
 40
0
 40
0
 40
0
 40
0
 40
1
 40
1
 40
1
 40
1
 10
55.720457
 20
183.332980
 30
0.0
 10
55.837446
 20
183.425073
 30
0.0
 10
55.948213
 20
183.534593
 30
0.0
 10
56.052756
 20
183.661540
 30
0.0
  0
SPLINE
  5
1b7
100
AcDbEntity
  8
Plast_1
 62
7
100
AcDbSpline
 70
8
 71
3
 72
8
 73
4
 74
0
 40
0
 40
0
 40
0
 40
0
 40
1
 40
1
 40
1
 40
1
 10
56.052756
 20
183.661540
 30
0.0
 10
56.159789
 20
183.790973
 30
0.0
 10
56.255620
 20
183.931610
 30
0.0
 10
56.340250
 20
184.083450
 30
0.0
  0
SPLINE
  5
1b8
100
AcDbEntity
  8
Plast_1
 62
7
100
AcDbSpline
 70
8
 71
3
 72
8
 73
4
 74
0
 40
0
 40
0
 40
0
 40
0
 40
1
 40
1
 40
1
 40
1
 10
56.340250
 20
184.083450
 30
0.0
 10
56.424881
 20
184.235283
 30
0.0
 10
56.494576
 20
184.394587
 30
0.0
 10
56.549337
 20
184.561360
 30
0.0
  0
SPLINE
  5
1b9
100
AcDbEntity
  8
Plast_1
 62
7
100
AcDbSpline
 70
8
 71
3
 72
8
 73
4
 74
0
 40
0
 40
0
 40
0
 40
0
 40
1
 40
1
 40
1
 40
1
 10
56.549337
 20
184.561360
 30
0.0
 10
56.606590
 20
184.730620
 30
0.0
 10
56.643927
 20
184.903617
 30
0.0
 10
56.661348
 20
185.080350
 30
0.0
  0
SPLINE
  5
1ba
100
AcDbEntity
  8
Plast_1
 62
7
100
AcDbSpline
 70
8
 71
3
 72
8
 73
4
 74
0
 40
0
 40
0
 40
0
 40
0
 40
1
 40
1
 40
1
 40
1
 10
56.661348
 20
185.080350
 30
0.0
 10
56.477153
 20
185.075683
 30
0.0
 10
56.294202
 20
185.063250
 30
0.0
 10
56.112495
 20
185.043050
 30
0.0
  0
SPLINE
  5
1bb
100
AcDbEntity
  8
Plast_1
 62
7
100
AcDbSpline
 70
8
 71
3
 72
8
 73
4
 74
0
 40
0
 40
0
 40
0
 40
0
 40
1
 40
1
 40
1
 40
1
 10
56.112495
 20
185.043050
 30
0.0
 10
55.930789
 20
185.025650
 30
0.0
 10
55.757795
 20
184.997017
 30
0.0
 10
55.593512
 20
184.957150
 30
0.0
  0
SPLINE
  5
1bc
100
AcDbEntity
  8
Plast_1
 62
7
100
AcDbSpline
 70
8
 71
3
 72
8
 73
4
 74
0
 40
0
 40
0
 40
0
 40
0
 40
1
 40
1
 40
1
 40
1
 10
55.593512
 20
184.957150
 30
0.0
 10
55.431719
 20
184.917350
 30
0.0
 10
55.281126
 20
184.865080
 30
0.0
 10
55.141735
 20
184.800340
 30
0.0
  0
SPLINE
  5
1bd
100
AcDbEntity
  8
Plast_1
 62
7
100
AcDbSpline
 70
8
 71
3
 72
8
 73
4
 74
0
 40
0
 40
0
 40
0
 40
0
 40
1
 40
1
 40
1
 40
1
 10
55.141735
 20
184.800340
 30
0.0
 10
55.002344
 20
184.735607
 30
0.0
 10
54.881622
 20
184.654710
 30
0.0
 10
54.779567
 20
184.557650
 30
0.0
  0
SPLINE
  5
1be
100
AcDbEntity
  8
Plast_1
 62
7
100
AcDbSpline
 70
8
 71
3
 72
8
 73
4
 74
0
 40
0
 40
0
 40
0
 40
0
 40
1
 40
1
 40
1
 40
1
 10
54.779567
 20
184.557650
 30
0.0
 10
54.680002
 20
184.463063
 30
0.0
 10
54.601595
 20
184.349807
 30
0.0
 10
54.544345
 20
184.217880
 30
0.0
  0
SPLINE
  5
1bf
100
AcDbEntity
  8
Plast_1
 62
7
100
AcDbSpline
 70
8
 71
3
 72
8
 73
4
 74
0
 40
0
 40
0
 40
0
 40
0
 40
1
 40
1
 40
1
 40
1
 10
54.544345
 20
184.217880
 30
0.0
 10
54.487092
 20
184.088447
 30
0.0
 10
54.458465
 20
183.937857
 30
0.0
 10
54.458465
 20
183.766110
 30
0.0
  0
LWPOLYLINE
  5
1c0
100
AcDbEntity
  8
Plast_1
 62
7
100
AcDbPolyline
 90
2
 70
0
 10
56.750933
 20
186.331000
 30
0.0
 10
56.750955
 20
186.331130
 30
0.0
  0
SPLINE
  5
1c1
100
AcDbEntity
  8
Plast_1
 62
7
100
AcDbSpline
 70
8
 71
3
 72
8
 73
4
 74
0
 40
0
 40
0
 40
0
 40
0
 40
1
 40
1
 40
1
 40
1
 10
62.202145
 20
186.327400
 30
0.0
 10
62.271840
 20
186.464300
 30
0.0
 10
62.306688
 20
186.603690
 30
0.0
 10
62.306688
 20
186.745570
 30
0.0
  0
SPLINE
  5
1c2
100
AcDbEntity
  8
Plast_1
 62
7
100
AcDbSpline
 70
8
 71
3
 72
8
 73
4
 74
0
 40
0
 40
0
 40
0
 40
0
 40
1
 40
1
 40
1
 40
1
 10
62.306688
 20
186.745570
 30
0.0
 10
62.306688
 20
186.842650
 30
0.0
 10
62.289265
 20
186.933503
 30
0.0
 10
62.254418
 20
187.018130
 30
0.0
  0
SPLINE
  5
1c3
100
AcDbEntity
  8
Plast_1
 62
7
100
AcDbSpline
 70
8
 71
3
 72
8
 73
4
 74
0
 40
0
 40
0
 40
0
 40
0
 40
1
 40
1
 40
1
 40
1
 10
62.254418
 20
187.018130
 30
0.0
 10
62.222058
 20
187.105250
 30
0.0
 10
62.172275
 20
187.181170
 30
0.0
 10
62.105070
 20
187.245890
 30
0.0
  0
SPLINE
  5
1c4
100
AcDbEntity
  8
Plast_1
 62
7
100
AcDbSpline
 70
8
 71
3
 72
8
 73
4
 74
0
 40
0
 40
0
 40
0
 40
0
 40
1
 40
1
 40
1
 40
1
 10
62.105070
 20
187.245890
 30
0.0
 10
62.037863
 20
187.313097
 30
0.0
 10
61.953233
 20
187.365367
 30
0.0
 10
61.851179
 20
187.402700
 30
0.0
  0
SPLINE
  5
1c5
100
AcDbEntity
  8
Plast_1
 62
7
100
AcDbSpline
 70
8
 71
3
 72
8
 73
4
 74
0
 40
0
 40
0
 40
0
 40
0
 40
1
 40
1
 40
1
 40
1
 10
61.851179
 20
187.402700
 30
0.0
 10
61.751614
 20
187.442500
 30
0.0
 10
61.634625
 20
187.462400
 30
0.0
 10
61.500212
 20
187.462400
 30
0.0
  0
SPLINE
  5
1c6
100
AcDbEntity
  8
Plast_1
 62
7
100
AcDbSpline
 70
8
 71
3
 72
8
 73
4
 74
0
 40
0
 40
0
 40
0
 40
0
 40
1
 40
1
 40
1
 40
1
 10
61.500212
 20
187.462400
 30
0.0
 10
61.306060
 20
187.462400
 30
0.0
 10
61.131821
 20
187.427553
 30
0.0
 10
60.977495
 20
187.357860
 30
0.0
  0
SPLINE
  5
1c7
100
AcDbEntity
  8
Plast_1
 62
7
100
AcDbSpline
 70
8
 71
3
 72
8
 73
4
 74
0
 40
0
 40
0
 40
0
 40
0
 40
1
 40
1
 40
1
 40
1
 10
60.977495
 20
187.357860
 30
0.0
 10
60.823169
 20
187.290653
 30
0.0
 10
60.686267
 20
187.197310
 30
0.0
 10
60.566789
 20
187.077830
 30
0.0
  0
SPLINE
  5
1c8
100
AcDbEntity
  8
Plast_1
 62
7
100
AcDbSpline
 70
8
 71
3
 72
8
 73
4
 74
0
 40
0
 40
0
 40
0
 40
0
 40
1
 40
1
 40
1
 40
1
 10
60.566789
 20
187.077830
 30
0.0
 10
60.449800
 20
186.958350
 30
0.0
 10
60.348991
 20
186.820203
 30
0.0
 10
60.264360
 20
186.663390
 30
0.0
  0
SPLINE
  5
1c9
100
AcDbEntity
  8
Plast_1
 62
7
100
AcDbSpline
 70
8
 71
3
 72
8
 73
4
 74
0
 40
0
 40
0
 40
0
 40
0
 40
1
 40
1
 40
1
 40
1
 10
60.264360
 20
186.663390
 30
0.0
 10
60.182219
 20
186.506577
 30
0.0
 10
60.113768
 20
186.338560
 30
0.0
 10
60.059007
 20
186.159340
 30
0.0
  0
SPLINE
  5
1ca
100
AcDbEntity
  8
Plast_1
 62
7
100
AcDbSpline
 70
8
 71
3
 72
8
 73
4
 74
0
 40
0
 40
0
 40
0
 40
0
 40
1
 40
1
 40
1
 40
1
 10
60.059007
 20
186.159340
 30
0.0
 10
60.006734
 20
185.980127
 30
0.0
 10
59.968152
 20
185.795933
 30
0.0
 10
59.943263
 20
185.606760
 30
0.0
  0
SPLINE
  5
1cb
100
AcDbEntity
  8
Plast_1
 62
7
100
AcDbSpline
 70
8
 71
3
 72
8
 73
4
 74
0
 40
0
 40
0
 40
0
 40
0
 40
1
 40
1
 40
1
 40
1
 10
59.943263
 20
185.606760
 30
0.0
 10
59.918370
 20
185.420073
 30
0.0
 10
59.905923
 20
185.237120
 30
0.0
 10
59.905923
 20
185.057900
 30
0.0
  0
SPLINE
  5
1cc
100
AcDbEntity
  8
Plast_1
 62
7
100
AcDbSpline
 70
8
 71
3
 72
8
 73
4
 74
0
 40
0
 40
0
 40
0
 40
0
 40
1
 40
1
 40
1
 40
1
 10
59.905923
 20
185.057900
 30
0.0
 10
59.905923
 20
184.736807
 30
0.0
 10
59.946994
 20
184.444337
 30
0.0
 10
60.029135
 20
184.180490
 30
0.0
  0
SPLINE
  5
1cd
100
AcDbEntity
  8
Plast_1
 62
7
100
AcDbSpline
 70
8
 71
3
 72
8
 73
4
 74
0
 40
0
 40
0
 40
0
 40
0
 40
1
 40
1
 40
1
 40
1
 10
60.029135
 20
184.180490
 30
0.0
 10
60.113765
 20
183.919130
 30
0.0
 10
60.227020
 20
183.695107
 30
0.0
 10
60.368901
 20
183.508420
 30
0.0
  0
SPLINE
  5
1ce
100
AcDbEntity
  8
Plast_1
 62
7
100
AcDbSpline
 70
8
 71
3
 72
8
 73
4
 74
0
 40
0
 40
0
 40
0
 40
0
 40
1
 40
1
 40
1
 40
1
 10
60.368901
 20
183.508420
 30
0.0
 10
60.510781
 20
183.324227
 30
0.0
 10
60.676308
 20
183.181103
 30
0.0
 10
60.865481
 20
183.079050
 30
0.0
  0
SPLINE
  5
1cf
100
AcDbEntity
  8
Plast_1
 62
7
100
AcDbSpline
 70
8
 71
3
 72
8
 73
4
 74
0
 40
0
 40
0
 40
0
 40
0
 40
1
 40
1
 40
1
 40
1
 10
60.865481
 20
183.079050
 30
0.0
 10
61.054655
 20
182.976997
 30
0.0
 10
61.256274
 20
182.925970
 30
0.0
 10
61.470339
 20
182.925970
 30
0.0
  0
SPLINE
  5
1d0
100
AcDbEntity
  8
Plast_1
 62
7
100
AcDbSpline
 70
8
 71
3
 72
8
 73
4
 74
0
 40
0
 40
0
 40
0
 40
0
 40
1
 40
1
 40
1
 40
1
 10
61.470339
 20
182.925970
 30
0.0
 10
61.696850
 20
182.925970
 30
0.0
 10
61.925850
 20
182.984463
 30
0.0
 10
62.157339
 20
183.101450
 30
0.0
  0
SPLINE
  5
1d1
100
AcDbEntity
  8
Plast_1
 62
7
100
AcDbSpline
 70
8
 71
3
 72
8
 73
4
 74
0
 40
0
 40
0
 40
0
 40
0
 40
1
 40
1
 40
1
 40
1
 10
62.157339
 20
183.101450
 30
0.0
 10
62.391317
 20
183.220930
 30
0.0
 10
62.617827
 20
183.412593
 30
0.0
 10
62.836870
 20
183.676440
 30
0.0
  0
SPLINE
  5
1d2
100
AcDbEntity
  8
Plast_1
 62
7
100
AcDbSpline
 70
8
 71
3
 72
8
 73
4
 74
0
 40
0
 40
0
 40
0
 40
0
 40
1
 40
1
 40
1
 40
1
 10
62.836870
 20
183.676440
 30
0.0
 10
62.851803
 20
183.668973
 30
0.0
 10
62.870473
 20
183.657773
 30
0.0
 10
62.892880
 20
183.642840
 30
0.0
  0
SPLINE
  5
1d3
100
AcDbEntity
  8
Plast_1
 62
7
100
AcDbSpline
 70
8
 71
3
 72
8
 73
4
 74
0
 40
0
 40
0
 40
0
 40
0
 40
1
 40
1
 40
1
 40
1
 10
62.892880
 20
183.642840
 30
0.0
 10
62.917773
 20
183.630373
 30
0.0
 10
62.940177
 20
183.615440
 30
0.0
 10
62.960090
 20
183.598040
 30
0.0
  0
SPLINE
  5
1d4
100
AcDbEntity
  8
Plast_1
 62
7
100
AcDbSpline
 70
8
 71
3
 72
8
 73
4
 74
0
 40
0
 40
0
 40
0
 40
0
 40
1
 40
1
 40
1
 40
1
 10
62.960090
 20
183.598040
 30
0.0
 10
62.980003
 20
183.580640
 30
0.0
 10
62.997427
 20
183.563207
 30
0.0
 10
63.012360
 20
183.545740
 30
0.0
  0
SPLINE
  5
1d5
100
AcDbEntity
  8
Plast_1
 62
7
100
AcDbSpline
 70
8
 71
3
 72
8
 73
4
 74
0
 40
0
 40
0
 40
0
 40
0
 40
1
 40
1
 40
1
 40
1
 10
63.012360
 20
183.545740
 30
0.0
 10
63.027293
 20
183.528340
 30
0.0
 10
63.034760
 20
183.512173
 30
0.0
 10
63.034760
 20
183.497240
 30
0.0
  0
SPLINE
  5
1d6
100
AcDbEntity
  8
Plast_1
 62
7
100
AcDbSpline
 70
8
 71
3
 72
8
 73
4
 74
0
 40
0
 40
0
 40
0
 40
0
 40
1
 40
1
 40
1
 40
1
 10
63.034760
 20
183.497240
 30
0.0
 10
63.034760
 20
183.487307
 30
0.0
 10
63.033527
 20
183.481073
 30
0.0
 10
63.031060
 20
183.478540
 30
0.0
  0
LWPOLYLINE
  5
1d7
100
AcDbEntity
  8
Plast_1
 62
7
100
AcDbPolyline
 90
1
 70
1
 10
54.458465
 20
183.766110
 30
0.0
  0
SPLINE
  5
1d8
100
AcDbEntity
  8
Plast_1
 62
7
100
AcDbSpline
 70
8
 71
3
 72
8
 73
4
 74
0
 40
0
 40
0
 40
0
 40
0
 40
1
 40
1
 40
1
 40
1
 10
63.023560
 20
183.463640
 30
0.0
 10
62.782115
 20
183.072847
 30
0.0
 10
62.492131
 20
182.780373
 30
0.0
 10
62.153610
 20
182.586220
 30
0.0
  0
SPLINE
  5
1d9
100
AcDbEntity
  8
Plast_1
 62
7
100
AcDbSpline
 70
8
 71
3
 72
8
 73
4
 74
0
 40
0
 40
0
 40
0
 40
0
 40
1
 40
1
 40
1
 40
1
 10
62.153610
 20
182.586220
 30
0.0
 10
61.815089
 20
182.392067
 30
0.0
 10
61.444209
 20
182.294990
 30
0.0
 10
61.040970
 20
182.294990
 30
0.0
  0
SPLINE
  5
1da
100
AcDbEntity
  8
Plast_1
 62
7
100
AcDbSpline
 70
8
 71
3
 72
8
 73
4
 74
0
 40
0
 40
0
 40
0
 40
0
 40
1
 40
1
 40
1
 40
1
 10
61.040970
 20
182.294990
 30
0.0
 10
60.821927
 20
182.294990
 30
0.0
 10
60.620307
 20
182.326090
 30
0.0
 10
60.436112
 20
182.388290
 30
0.0
  0
SPLINE
  5
1db
100
AcDbEntity
  8
Plast_1
 62
7
100
AcDbSpline
 70
8
 71
3
 72
8
 73
4
 74
0
 40
0
 40
0
 40
0
 40
0
 40
1
 40
1
 40
1
 40
1
 10
60.436112
 20
182.388290
 30
0.0
 10
60.251917
 20
182.448023
 30
0.0
 10
60.085145
 20
182.531410
 30
0.0
 10
59.935797
 20
182.638450
 30
0.0
  0
SPLINE
  5
1dc
100
AcDbEntity
  8
Plast_1
 62
7
100
AcDbSpline
 70
8
 71
3
 72
8
 73
4
 74
0
 40
0
 40
0
 40
0
 40
0
 40
1
 40
1
 40
1
 40
1
 10
59.935797
 20
182.638450
 30
0.0
 10
59.786450
 20
182.747970
 30
0.0
 10
59.654526
 20
182.876160
 30
0.0
 10
59.540026
 20
183.023020
 30
0.0
  0
SPLINE
  5
1dd
100
AcDbEntity
  8
Plast_1
 62
7
100
AcDbSpline
 70
8
 71
3
 72
8
 73
4
 74
0
 40
0
 40
0
 40
0
 40
0
 40
1
 40
1
 40
1
 40
1
 10
59.540026
 20
183.023020
 30
0.0
 10
59.428015
 20
183.172367
 30
0.0
 10
59.333429
 20
183.332917
 30
0.0
 10
59.256266
 20
183.504670
 30
0.0
  0
SPLINE
  5
1de
100
AcDbEntity
  8
Plast_1
 62
7
100
AcDbSpline
 70
8
 71
3
 72
8
 73
4
 74
0
 40
0
 40
0
 40
0
 40
0
 40
1
 40
1
 40
1
 40
1
 10
59.256266
 20
183.504670
 30
0.0
 10
59.181592
 20
183.678910
 30
0.0
 10
59.124342
 20
183.860617
 30
0.0
 10
59.084516
 20
184.049790
 30
0.0
  0
SPLINE
  5
1df
100
AcDbEntity
  8
Plast_1
 62
7
100
AcDbSpline
 70
8
 71
3
 72
8
 73
4
 74
0
 40
0
 40
0
 40
0
 40
0
 40
1
 40
1
 40
1
 40
1
 10
59.084516
 20
184.049790
 30
0.0
 10
59.047176
 20
184.241450
 30
0.0
 10
59.028506
 20
184.434357
 30
0.0
 10
59.028506
 20
184.628510
 30
0.0
  0
SPLINE
  5
1e0
100
AcDbEntity
  8
Plast_1
 62
7
100
AcDbSpline
 70
8
 71
3
 72
8
 73
4
 74
0
 40
0
 40
0
 40
0
 40
0
 40
1
 40
1
 40
1
 40
1
 10
59.028506
 20
184.628510
 30
0.0
 10
59.028506
 20
184.889870
 30
0.0
 10
59.057133
 20
185.151227
 30
0.0
 10
59.114386
 20
185.412580
 30
0.0
  0
SPLINE
  5
1e1
100
AcDbEntity
  8
Plast_1
 62
7
100
AcDbSpline
 70
8
 71
3
 72
8
 73
4
 74
0
 40
0
 40
0
 40
0
 40
0
 40
1
 40
1
 40
1
 40
1
 10
59.114386
 20
185.412580
 30
0.0
 10
59.171639
 20
185.676427
 30
0.0
 10
59.255025
 20
185.929073
 30
0.0
 10
59.364544
 20
186.170520
 30
0.0
  0
SPLINE
  5
1e2
100
AcDbEntity
  8
Plast_1
 62
7
100
AcDbSpline
 70
8
 71
3
 72
8
 73
4
 74
0
 40
0
 40
0
 40
0
 40
0
 40
1
 40
1
 40
1
 40
1
 10
59.364544
 20
186.170520
 30
0.0
 10
59.476555
 20
186.414453
 30
0.0
 10
59.610967
 20
186.640963
 30
0.0
 10
59.767782
 20
186.850050
 30
0.0
  0
SPLINE
  5
1e3
100
AcDbEntity
  8
Plast_1
 62
7
100
AcDbSpline
 70
8
 71
3
 72
8
 73
4
 74
0
 40
0
 40
0
 40
0
 40
0
 40
1
 40
1
 40
1
 40
1
 10
59.767782
 20
186.850050
 30
0.0
 10
59.927086
 20
187.061630
 30
0.0
 10
60.106303
 20
187.244583
 30
0.0
 10
60.305434
 20
187.398910
 30
0.0
  0
SPLINE
  5
1e4
100
AcDbEntity
  8
Plast_1
 62
7
100
AcDbSpline
 70
8
 71
3
 72
8
 73
4
 74
0
 40
0
 40
0
 40
0
 40
0
 40
1
 40
1
 40
1
 40
1
 10
60.305434
 20
187.398910
 30
0.0
 10
60.507053
 20
187.555723
 30
0.0
 10
60.728586
 20
187.677690
 30
0.0
 10
60.970031
 20
187.764810
 30
0.0
  0
SPLINE
  5
1e5
100
AcDbEntity
  8
Plast_1
 62
7
100
AcDbSpline
 70
8
 71
3
 72
8
 73
4
 74
0
 40
0
 40
0
 40
0
 40
0
 40
1
 40
1
 40
1
 40
1
 10
60.970031
 20
187.764810
 30
0.0
 10
61.211476
 20
187.854417
 30
0.0
 10
61.469101
 20
187.899220
 30
0.0
 10
61.742905
 20
187.899220
 30
0.0
  0
SPLINE
  5
1e6
100
AcDbEntity
  8
Plast_1
 62
7
100
AcDbSpline
 70
8
 71
3
 72
8
 73
4
 74
0
 40
0
 40
0
 40
0
 40
0
 40
1
 40
1
 40
1
 40
1
 10
61.742905
 20
187.899220
 30
0.0
 10
61.947014
 20
187.899220
 30
0.0
 10
62.137432
 20
187.874320
 30
0.0
 10
62.314160
 20
187.824520
 30
0.0
  0
SPLINE
  5
1e7
100
AcDbEntity
  8
Plast_1
 62
7
100
AcDbSpline
 70
8
 71
3
 72
8
 73
4
 74
0
 40
0
 40
0
 40
0
 40
0
 40
1
 40
1
 40
1
 40
1
 10
62.314160
 20
187.824520
 30
0.0
 10
62.490888
 20
187.774720
 30
0.0
 10
62.642725
 20
187.703780
 30
0.0
 10
62.769670
 20
187.611700
 30
0.0
  0
SPLINE
  5
1e8
100
AcDbEntity
  8
Plast_1
 62
7
100
AcDbSpline
 70
8
 71
3
 72
8
 73
4
 74
0
 40
0
 40
0
 40
0
 40
0
 40
1
 40
1
 40
1
 40
1
 10
62.769670
 20
187.611700
 30
0.0
 10
62.899105
 20
187.522087
 30
0.0
 10
62.999914
 20
187.412563
 30
0.0
 10
63.072099
 20
187.283130
 30
0.0
  0
SPLINE
  5
1e9
100
AcDbEntity
  8
Plast_1
 62
7
100
AcDbSpline
 70
8
 71
3
 72
8
 73
4
 74
0
 40
0
 40
0
 40
0
 40
0
 40
1
 40
1
 40
1
 40
1
 10
63.072099
 20
187.283130
 30
0.0
 10
63.146773
 20
187.156183
 30
0.0
 10
63.184110
 20
187.014303
 30
0.0
 10
63.184110
 20
186.857490
 30
0.0
  0
SPLINE
  5
1ea
100
AcDbEntity
  8
Plast_1
 62
7
100
AcDbSpline
 70
8
 71
3
 72
8
 73
4
 74
0
 40
0
 40
0
 40
0
 40
0
 40
1
 40
1
 40
1
 40
1
 10
63.184110
 20
186.857490
 30
0.0
 10
63.184110
 20
186.755437
 30
0.0
 10
63.167930
 20
186.664583
 30
0.0
 10
63.135570
 20
186.584930
 30
0.0
  0
SPLINE
  5
1eb
100
AcDbEntity
  8
Plast_1
 62
7
100
AcDbSpline
 70
8
 71
3
 72
8
 73
4
 74
0
 40
0
 40
0
 40
0
 40
0
 40
1
 40
1
 40
1
 40
1
 10
63.135570
 20
186.584930
 30
0.0
 10
63.105703
 20
186.507770
 30
0.0
 10
63.062144
 20
186.440563
 30
0.0
 10
63.004891
 20
186.383310
 30
0.0
  0
SPLINE
  5
1ec
100
AcDbEntity
  8
Plast_1
 62
7
100
AcDbSpline
 70
8
 71
3
 72
8
 73
4
 74
0
 40
0
 40
0
 40
0
 40
0
 40
1
 40
1
 40
1
 40
1
 10
63.004891
 20
186.383310
 30
0.0
 10
62.950131
 20
186.328577
 30
0.0
 10
62.884169
 20
186.286263
 30
0.0
 10
62.807005
 20
186.256370
 30
0.0
  0
SPLINE
  5
1ed
100
AcDbEntity
  8
Plast_1
 62
7
100
AcDbSpline
 70
8
 71
3
 72
8
 73
4
 74
0
 40
0
 40
0
 40
0
 40
0
 40
1
 40
1
 40
1
 40
1
 10
62.807005
 20
186.256370
 30
0.0
 10
62.732331
 20
186.228970
 30
0.0
 10
62.650190
 20
186.215270
 30
0.0
 10
62.560581
 20
186.215270
 30
0.0
  0
SPLINE
  5
1ee
100
AcDbEntity
  8
Plast_1
 62
7
100
AcDbSpline
 70
8
 71
3
 72
8
 73
4
 74
0
 40
0
 40
0
 40
0
 40
0
 40
1
 40
1
 40
1
 40
1
 10
62.560581
 20
186.215270
 30
0.0
 10
62.505821
 20
186.215270
 30
0.0
 10
62.448571
 20
186.220237
 30
0.0
 10
62.388832
 20
186.230170
 30
0.0
  0
SPLINE
  5
1ef
100
AcDbEntity
  8
Plast_1
 62
7
100
AcDbSpline
 70
8
 71
3
 72
8
 73
4
 74
0
 40
0
 40
0
 40
0
 40
0
 40
1
 40
1
 40
1
 40
1
 10
62.388832
 20
186.230170
 30
0.0
 10
62.331579
 20
186.242637
 30
0.0
 10
62.274329
 20
186.261303
 30
0.0
 10
62.217082
 20
186.286170
 30
0.0
  0
LWPOLYLINE
  5
1f0
100
AcDbEntity
  8
Plast_1
 62
7
100
AcDbPolyline
 90
2
 70
0
 10
63.031060
 20
183.478540
 30
0.0
 10
63.023560
 20
183.463640
 30
0.0
  0
SPLINE
  5
1f1
100
AcDbEntity
  8
Plast_1
 62
7
100
AcDbSpline
 70
8
 71
3
 72
8
 73
4
 74
0
 40
0
 40
0
 40
0
 40
0
 40
1
 40
1
 40
1
 40
1
 10
65.599804
 20
192.514120
 30
0.0
 10
65.550024
 20
192.090973
 30
0.0
 10
65.500241
 20
191.656623
 30
0.0
 10
65.450456
 20
191.211070
 30
0.0
  0
SPLINE
  5
1f2
100
AcDbEntity
  8
Plast_1
 62
7
100
AcDbSpline
 70
8
 71
3
 72
8
 73
4
 74
0
 40
0
 40
0
 40
0
 40
0
 40
1
 40
1
 40
1
 40
1
 10
65.450456
 20
191.211070
 30
0.0
 10
65.403163
 20
190.768003
 30
0.0
 10
65.357114
 20
190.318713
 30
0.0
 10
65.312310
 20
189.863200
 30
0.0
  0
SPLINE
  5
1f3
100
AcDbEntity
  8
Plast_1
 62
7
100
AcDbSpline
 70
8
 71
3
 72
8
 73
4
 74
0
 40
0
 40
0
 40
0
 40
0
 40
1
 40
1
 40
1
 40
1
 10
65.312310
 20
189.863200
 30
0.0
 10
65.269997
 20
189.410180
 30
0.0
 10
65.230171
 20
188.954670
 30
0.0
 10
65.192832
 20
188.496670
 30
0.0
  0
SPLINE
  5
1f4
100
AcDbEntity
  8
Plast_1
 62
7
100
AcDbSpline
 70
8
 71
3
 72
8
 73
4
 74
0
 40
0
 40
0
 40
0
 40
0
 40
1
 40
1
 40
1
 40
1
 10
65.192832
 20
188.496670
 30
0.0
 10
65.155492
 20
188.038670
 30
0.0
 10
65.123132
 20
187.586893
 30
0.0
 10
65.095752
 20
187.141340
 30
0.0
  0
SPLINE
  5
1f5
100
AcDbEntity
  8
Plast_1
 62
7
100
AcDbSpline
 70
8
 71
3
 72
8
 73
4
 74
0
 40
0
 40
0
 40
0
 40
0
 40
1
 40
1
 40
1
 40
1
 10
65.095752
 20
187.141340
 30
0.0
 10
65.068372
 20
186.698280
 30
0.0
 10
65.047215
 20
186.262683
 30
0.0
 10
65.032282
 20
185.834550
 30
0.0
  0
SPLINE
  5
1f6
100
AcDbEntity
  8
Plast_1
 62
7
100
AcDbSpline
 70
8
 71
3
 72
8
 73
4
 74
0
 40
0
 40
0
 40
0
 40
0
 40
1
 40
1
 40
1
 40
1
 10
65.032282
 20
185.834550
 30
0.0
 10
65.017349
 20
185.406423
 30
0.0
 10
65.009882
 20
184.995717
 30
0.0
 10
65.009882
 20
184.602430
 30
0.0
  0
SPLINE
  5
1f7
100
AcDbEntity
  8
Plast_1
 62
7
100
AcDbSpline
 70
8
 71
3
 72
8
 73
4
 74
0
 40
0
 40
0
 40
0
 40
0
 40
1
 40
1
 40
1
 40
1
 10
65.009882
 20
184.602430
 30
0.0
 10
65.009882
 20
184.356010
 30
0.0
 10
65.012382
 20
184.144437
 30
0.0
 10
65.017382
 20
183.967710
 30
0.0
  0
SPLINE
  5
1f8
100
AcDbEntity
  8
Plast_1
 62
7
100
AcDbSpline
 70
8
 71
3
 72
8
 73
4
 74
0
 40
0
 40
0
 40
0
 40
0
 40
1
 40
1
 40
1
 40
1
 10
65.017382
 20
183.967710
 30
0.0
 10
65.024849
 20
183.790977
 30
0.0
 10
65.034805
 20
183.641627
 30
0.0
 10
65.047252
 20
183.519660
 30
0.0
  0
SPLINE
  5
1f9
100
AcDbEntity
  8
Plast_1
 62
7
100
AcDbSpline
 70
8
 71
3
 72
8
 73
4
 74
0
 40
0
 40
0
 40
0
 40
0
 40
1
 40
1
 40
1
 40
1
 10
65.047252
 20
183.519660
 30
0.0
 10
65.062185
 20
183.397693
 30
0.0
 10
65.080852
 20
183.299373
 30
0.0
 10
65.103252
 20
183.224700
 30
0.0
  0
SPLINE
  5
1fa
100
AcDbEntity
  8
Plast_1
 62
7
100
AcDbSpline
 70
8
 71
3
 72
8
 73
4
 74
0
 40
0
 40
0
 40
0
 40
0
 40
1
 40
1
 40
1
 40
1
 10
65.103252
 20
183.224700
 30
0.0
 10
65.128145
 20
183.150027
 30
0.0
 10
65.158015
 20
183.092777
 30
0.0
 10
65.192862
 20
183.052950
 30
0.0
  0
SPLINE
  5
1fb
100
AcDbEntity
  8
Plast_1
 62
7
100
AcDbSpline
 70
8
 71
3
 72
8
 73
4
 74
0
 40
0
 40
0
 40
0
 40
0
 40
1
 40
1
 40
1
 40
1
 10
65.192862
 20
183.052950
 30
0.0
 10
65.227709
 20
183.013150
 30
0.0
 10
65.268779
 20
182.985783
 30
0.0
 10
65.316074
 20
182.970850
 30
0.0
  0
SPLINE
  5
1fc
100
AcDbEntity
  8
Plast_1
 62
7
100
AcDbSpline
 70
8
 71
3
 72
8
 73
4
 74
0
 40
0
 40
0
 40
0
 40
0
 40
1
 40
1
 40
1
 40
1
 10
65.316074
 20
182.970850
 30
0.0
 10
65.363367
 20
182.958383
 30
0.0
 10
65.419373
 20
182.952150
 30
0.0
 10
65.484090
 20
182.952150
 30
0.0
  0
SPLINE
  5
1fd
100
AcDbEntity
  8
Plast_1
 62
7
100
AcDbSpline
 70
8
 71
3
 72
8
 73
4
 74
0
 40
0
 40
0
 40
0
 40
0
 40
1
 40
1
 40
1
 40
1
 10
65.484090
 20
182.952150
 30
0.0
 10
65.603568
 20
182.952150
 30
0.0
 10
65.731758
 20
182.969583
 30
0.0
 10
65.868660
 20
183.004450
 30
0.0
  0
SPLINE
  5
1fe
100
AcDbEntity
  8
Plast_1
 62
7
100
AcDbSpline
 70
8
 71
3
 72
8
 73
4
 74
0
 40
0
 40
0
 40
0
 40
0
 40
1
 40
1
 40
1
 40
1
 10
65.868660
 20
183.004450
 30
0.0
 10
66.008051
 20
183.041783
 30
0.0
 10
66.148687
 20
183.092810
 30
0.0
 10
66.290567
 20
183.157530
 30
0.0
  0
LWPOLYLINE
  5
1ff
100
AcDbEntity
  8
Plast_1
 62
7
100
AcDbPolyline
 90
2
 70
0
 10
62.217082
 20
186.286170
 30
0.0
 10
62.202145
 20
186.327400
 30
0.0
  0
SPLINE
  5
200
100
AcDbEntity
  8
Plast_1
 62
7
100
AcDbSpline
 70
8
 71
3
 72
8
 73
4
 74
0
 40
0
 40
0
 40
0
 40
0
 40
1
 40
1
 40
1
 40
1
 10
66.361507
 20
182.963380
 30
0.0
 10
66.271898
 20
182.891200
 30
0.0
 10
66.158643
 20
182.817770
 30
0.0
 10
66.021741
 20
182.743090
 30
0.0
  0
SPLINE
  5
201
100
AcDbEntity
  8
Plast_1
 62
7
100
AcDbSpline
 70
8
 71
3
 72
8
 73
4
 74
0
 40
0
 40
0
 40
0
 40
0
 40
1
 40
1
 40
1
 40
1
 10
66.021741
 20
182.743090
 30
0.0
 10
65.887328
 20
182.668417
 30
0.0
 10
65.745448
 20
182.599967
 30
0.0
 10
65.596100
 20
182.537740
 30
0.0
  0
SPLINE
  5
202
100
AcDbEntity
  8
Plast_1
 62
7
100
AcDbSpline
 70
8
 71
3
 72
8
 73
4
 74
0
 40
0
 40
0
 40
0
 40
0
 40
1
 40
1
 40
1
 40
1
 10
65.596100
 20
182.537740
 30
0.0
 10
65.446753
 20
182.475540
 30
0.0
 10
65.299894
 20
182.425757
 30
0.0
 10
65.155525
 20
182.388390
 30
0.0
  0
SPLINE
  5
203
100
AcDbEntity
  8
Plast_1
 62
7
100
AcDbSpline
 70
8
 71
3
 72
8
 73
4
 74
0
 40
0
 40
0
 40
0
 40
0
 40
1
 40
1
 40
1
 40
1
 10
65.155525
 20
182.388390
 30
0.0
 10
65.013644
 20
182.348590
 30
0.0
 10
64.890432
 20
182.328690
 30
0.0
 10
64.785889
 20
182.328690
 30
0.0
  0
SPLINE
  5
204
100
AcDbEntity
  8
Plast_1
 62
7
100
AcDbSpline
 70
8
 71
3
 72
8
 73
4
 74
0
 40
0
 40
0
 40
0
 40
0
 40
1
 40
1
 40
1
 40
1
 10
64.785889
 20
182.328690
 30
0.0
 10
64.651476
 20
182.328690
 30
0.0
 10
64.544444
 20
182.363540
 30
0.0
 10
64.464792
 20
182.433240
 30
0.0
  0
SPLINE
  5
205
100
AcDbEntity
  8
Plast_1
 62
7
100
AcDbSpline
 70
8
 71
3
 72
8
 73
4
 74
0
 40
0
 40
0
 40
0
 40
0
 40
1
 40
1
 40
1
 40
1
 10
64.464792
 20
182.433240
 30
0.0
 10
64.387629
 20
182.500447
 30
0.0
 10
64.327890
 20
182.611213
 30
0.0
 10
64.285575
 20
182.765540
 30
0.0
  0
SPLINE
  5
206
100
AcDbEntity
  8
Plast_1
 62
7
100
AcDbSpline
 70
8
 71
3
 72
8
 73
4
 74
0
 40
0
 40
0
 40
0
 40
0
 40
1
 40
1
 40
1
 40
1
 10
64.285575
 20
182.765540
 30
0.0
 10
64.245748
 20
182.919867
 30
0.0
 10
64.219612
 20
183.120240
 30
0.0
 10
64.207165
 20
183.366660
 30
0.0
  0
SPLINE
  5
207
100
AcDbEntity
  8
Plast_1
 62
7
100
AcDbSpline
 70
8
 71
3
 72
8
 73
4
 74
0
 40
0
 40
0
 40
0
 40
0
 40
1
 40
1
 40
1
 40
1
 10
64.207165
 20
183.366660
 30
0.0
 10
64.197205
 20
183.615573
 30
0.0
 10
64.192225
 20
183.918003
 30
0.0
 10
64.192225
 20
184.273950
 30
0.0
  0
SPLINE
  5
208
100
AcDbEntity
  8
Plast_1
 62
7
100
AcDbSpline
 70
8
 71
3
 72
8
 73
4
 74
0
 40
0
 40
0
 40
0
 40
0
 40
1
 40
1
 40
1
 40
1
 10
64.192225
 20
184.273950
 30
0.0
 10
64.192225
 20
184.403383
 30
0.0
 10
64.195958
 20
184.587577
 30
0.0
 10
64.203425
 20
184.826530
 30
0.0
  0
SPLINE
  5
209
100
AcDbEntity
  8
Plast_1
 62
7
100
AcDbSpline
 70
8
 71
3
 72
8
 73
4
 74
0
 40
0
 40
0
 40
0
 40
0
 40
1
 40
1
 40
1
 40
1
 10
64.203425
 20
184.826530
 30
0.0
 10
64.210892
 20
185.067977
 30
0.0
 10
64.220848
 20
185.348003
 30
0.0
 10
64.233295
 20
185.666610
 30
0.0
  0
SPLINE
  5
20a
100
AcDbEntity
  8
Plast_1
 62
7
100
AcDbSpline
 70
8
 71
3
 72
8
 73
4
 74
0
 40
0
 40
0
 40
0
 40
0
 40
1
 40
1
 40
1
 40
1
 10
64.233295
 20
185.666610
 30
0.0
 10
64.248228
 20
185.985223
 30
0.0
 10
64.264408
 20
186.333703
 30
0.0
 10
64.281835
 20
186.712050
 30
0.0
  0
SPLINE
  5
20b
100
AcDbEntity
  8
Plast_1
 62
7
100
AcDbSpline
 70
8
 71
3
 72
8
 73
4
 74
0
 40
0
 40
0
 40
0
 40
0
 40
1
 40
1
 40
1
 40
1
 10
64.281835
 20
186.712050
 30
0.0
 10
64.299262
 20
187.090397
 30
0.0
 10
64.317928
 20
187.481190
 30
0.0
 10
64.337835
 20
187.884430
 30
0.0
  0
SPLINE
  5
20c
100
AcDbEntity
  8
Plast_1
 62
7
100
AcDbSpline
 70
8
 71
3
 72
8
 73
4
 74
0
 40
0
 40
0
 40
0
 40
0
 40
1
 40
1
 40
1
 40
1
 10
64.337835
 20
187.884430
 30
0.0
 10
64.357748
 20
188.290157
 30
0.0
 10
64.378905
 20
188.698373
 30
0.0
 10
64.401305
 20
189.109080
 30
0.0
  0
SPLINE
  5
20d
100
AcDbEntity
  8
Plast_1
 62
7
100
AcDbSpline
 70
8
 71
3
 72
8
 73
4
 74
0
 40
0
 40
0
 40
0
 40
0
 40
1
 40
1
 40
1
 40
1
 10
64.401305
 20
189.109080
 30
0.0
 10
64.423705
 20
189.522273
 30
0.0
 10
64.446108
 20
189.920533
 30
0.0
 10
64.468515
 20
190.303860
 30
0.0
  0
SPLINE
  5
20e
100
AcDbEntity
  8
Plast_1
 62
7
100
AcDbSpline
 70
8
 71
3
 72
8
 73
4
 74
0
 40
0
 40
0
 40
0
 40
0
 40
1
 40
1
 40
1
 40
1
 10
64.468515
 20
190.303860
 30
0.0
 10
64.490915
 20
190.689673
 30
0.0
 10
64.512072
 20
191.053087
 30
0.0
 10
64.531985
 20
191.394100
 30
0.0
  0
SPLINE
  5
20f
100
AcDbEntity
  8
Plast_1
 62
7
100
AcDbSpline
 70
8
 71
3
 72
8
 73
4
 74
0
 40
0
 40
0
 40
0
 40
0
 40
1
 40
1
 40
1
 40
1
 10
64.531985
 20
191.394100
 30
0.0
 10
64.551898
 20
191.735107
 30
0.0
 10
64.570568
 20
192.036290
 30
0.0
 10
64.587995
 20
192.297650
 30
0.0
  0
SPLINE
  5
210
100
AcDbEntity
  8
Plast_1
 62
7
100
AcDbSpline
 70
8
 71
3
 72
8
 73
4
 74
0
 40
0
 40
0
 40
0
 40
0
 40
1
 40
1
 40
1
 40
1
 10
64.587995
 20
192.297650
 30
0.0
 10
64.590462
 20
192.357383
 30
0.0
 10
64.607885
 20
192.408410
 30
0.0
 10
64.640265
 20
192.450730
 30
0.0
  0
SPLINE
  5
211
100
AcDbEntity
  8
Plast_1
 62
7
100
AcDbSpline
 70
8
 71
3
 72
8
 73
4
 74
0
 40
0
 40
0
 40
0
 40
0
 40
1
 40
1
 40
1
 40
1
 10
64.640265
 20
192.450730
 30
0.0
 10
64.672625
 20
192.495530
 30
0.0
 10
64.713696
 20
192.530380
 30
0.0
 10
64.763477
 20
192.555280
 30
0.0
  0
SPLINE
  5
212
100
AcDbEntity
  8
Plast_1
 62
7
100
AcDbSpline
 70
8
 71
3
 72
8
 73
4
 74
0
 40
0
 40
0
 40
0
 40
0
 40
1
 40
1
 40
1
 40
1
 10
64.763477
 20
192.555280
 30
0.0
 10
64.815750
 20
192.582680
 30
0.0
 10
64.873000
 20
192.602580
 30
0.0
 10
64.935227
 20
192.614980
 30
0.0
  0
SPLINE
  5
213
100
AcDbEntity
  8
Plast_1
 62
7
100
AcDbSpline
 70
8
 71
3
 72
8
 73
4
 74
0
 40
0
 40
0
 40
0
 40
0
 40
1
 40
1
 40
1
 40
1
 10
64.935227
 20
192.614980
 30
0.0
 10
64.999947
 20
192.627447
 30
0.0
 10
65.064664
 20
192.633680
 30
0.0
 10
65.129379
 20
192.633680
 30
0.0
  0
SPLINE
  5
214
100
AcDbEntity
  8
Plast_1
 62
7
100
AcDbSpline
 70
8
 71
3
 72
8
 73
4
 74
0
 40
0
 40
0
 40
0
 40
0
 40
1
 40
1
 40
1
 40
1
 10
65.129379
 20
192.633680
 30
0.0
 10
65.278726
 20
192.633680
 30
0.0
 10
65.435541
 20
192.593853
 30
0.0
 10
65.599824
 20
192.514200
 30
0.0
  0
LWPOLYLINE
  5
215
100
AcDbEntity
  8
Plast_1
 62
7
100
AcDbPolyline
 90
2
 70
0
 10
66.290567
 20
183.157530
 30
0.0
 10
66.361507
 20
182.963380
 30
0.0
  0
SPLINE
  5
216
100
AcDbEntity
  8
Plast_1
 62
7
100
AcDbSpline
 70
8
 71
3
 72
8
 73
4
 74
0
 40
0
 40
0
 40
0
 40
0
 40
1
 40
1
 40
1
 40
1
 10
66.701243
 20
184.639770
 30
0.0
 10
66.701243
 20
184.891170
 30
0.0
 10
66.727380
 20
185.146307
 30
0.0
 10
66.779653
 20
185.405180
 30
0.0
  0
SPLINE
  5
217
100
AcDbEntity
  8
Plast_1
 62
7
100
AcDbSpline
 70
8
 71
3
 72
8
 73
4
 74
0
 40
0
 40
0
 40
0
 40
0
 40
1
 40
1
 40
1
 40
1
 10
66.779653
 20
185.405180
 30
0.0
 10
66.831926
 20
185.664047
 30
0.0
 10
66.909089
 20
185.914203
 30
0.0
 10
67.011142
 20
186.155650
 30
0.0
  0
SPLINE
  5
218
100
AcDbEntity
  8
Plast_1
 62
7
100
AcDbSpline
 70
8
 71
3
 72
8
 73
4
 74
0
 40
0
 40
0
 40
0
 40
0
 40
1
 40
1
 40
1
 40
1
 10
67.011142
 20
186.155650
 30
0.0
 10
67.113196
 20
186.399583
 30
0.0
 10
67.238897
 20
186.627337
 30
0.0
 10
67.388244
 20
186.838910
 30
0.0
  0
SPLINE
  5
219
100
AcDbEntity
  8
Plast_1
 62
7
100
AcDbSpline
 70
8
 71
3
 72
8
 73
4
 74
0
 40
0
 40
0
 40
0
 40
0
 40
1
 40
1
 40
1
 40
1
 10
67.388244
 20
186.838910
 30
0.0
 10
67.540081
 20
187.052977
 30
0.0
 10
67.714320
 20
187.239663
 30
0.0
 10
67.910961
 20
187.398970
 30
0.0
  0
SPLINE
  5
21a
100
AcDbEntity
  8
Plast_1
 62
7
100
AcDbSpline
 70
8
 71
3
 72
8
 73
4
 74
0
 40
0
 40
0
 40
0
 40
0
 40
1
 40
1
 40
1
 40
1
 10
67.910961
 20
187.398970
 30
0.0
 10
68.107602
 20
187.558270
 30
0.0
 10
68.326646
 20
187.683970
 30
0.0
 10
68.568091
 20
187.776070
 30
0.0
  0
SPLINE
  5
21b
100
AcDbEntity
  8
Plast_1
 62
7
100
AcDbSpline
 70
8
 71
3
 72
8
 73
4
 74
0
 40
0
 40
0
 40
0
 40
0
 40
1
 40
1
 40
1
 40
1
 10
68.568091
 20
187.776070
 30
0.0
 10
68.809536
 20
187.868170
 30
0.0
 10
69.072139
 20
187.914220
 30
0.0
 10
69.355900
 20
187.914220
 30
0.0
  0
SPLINE
  5
21c
100
AcDbEntity
  8
Plast_1
 62
7
100
AcDbSpline
 70
8
 71
3
 72
8
 73
4
 74
0
 40
0
 40
0
 40
0
 40
0
 40
1
 40
1
 40
1
 40
1
 10
69.355900
 20
187.914220
 30
0.0
 10
69.674508
 20
187.914220
 30
0.0
 10
69.955779
 20
187.847013
 30
0.0
 10
70.199714
 20
187.712600
 30
0.0
  0
SPLINE
  5
21d
100
AcDbEntity
  8
Plast_1
 62
7
100
AcDbSpline
 70
8
 71
3
 72
8
 73
4
 74
0
 40
0
 40
0
 40
0
 40
0
 40
1
 40
1
 40
1
 40
1
 10
70.199714
 20
187.712600
 30
0.0
 10
70.446137
 20
187.578187
 30
0.0
 10
70.652735
 20
187.400213
 30
0.0
 10
70.819507
 20
187.178680
 30
0.0
  0
SPLINE
  5
21e
100
AcDbEntity
  8
Plast_1
 62
7
100
AcDbSpline
 70
8
 71
3
 72
8
 73
4
 74
0
 40
0
 40
0
 40
0
 40
0
 40
1
 40
1
 40
1
 40
1
 10
70.819507
 20
187.178680
 30
0.0
 10
70.986278
 20
186.959633
 30
0.0
 10
71.111979
 20
186.709477
 30
0.0
 10
71.196609
 20
186.428210
 30
0.0
  0
SPLINE
  5
21f
100
AcDbEntity
  8
Plast_1
 62
7
100
AcDbSpline
 70
8
 71
3
 72
8
 73
4
 74
0
 40
0
 40
0
 40
0
 40
0
 40
1
 40
1
 40
1
 40
1
 10
71.196609
 20
186.428210
 30
0.0
 10
71.283729
 20
186.146937
 30
0.0
 10
71.327289
 20
185.859440
 30
0.0
 10
71.327289
 20
185.565720
 30
0.0
  0
SPLINE
  5
220
100
AcDbEntity
  8
Plast_1
 62
7
100
AcDbSpline
 70
8
 71
3
 72
8
 73
4
 74
0
 40
0
 40
0
 40
0
 40
0
 40
1
 40
1
 40
1
 40
1
 10
71.327289
 20
185.565720
 30
0.0
 10
71.327289
 20
185.314320
 30
0.0
 10
71.301152
 20
185.059187
 30
0.0
 10
71.248879
 20
184.800320
 30
0.0
  0
SPLINE
  5
221
100
AcDbEntity
  8
Plast_1
 62
7
100
AcDbSpline
 70
8
 71
3
 72
8
 73
4
 74
0
 40
0
 40
0
 40
0
 40
0
 40
1
 40
1
 40
1
 40
1
 10
71.248879
 20
184.800320
 30
0.0
 10
71.196606
 20
184.541447
 30
0.0
 10
71.118198
 20
184.290043
 30
0.0
 10
71.013657
 20
184.046110
 30
0.0
  0
SPLINE
  5
222
100
AcDbEntity
  8
Plast_1
 62
7
100
AcDbSpline
 70
8
 71
3
 72
8
 73
4
 74
0
 40
0
 40
0
 40
0
 40
0
 40
1
 40
1
 40
1
 40
1
 10
71.013657
 20
184.046110
 30
0.0
 10
70.911602
 20
183.804663
 30
0.0
 10
70.784657
 20
183.576910
 30
0.0
 10
70.632820
 20
183.362850
 30
0.0
  0
SPLINE
  5
223
100
AcDbEntity
  8
Plast_1
 62
7
100
AcDbSpline
 70
8
 71
3
 72
8
 73
4
 74
0
 40
0
 40
0
 40
0
 40
0
 40
1
 40
1
 40
1
 40
1
 10
70.632820
 20
183.362850
 30
0.0
 10
70.483473
 20
183.151270
 30
0.0
 10
70.310478
 20
182.965830
 30
0.0
 10
70.113837
 20
182.806530
 30
0.0
  0
SPLINE
  5
224
100
AcDbEntity
  8
Plast_1
 62
7
100
AcDbSpline
 70
8
 71
3
 72
8
 73
4
 74
0
 40
0
 40
0
 40
0
 40
0
 40
1
 40
1
 40
1
 40
1
 10
70.113837
 20
182.806530
 30
0.0
 10
69.917196
 20
182.647223
 30
0.0
 10
69.698152
 20
182.521520
 30
0.0
 10
69.456707
 20
182.429420
 30
0.0
  0
SPLINE
  5
225
100
AcDbEntity
  8
Plast_1
 62
7
100
AcDbSpline
 70
8
 71
3
 72
8
 73
4
 74
0
 40
0
 40
0
 40
0
 40
0
 40
1
 40
1
 40
1
 40
1
 10
69.456707
 20
182.429420
 30
0.0
 10
69.215262
 20
182.337327
 30
0.0
 10
68.952659
 20
182.291280
 30
0.0
 10
68.668898
 20
182.291280
 30
0.0
  0
SPLINE
  5
226
100
AcDbEntity
  8
Plast_1
 62
7
100
AcDbSpline
 70
8
 71
3
 72
8
 73
4
 74
0
 40
0
 40
0
 40
0
 40
0
 40
1
 40
1
 40
1
 40
1
 10
68.668898
 20
182.291280
 30
0.0
 10
68.350290
 20
182.291280
 30
0.0
 10
68.067774
 20
182.358487
 30
0.0
 10
67.821351
 20
182.492900
 30
0.0
  0
SPLINE
  5
227
100
AcDbEntity
  8
Plast_1
 62
7
100
AcDbSpline
 70
8
 71
3
 72
8
 73
4
 74
0
 40
0
 40
0
 40
0
 40
0
 40
1
 40
1
 40
1
 40
1
 10
67.821351
 20
182.492900
 30
0.0
 10
67.577416
 20
182.627313
 30
0.0
 10
67.372063
 20
182.804040
 30
0.0
 10
67.205291
 20
183.023080
 30
0.0
  0
SPLINE
  5
228
100
AcDbEntity
  8
Plast_1
 62
7
100
AcDbSpline
 70
8
 71
3
 72
8
 73
4
 74
0
 40
0
 40
0
 40
0
 40
0
 40
1
 40
1
 40
1
 40
1
 10
67.205291
 20
183.023080
 30
0.0
 10
67.041009
 20
183.244613
 30
0.0
 10
66.915308
 20
183.496017
 30
0.0
 10
66.828189
 20
183.777290
 30
0.0
  0
SPLINE
  5
229
100
AcDbEntity
  8
Plast_1
 62
7
100
AcDbSpline
 70
8
 71
3
 72
8
 73
4
 74
0
 40
0
 40
0
 40
0
 40
0
 40
1
 40
1
 40
1
 40
1
 10
66.828189
 20
183.777290
 30
0.0
 10
66.743558
 20
184.058557
 30
0.0
 10
66.701243
 20
184.346050
 30
0.0
 10
66.701243
 20
184.639770
 30
0.0
  0
LWPOLYLINE
  5
22a
100
AcDbEntity
  8
Plast_1
 62
7
100
AcDbPolyline
 90
1
 70
1
 10
65.599824
 20
192.514200
 30
0.0
  0
SPLINE
  5
22b
100
AcDbEntity
  8
Plast_1
 62
7
100
AcDbSpline
 70
8
 71
3
 72
8
 73
4
 74
0
 40
0
 40
0
 40
0
 40
0
 40
1
 40
1
 40
1
 40
1
 10
67.593595
 20
184.994470
 30
0.0
 10
67.593595
 20
184.825210
 30
0.0
 10
67.606042
 20
184.653460
 30
0.0
 10
67.630935
 20
184.479220
 30
0.0
  0
SPLINE
  5
22c
100
AcDbEntity
  8
Plast_1
 62
7
100
AcDbSpline
 70
8
 71
3
 72
8
 73
4
 74
0
 40
0
 40
0
 40
0
 40
0
 40
1
 40
1
 40
1
 40
1
 10
67.630935
 20
184.479220
 30
0.0
 10
67.658315
 20
184.304980
 30
0.0
 10
67.699386
 20
184.136963
 30
0.0
 10
67.754147
 20
183.975170
 30
0.0
  0
SPLINE
  5
22d
100
AcDbEntity
  8
Plast_1
 62
7
100
AcDbSpline
 70
8
 71
3
 72
8
 73
4
 74
0
 40
0
 40
0
 40
0
 40
0
 40
1
 40
1
 40
1
 40
1
 10
67.754147
 20
183.975170
 30
0.0
 10
67.808907
 20
183.813377
 30
0.0
 10
67.876113
 20
183.661540
 30
0.0
 10
67.955766
 20
183.519660
 30
0.0
  0
SPLINE
  5
22e
100
AcDbEntity
  8
Plast_1
 62
7
100
AcDbSpline
 70
8
 71
3
 72
8
 73
4
 74
0
 40
0
 40
0
 40
0
 40
0
 40
1
 40
1
 40
1
 40
1
 10
67.955766
 20
183.519660
 30
0.0
 10
68.037907
 20
183.380273
 30
0.0
 10
68.133739
 20
183.258307
 30
0.0
 10
68.243261
 20
183.153760
 30
0.0
  0
SPLINE
  5
22f
100
AcDbEntity
  8
Plast_1
 62
7
100
AcDbSpline
 70
8
 71
3
 72
8
 73
4
 74
0
 40
0
 40
0
 40
0
 40
0
 40
1
 40
1
 40
1
 40
1
 10
68.243261
 20
183.153760
 30
0.0
 10
68.355272
 20
183.049220
 30
0.0
 10
68.479728
 20
182.967080
 30
0.0
 10
68.616630
 20
182.907340
 30
0.0
  0
SPLINE
  5
230
100
AcDbEntity
  8
Plast_1
 62
7
100
AcDbSpline
 70
8
 71
3
 72
8
 73
4
 74
0
 40
0
 40
0
 40
0
 40
0
 40
1
 40
1
 40
1
 40
1
 10
68.616630
 20
182.907340
 30
0.0
 10
68.756021
 20
182.847607
 30
0.0
 10
68.909102
 20
182.817740
 30
0.0
 10
69.075874
 20
182.817740
 30
0.0
  0
SPLINE
  5
231
100
AcDbEntity
  8
Plast_1
 62
7
100
AcDbSpline
 70
8
 71
3
 72
8
 73
4
 74
0
 40
0
 40
0
 40
0
 40
0
 40
1
 40
1
 40
1
 40
1
 10
69.075874
 20
182.817740
 30
0.0
 10
69.257580
 20
182.817740
 30
0.0
 10
69.416884
 20
182.856320
 30
0.0
 10
69.553786
 20
182.933480
 30
0.0
  0
SPLINE
  5
232
100
AcDbEntity
  8
Plast_1
 62
7
100
AcDbSpline
 70
8
 71
3
 72
8
 73
4
 74
0
 40
0
 40
0
 40
0
 40
0
 40
1
 40
1
 40
1
 40
1
 10
69.553786
 20
182.933480
 30
0.0
 10
69.693177
 20
183.013133
 30
0.0
 10
69.812656
 20
183.117677
 30
0.0
 10
69.912221
 20
183.247110
 30
0.0
  0
SPLINE
  5
233
100
AcDbEntity
  8
Plast_1
 62
7
100
AcDbSpline
 70
8
 71
3
 72
8
 73
4
 74
0
 40
0
 40
0
 40
0
 40
0
 40
1
 40
1
 40
1
 40
1
 10
69.912221
 20
183.247110
 30
0.0
 10
70.014275
 20
183.376543
 30
0.0
 10
70.097661
 20
183.524647
 30
0.0
 10
70.162378
 20
183.691420
 30
0.0
  0
SPLINE
  5
234
100
AcDbEntity
  8
Plast_1
 62
7
100
AcDbSpline
 70
8
 71
3
 72
8
 73
4
 74
0
 40
0
 40
0
 40
0
 40
0
 40
1
 40
1
 40
1
 40
1
 10
70.162378
 20
183.691420
 30
0.0
 10
70.229585
 20
183.858193
 30
0.0
 10
70.283101
 20
184.029943
 30
0.0
 10
70.322927
 20
184.206670
 30
0.0
  0
SPLINE
  5
235
100
AcDbEntity
  8
Plast_1
 62
7
100
AcDbSpline
 70
8
 71
3
 72
8
 73
4
 74
0
 40
0
 40
0
 40
0
 40
0
 40
1
 40
1
 40
1
 40
1
 10
70.322927
 20
184.206670
 30
0.0
 10
70.362754
 20
184.385890
 30
0.0
 10
70.390134
 20
184.562620
 30
0.0
 10
70.405067
 20
184.736860
 30
0.0
  0
SPLINE
  5
236
100
AcDbEntity
  8
Plast_1
 62
7
100
AcDbSpline
 70
8
 71
3
 72
8
 73
4
 74
0
 40
0
 40
0
 40
0
 40
0
 40
1
 40
1
 40
1
 40
1
 10
70.405067
 20
184.736860
 30
0.0
 10
70.422494
 20
184.911093
 30
0.0
 10
70.431207
 20
185.071640
 30
0.0
 10
70.431207
 20
185.218500
 30
0.0
  0
SPLINE
  5
237
100
AcDbEntity
  8
Plast_1
 62
7
100
AcDbSpline
 70
8
 71
3
 72
8
 73
4
 74
0
 40
0
 40
0
 40
0
 40
0
 40
1
 40
1
 40
1
 40
1
 10
70.431207
 20
185.218500
 30
0.0
 10
70.431207
 20
185.390253
 30
0.0
 10
70.417517
 20
185.562003
 30
0.0
 10
70.390137
 20
185.733750
 30
0.0
  0
SPLINE
  5
238
100
AcDbEntity
  8
Plast_1
 62
7
100
AcDbSpline
 70
8
 71
3
 72
8
 73
4
 74
0
 40
0
 40
0
 40
0
 40
0
 40
1
 40
1
 40
1
 40
1
 10
70.390137
 20
185.733750
 30
0.0
 10
70.365244
 20
185.907990
 30
0.0
 10
70.325418
 20
186.074763
 30
0.0
 10
70.270659
 20
186.234070
 30
0.0
  0
SPLINE
  5
239
100
AcDbEntity
  8
Plast_1
 62
7
100
AcDbSpline
 70
8
 71
3
 72
8
 73
4
 74
0
 40
0
 40
0
 40
0
 40
0
 40
1
 40
1
 40
1
 40
1
 10
70.270659
 20
186.234070
 30
0.0
 10
70.215899
 20
186.395863
 30
0.0
 10
70.147448
 20
186.546453
 30
0.0
 10
70.065306
 20
186.685840
 30
0.0
  0
SPLINE
  5
23a
100
AcDbEntity
  8
Plast_1
 62
7
100
AcDbSpline
 70
8
 71
3
 72
8
 73
4
 74
0
 40
0
 40
0
 40
0
 40
0
 40
1
 40
1
 40
1
 40
1
 10
70.065306
 20
186.685840
 30
0.0
 10
69.985654
 20
186.827720
 30
0.0
 10
69.889823
 20
186.949687
 30
0.0
 10
69.777812
 20
187.051740
 30
0.0
  0
SPLINE
  5
23b
100
AcDbEntity
  8
Plast_1
 62
7
100
AcDbSpline
 70
8
 71
3
 72
8
 73
4
 74
0
 40
0
 40
0
 40
0
 40
0
 40
1
 40
1
 40
1
 40
1
 10
69.777812
 20
187.051740
 30
0.0
 10
69.668290
 20
187.156287
 30
0.0
 10
69.543834
 20
187.238430
 30
0.0
 10
69.404443
 20
187.298170
 30
0.0
  0
SPLINE
  5
23c
100
AcDbEntity
  8
Plast_1
 62
7
100
AcDbSpline
 70
8
 71
3
 72
8
 73
4
 74
0
 40
0
 40
0
 40
0
 40
0
 40
1
 40
1
 40
1
 40
1
 10
69.404443
 20
187.298170
 30
0.0
 10
69.267541
 20
187.357903
 30
0.0
 10
69.115704
 20
187.387770
 30
0.0
 10
68.948932
 20
187.387770
 30
0.0
  0
SPLINE
  5
23d
100
AcDbEntity
  8
Plast_1
 62
7
100
AcDbSpline
 70
8
 71
3
 72
8
 73
4
 74
0
 40
0
 40
0
 40
0
 40
0
 40
1
 40
1
 40
1
 40
1
 10
68.948932
 20
187.387770
 30
0.0
 10
68.767226
 20
187.387770
 30
0.0
 10
68.606677
 20
187.349187
 30
0.0
 10
68.467286
 20
187.272020
 30
0.0
  0
SPLINE
  5
23e
100
AcDbEntity
  8
Plast_1
 62
7
100
AcDbSpline
 70
8
 71
3
 72
8
 73
4
 74
0
 40
0
 40
0
 40
0
 40
0
 40
1
 40
1
 40
1
 40
1
 10
68.467286
 20
187.272020
 30
0.0
 10
68.330384
 20
187.194860
 30
0.0
 10
68.210906
 20
187.091563
 30
0.0
 10
68.108852
 20
186.962130
 30
0.0
  0
SPLINE
  5
23f
100
AcDbEntity
  8
Plast_1
 62
7
100
AcDbSpline
 70
8
 71
3
 72
8
 73
4
 74
0
 40
0
 40
0
 40
0
 40
0
 40
1
 40
1
 40
1
 40
1
 10
68.108852
 20
186.962130
 30
0.0
 10
68.009287
 20
186.832690
 30
0.0
 10
67.925901
 20
186.684587
 30
0.0
 10
67.858694
 20
186.517820
 30
0.0
  0
SPLINE
  5
240
100
AcDbEntity
  8
Plast_1
 62
7
100
AcDbSpline
 70
8
 71
3
 72
8
 73
4
 74
0
 40
0
 40
0
 40
0
 40
0
 40
1
 40
1
 40
1
 40
1
 10
67.858694
 20
186.517820
 30
0.0
 10
67.793974
 20
186.351047
 30
0.0
 10
67.741702
 20
186.179297
 30
0.0
 10
67.701879
 20
186.002570
 30
0.0
  0
SPLINE
  5
241
100
AcDbEntity
  8
Plast_1
 62
7
100
AcDbSpline
 70
8
 71
3
 72
8
 73
4
 74
0
 40
0
 40
0
 40
0
 40
0
 40
1
 40
1
 40
1
 40
1
 10
67.701879
 20
186.002570
 30
0.0
 10
67.662052
 20
185.825837
 30
0.0
 10
67.633429
 20
185.649107
 30
0.0
 10
67.616009
 20
185.472380
 30
0.0
  0
SPLINE
  5
242
100
AcDbEntity
  8
Plast_1
 62
7
100
AcDbSpline
 70
8
 71
3
 72
8
 73
4
 74
0
 40
0
 40
0
 40
0
 40
0
 40
1
 40
1
 40
1
 40
1
 10
67.616009
 20
185.472380
 30
0.0
 10
67.601076
 20
185.298140
 30
0.0
 10
67.593609
 20
185.138837
 30
0.0
 10
67.593609
 20
184.994470
 30
0.0
  0
LWPOLYLINE
  5
243
100
AcDbEntity
  8
Plast_1
 62
7
100
AcDbPolyline
 90
1
 70
1
 10
66.701243
 20
184.639770
 30
0.0
  0
SPLINE
  5
244
100
AcDbEntity
  8
Plast_1
 62
7
100
AcDbSpline
 70
8
 71
3
 72
8
 73
4
 74
0
 40
0
 40
0
 40
0
 40
0
 40
1
 40
1
 40
1
 40
1
 10
75.270064
 20
186.327400
 30
0.0
 10
75.339759
 20
186.464300
 30
0.0
 10
75.374607
 20
186.603690
 30
0.0
 10
75.374607
 20
186.745570
 30
0.0
  0
SPLINE
  5
245
100
AcDbEntity
  8
Plast_1
 62
7
100
AcDbSpline
 70
8
 71
3
 72
8
 73
4
 74
0
 40
0
 40
0
 40
0
 40
0
 40
1
 40
1
 40
1
 40
1
 10
75.374607
 20
186.745570
 30
0.0
 10
75.374607
 20
186.842650
 30
0.0
 10
75.357184
 20
186.933503
 30
0.0
 10
75.322337
 20
187.018130
 30
0.0
  0
SPLINE
  5
246
100
AcDbEntity
  8
Plast_1
 62
7
100
AcDbSpline
 70
8
 71
3
 72
8
 73
4
 74
0
 40
0
 40
0
 40
0
 40
0
 40
1
 40
1
 40
1
 40
1
 10
75.322337
 20
187.018130
 30
0.0
 10
75.289977
 20
187.105250
 30
0.0
 10
75.240195
 20
187.181170
 30
0.0
 10
75.172990
 20
187.245890
 30
0.0
  0
SPLINE
  5
247
100
AcDbEntity
  8
Plast_1
 62
7
100
AcDbSpline
 70
8
 71
3
 72
8
 73
4
 74
0
 40
0
 40
0
 40
0
 40
0
 40
1
 40
1
 40
1
 40
1
 10
75.172990
 20
187.245890
 30
0.0
 10
75.105783
 20
187.313097
 30
0.0
 10
75.021153
 20
187.365367
 30
0.0
 10
74.919099
 20
187.402700
 30
0.0
  0
SPLINE
  5
248
100
AcDbEntity
  8
Plast_1
 62
7
100
AcDbSpline
 70
8
 71
3
 72
8
 73
4
 74
0
 40
0
 40
0
 40
0
 40
0
 40
1
 40
1
 40
1
 40
1
 10
74.919099
 20
187.402700
 30
0.0
 10
74.819534
 20
187.442500
 30
0.0
 10
74.702545
 20
187.462400
 30
0.0
 10
74.568132
 20
187.462400
 30
0.0
  0
SPLINE
  5
249
100
AcDbEntity
  8
Plast_1
 62
7
100
AcDbSpline
 70
8
 71
3
 72
8
 73
4
 74
0
 40
0
 40
0
 40
0
 40
0
 40
1
 40
1
 40
1
 40
1
 10
74.568132
 20
187.462400
 30
0.0
 10
74.373980
 20
187.462400
 30
0.0
 10
74.199741
 20
187.427553
 30
0.0
 10
74.045415
 20
187.357860
 30
0.0
  0
SPLINE
  5
24a
100
AcDbEntity
  8
Plast_1
 62
7
100
AcDbSpline
 70
8
 71
3
 72
8
 73
4
 74
0
 40
0
 40
0
 40
0
 40
0
 40
1
 40
1
 40
1
 40
1
 10
74.045415
 20
187.357860
 30
0.0
 10
73.891089
 20
187.290653
 30
0.0
 10
73.754187
 20
187.197310
 30
0.0
 10
73.634709
 20
187.077830
 30
0.0
  0
SPLINE
  5
24b
100
AcDbEntity
  8
Plast_1
 62
7
100
AcDbSpline
 70
8
 71
3
 72
8
 73
4
 74
0
 40
0
 40
0
 40
0
 40
0
 40
1
 40
1
 40
1
 40
1
 10
73.634709
 20
187.077830
 30
0.0
 10
73.517720
 20
186.958350
 30
0.0
 10
73.416910
 20
186.820203
 30
0.0
 10
73.332280
 20
186.663390
 30
0.0
  0
SPLINE
  5
24c
100
AcDbEntity
  8
Plast_1
 62
7
100
AcDbSpline
 70
8
 71
3
 72
8
 73
4
 74
0
 40
0
 40
0
 40
0
 40
0
 40
1
 40
1
 40
1
 40
1
 10
73.332280
 20
186.663390
 30
0.0
 10
73.250139
 20
186.506577
 30
0.0
 10
73.181688
 20
186.338560
 30
0.0
 10
73.126927
 20
186.159340
 30
0.0
  0
SPLINE
  5
24d
100
AcDbEntity
  8
Plast_1
 62
7
100
AcDbSpline
 70
8
 71
3
 72
8
 73
4
 74
0
 40
0
 40
0
 40
0
 40
0
 40
1
 40
1
 40
1
 40
1
 10
73.126927
 20
186.159340
 30
0.0
 10
73.074654
 20
185.980127
 30
0.0
 10
73.036072
 20
185.795933
 30
0.0
 10
73.011183
 20
185.606760
 30
0.0
  0
SPLINE
  5
24e
100
AcDbEntity
  8
Plast_1
 62
7
100
AcDbSpline
 70
8
 71
3
 72
8
 73
4
 74
0
 40
0
 40
0
 40
0
 40
0
 40
1
 40
1
 40
1
 40
1
 10
73.011183
 20
185.606760
 30
0.0
 10
72.986290
 20
185.420073
 30
0.0
 10
72.973843
 20
185.237120
 30
0.0
 10
72.973843
 20
185.057900
 30
0.0
  0
SPLINE
  5
24f
100
AcDbEntity
  8
Plast_1
 62
7
100
AcDbSpline
 70
8
 71
3
 72
8
 73
4
 74
0
 40
0
 40
0
 40
0
 40
0
 40
1
 40
1
 40
1
 40
1
 10
72.973843
 20
185.057900
 30
0.0
 10
72.973843
 20
184.736807
 30
0.0
 10
73.014913
 20
184.444337
 30
0.0
 10
73.097054
 20
184.180490
 30
0.0
  0
SPLINE
  5
250
100
AcDbEntity
  8
Plast_1
 62
7
100
AcDbSpline
 70
8
 71
3
 72
8
 73
4
 74
0
 40
0
 40
0
 40
0
 40
0
 40
1
 40
1
 40
1
 40
1
 10
73.097054
 20
184.180490
 30
0.0
 10
73.181685
 20
183.919130
 30
0.0
 10
73.294940
 20
183.695107
 30
0.0
 10
73.436820
 20
183.508420
 30
0.0
  0
SPLINE
  5
251
100
AcDbEntity
  8
Plast_1
 62
7
100
AcDbSpline
 70
8
 71
3
 72
8
 73
4
 74
0
 40
0
 40
0
 40
0
 40
0
 40
1
 40
1
 40
1
 40
1
 10
73.436820
 20
183.508420
 30
0.0
 10
73.578701
 20
183.324227
 30
0.0
 10
73.744228
 20
183.181103
 30
0.0
 10
73.933401
 20
183.079050
 30
0.0
  0
SPLINE
  5
252
100
AcDbEntity
  8
Plast_1
 62
7
100
AcDbSpline
 70
8
 71
3
 72
8
 73
4
 74
0
 40
0
 40
0
 40
0
 40
0
 40
1
 40
1
 40
1
 40
1
 10
73.933401
 20
183.079050
 30
0.0
 10
74.122575
 20
182.976997
 30
0.0
 10
74.324194
 20
182.925970
 30
0.0
 10
74.538259
 20
182.925970
 30
0.0
  0
SPLINE
  5
253
100
AcDbEntity
  8
Plast_1
 62
7
100
AcDbSpline
 70
8
 71
3
 72
8
 73
4
 74
0
 40
0
 40
0
 40
0
 40
0
 40
1
 40
1
 40
1
 40
1
 10
74.538259
 20
182.925970
 30
0.0
 10
74.764770
 20
182.925970
 30
0.0
 10
74.993769
 20
182.984463
 30
0.0
 10
75.225258
 20
183.101450
 30
0.0
  0
SPLINE
  5
254
100
AcDbEntity
  8
Plast_1
 62
7
100
AcDbSpline
 70
8
 71
3
 72
8
 73
4
 74
0
 40
0
 40
0
 40
0
 40
0
 40
1
 40
1
 40
1
 40
1
 10
75.225258
 20
183.101450
 30
0.0
 10
75.459236
 20
183.220930
 30
0.0
 10
75.685747
 20
183.412593
 30
0.0
 10
75.904790
 20
183.676440
 30
0.0
  0
SPLINE
  5
255
100
AcDbEntity
  8
Plast_1
 62
7
100
AcDbSpline
 70
8
 71
3
 72
8
 73
4
 74
0
 40
0
 40
0
 40
0
 40
0
 40
1
 40
1
 40
1
 40
1
 10
75.904790
 20
183.676440
 30
0.0
 10
75.919723
 20
183.668973
 30
0.0
 10
75.938393
 20
183.657773
 30
0.0
 10
75.960800
 20
183.642840
 30
0.0
  0
SPLINE
  5
256
100
AcDbEntity
  8
Plast_1
 62
7
100
AcDbSpline
 70
8
 71
3
 72
8
 73
4
 74
0
 40
0
 40
0
 40
0
 40
0
 40
1
 40
1
 40
1
 40
1
 10
75.960800
 20
183.642840
 30
0.0
 10
75.985693
 20
183.630373
 30
0.0
 10
76.008097
 20
183.615440
 30
0.0
 10
76.028010
 20
183.598040
 30
0.0
  0
SPLINE
  5
257
100
AcDbEntity
  8
Plast_1
 62
7
100
AcDbSpline
 70
8
 71
3
 72
8
 73
4
 74
0
 40
0
 40
0
 40
0
 40
0
 40
1
 40
1
 40
1
 40
1
 10
76.028010
 20
183.598040
 30
0.0
 10
76.047923
 20
183.580640
 30
0.0
 10
76.065347
 20
183.563207
 30
0.0
 10
76.080280
 20
183.545740
 30
0.0
  0
SPLINE
  5
258
100
AcDbEntity
  8
Plast_1
 62
7
100
AcDbSpline
 70
8
 71
3
 72
8
 73
4
 74
0
 40
0
 40
0
 40
0
 40
0
 40
1
 40
1
 40
1
 40
1
 10
76.080280
 20
183.545740
 30
0.0
 10
76.095213
 20
183.528340
 30
0.0
 10
76.102680
 20
183.512173
 30
0.0
 10
76.102680
 20
183.497240
 30
0.0
  0
SPLINE
  5
259
100
AcDbEntity
  8
Plast_1
 62
7
100
AcDbSpline
 70
8
 71
3
 72
8
 73
4
 74
0
 40
0
 40
0
 40
0
 40
0
 40
1
 40
1
 40
1
 40
1
 10
76.102680
 20
183.497240
 30
0.0
 10
76.102680
 20
183.487307
 30
0.0
 10
76.101447
 20
183.481073
 30
0.0
 10
76.098980
 20
183.478540
 30
0.0
  0
LWPOLYLINE
  5
25a
100
AcDbEntity
  8
Plast_1
 62
7
100
AcDbPolyline
 90
1
 70
1
 10
67.593609
 20
184.994470
 30
0.0
  0
SPLINE
  5
25b
100
AcDbEntity
  8
Plast_1
 62
7
100
AcDbSpline
 70
8
 71
3
 72
8
 73
4
 74
0
 40
0
 40
0
 40
0
 40
0
 40
1
 40
1
 40
1
 40
1
 10
76.091480
 20
183.463640
 30
0.0
 10
75.850035
 20
183.072847
 30
0.0
 10
75.560051
 20
182.780373
 30
0.0
 10
75.221530
 20
182.586220
 30
0.0
  0
SPLINE
  5
25c
100
AcDbEntity
  8
Plast_1
 62
7
100
AcDbSpline
 70
8
 71
3
 72
8
 73
4
 74
0
 40
0
 40
0
 40
0
 40
0
 40
1
 40
1
 40
1
 40
1
 10
75.221530
 20
182.586220
 30
0.0
 10
74.883009
 20
182.392067
 30
0.0
 10
74.512129
 20
182.294990
 30
0.0
 10
74.108890
 20
182.294990
 30
0.0
  0
SPLINE
  5
25d
100
AcDbEntity
  8
Plast_1
 62
7
100
AcDbSpline
 70
8
 71
3
 72
8
 73
4
 74
0
 40
0
 40
0
 40
0
 40
0
 40
1
 40
1
 40
1
 40
1
 10
74.108890
 20
182.294990
 30
0.0
 10
73.889847
 20
182.294990
 30
0.0
 10
73.688227
 20
182.326090
 30
0.0
 10
73.504032
 20
182.388290
 30
0.0
  0
SPLINE
  5
25e
100
AcDbEntity
  8
Plast_1
 62
7
100
AcDbSpline
 70
8
 71
3
 72
8
 73
4
 74
0
 40
0
 40
0
 40
0
 40
0
 40
1
 40
1
 40
1
 40
1
 10
73.504032
 20
182.388290
 30
0.0
 10
73.319837
 20
182.448023
 30
0.0
 10
73.153065
 20
182.531410
 30
0.0
 10
73.003717
 20
182.638450
 30
0.0
  0
SPLINE
  5
25f
100
AcDbEntity
  8
Plast_1
 62
7
100
AcDbSpline
 70
8
 71
3
 72
8
 73
4
 74
0
 40
0
 40
0
 40
0
 40
0
 40
1
 40
1
 40
1
 40
1
 10
73.003717
 20
182.638450
 30
0.0
 10
72.854370
 20
182.747970
 30
0.0
 10
72.722446
 20
182.876160
 30
0.0
 10
72.607946
 20
183.023020
 30
0.0
  0
SPLINE
  5
260
100
AcDbEntity
  8
Plast_1
 62
7
100
AcDbSpline
 70
8
 71
3
 72
8
 73
4
 74
0
 40
0
 40
0
 40
0
 40
0
 40
1
 40
1
 40
1
 40
1
 10
72.607946
 20
183.023020
 30
0.0
 10
72.495935
 20
183.172367
 30
0.0
 10
72.401348
 20
183.332917
 30
0.0
 10
72.324185
 20
183.504670
 30
0.0
  0
SPLINE
  5
261
100
AcDbEntity
  8
Plast_1
 62
7
100
AcDbSpline
 70
8
 71
3
 72
8
 73
4
 74
0
 40
0
 40
0
 40
0
 40
0
 40
1
 40
1
 40
1
 40
1
 10
72.324185
 20
183.504670
 30
0.0
 10
72.249512
 20
183.678910
 30
0.0
 10
72.192262
 20
183.860617
 30
0.0
 10
72.152436
 20
184.049790
 30
0.0
  0
SPLINE
  5
262
100
AcDbEntity
  8
Plast_1
 62
7
100
AcDbSpline
 70
8
 71
3
 72
8
 73
4
 74
0
 40
0
 40
0
 40
0
 40
0
 40
1
 40
1
 40
1
 40
1
 10
72.152436
 20
184.049790
 30
0.0
 10
72.115096
 20
184.241450
 30
0.0
 10
72.096426
 20
184.434357
 30
0.0
 10
72.096426
 20
184.628510
 30
0.0
  0
SPLINE
  5
263
100
AcDbEntity
  8
Plast_1
 62
7
100
AcDbSpline
 70
8
 71
3
 72
8
 73
4
 74
0
 40
0
 40
0
 40
0
 40
0
 40
1
 40
1
 40
1
 40
1
 10
72.096426
 20
184.628510
 30
0.0
 10
72.096426
 20
184.889870
 30
0.0
 10
72.125053
 20
185.151227
 30
0.0
 10
72.182306
 20
185.412580
 30
0.0
  0
SPLINE
  5
264
100
AcDbEntity
  8
Plast_1
 62
7
100
AcDbSpline
 70
8
 71
3
 72
8
 73
4
 74
0
 40
0
 40
0
 40
0
 40
0
 40
1
 40
1
 40
1
 40
1
 10
72.182306
 20
185.412580
 30
0.0
 10
72.239559
 20
185.676427
 30
0.0
 10
72.322945
 20
185.929073
 30
0.0
 10
72.432463
 20
186.170520
 30
0.0
  0
SPLINE
  5
265
100
AcDbEntity
  8
Plast_1
 62
7
100
AcDbSpline
 70
8
 71
3
 72
8
 73
4
 74
0
 40
0
 40
0
 40
0
 40
0
 40
1
 40
1
 40
1
 40
1
 10
72.432463
 20
186.170520
 30
0.0
 10
72.544474
 20
186.414453
 30
0.0
 10
72.678887
 20
186.640963
 30
0.0
 10
72.835702
 20
186.850050
 30
0.0
  0
SPLINE
  5
266
100
AcDbEntity
  8
Plast_1
 62
7
100
AcDbSpline
 70
8
 71
3
 72
8
 73
4
 74
0
 40
0
 40
0
 40
0
 40
0
 40
1
 40
1
 40
1
 40
1
 10
72.835702
 20
186.850050
 30
0.0
 10
72.995006
 20
187.061630
 30
0.0
 10
73.174223
 20
187.244583
 30
0.0
 10
73.373354
 20
187.398910
 30
0.0
  0
SPLINE
  5
267
100
AcDbEntity
  8
Plast_1
 62
7
100
AcDbSpline
 70
8
 71
3
 72
8
 73
4
 74
0
 40
0
 40
0
 40
0
 40
0
 40
1
 40
1
 40
1
 40
1
 10
73.373354
 20
187.398910
 30
0.0
 10
73.574973
 20
187.555723
 30
0.0
 10
73.796506
 20
187.677690
 30
0.0
 10
74.037951
 20
187.764810
 30
0.0
  0
SPLINE
  5
268
100
AcDbEntity
  8
Plast_1
 62
7
100
AcDbSpline
 70
8
 71
3
 72
8
 73
4
 74
0
 40
0
 40
0
 40
0
 40
0
 40
1
 40
1
 40
1
 40
1
 10
74.037951
 20
187.764810
 30
0.0
 10
74.279396
 20
187.854417
 30
0.0
 10
74.537021
 20
187.899220
 30
0.0
 10
74.810825
 20
187.899220
 30
0.0
  0
SPLINE
  5
269
100
AcDbEntity
  8
Plast_1
 62
7
100
AcDbSpline
 70
8
 71
3
 72
8
 73
4
 74
0
 40
0
 40
0
 40
0
 40
0
 40
1
 40
1
 40
1
 40
1
 10
74.810825
 20
187.899220
 30
0.0
 10
75.014933
 20
187.899220
 30
0.0
 10
75.205351
 20
187.874320
 30
0.0
 10
75.382079
 20
187.824520
 30
0.0
  0
SPLINE
  5
26a
100
AcDbEntity
  8
Plast_1
 62
7
100
AcDbSpline
 70
8
 71
3
 72
8
 73
4
 74
0
 40
0
 40
0
 40
0
 40
0
 40
1
 40
1
 40
1
 40
1
 10
75.382079
 20
187.824520
 30
0.0
 10
75.558808
 20
187.774720
 30
0.0
 10
75.710645
 20
187.703780
 30
0.0
 10
75.837590
 20
187.611700
 30
0.0
  0
SPLINE
  5
26b
100
AcDbEntity
  8
Plast_1
 62
7
100
AcDbSpline
 70
8
 71
3
 72
8
 73
4
 74
0
 40
0
 40
0
 40
0
 40
0
 40
1
 40
1
 40
1
 40
1
 10
75.837590
 20
187.611700
 30
0.0
 10
75.967025
 20
187.522087
 30
0.0
 10
76.067834
 20
187.412563
 30
0.0
 10
76.140019
 20
187.283130
 30
0.0
  0
SPLINE
  5
26c
100
AcDbEntity
  8
Plast_1
 62
7
100
AcDbSpline
 70
8
 71
3
 72
8
 73
4
 74
0
 40
0
 40
0
 40
0
 40
0
 40
1
 40
1
 40
1
 40
1
 10
76.140019
 20
187.283130
 30
0.0
 10
76.214693
 20
187.156183
 30
0.0
 10
76.252030
 20
187.014303
 30
0.0
 10
76.252030
 20
186.857490
 30
0.0
  0
SPLINE
  5
26d
100
AcDbEntity
  8
Plast_1
 62
7
100
AcDbSpline
 70
8
 71
3
 72
8
 73
4
 74
0
 40
0
 40
0
 40
0
 40
0
 40
1
 40
1
 40
1
 40
1
 10
76.252030
 20
186.857490
 30
0.0
 10
76.252030
 20
186.755437
 30
0.0
 10
76.235850
 20
186.664583
 30
0.0
 10
76.203490
 20
186.584930
 30
0.0
  0
SPLINE
  5
26e
100
AcDbEntity
  8
Plast_1
 62
7
100
AcDbSpline
 70
8
 71
3
 72
8
 73
4
 74
0
 40
0
 40
0
 40
0
 40
0
 40
1
 40
1
 40
1
 40
1
 10
76.203490
 20
186.584930
 30
0.0
 10
76.173623
 20
186.507770
 30
0.0
 10
76.130063
 20
186.440563
 30
0.0
 10
76.072810
 20
186.383310
 30
0.0
  0
SPLINE
  5
26f
100
AcDbEntity
  8
Plast_1
 62
7
100
AcDbSpline
 70
8
 71
3
 72
8
 73
4
 74
0
 40
0
 40
0
 40
0
 40
0
 40
1
 40
1
 40
1
 40
1
 10
76.072810
 20
186.383310
 30
0.0
 10
76.018050
 20
186.328577
 30
0.0
 10
75.952088
 20
186.286263
 30
0.0
 10
75.874925
 20
186.256370
 30
0.0
  0
SPLINE
  5
270
100
AcDbEntity
  8
Plast_1
 62
7
100
AcDbSpline
 70
8
 71
3
 72
8
 73
4
 74
0
 40
0
 40
0
 40
0
 40
0
 40
1
 40
1
 40
1
 40
1
 10
75.874925
 20
186.256370
 30
0.0
 10
75.800251
 20
186.228970
 30
0.0
 10
75.718110
 20
186.215270
 30
0.0
 10
75.628501
 20
186.215270
 30
0.0
  0
SPLINE
  5
271
100
AcDbEntity
  8
Plast_1
 62
7
100
AcDbSpline
 70
8
 71
3
 72
8
 73
4
 74
0
 40
0
 40
0
 40
0
 40
0
 40
1
 40
1
 40
1
 40
1
 10
75.628501
 20
186.215270
 30
0.0
 10
75.573741
 20
186.215270
 30
0.0
 10
75.516491
 20
186.220237
 30
0.0
 10
75.456751
 20
186.230170
 30
0.0
  0
SPLINE
  5
272
100
AcDbEntity
  8
Plast_1
 62
7
100
AcDbSpline
 70
8
 71
3
 72
8
 73
4
 74
0
 40
0
 40
0
 40
0
 40
0
 40
1
 40
1
 40
1
 40
1
 10
75.456751
 20
186.230170
 30
0.0
 10
75.399498
 20
186.242637
 30
0.0
 10
75.342248
 20
186.261303
 30
0.0
 10
75.285002
 20
186.286170
 30
0.0
  0
LWPOLYLINE
  5
273
100
AcDbEntity
  8
Plast_1
 62
7
100
AcDbPolyline
 90
2
 70
0
 10
76.098980
 20
183.478540
 30
0.0
 10
76.091480
 20
183.463640
 30
0.0
  0
SPLINE
  5
274
100
AcDbEntity
  8
Plast_1
 62
7
100
AcDbSpline
 70
8
 71
3
 72
8
 73
4
 74
0
 40
0
 40
0
 40
0
 40
0
 40
1
 40
1
 40
1
 40
1
 10
78.925349
 20
184.897390
 30
0.0
 10
79.224044
 20
184.996957
 30
0.0
 10
79.496604
 20
185.110213
 30
0.0
 10
79.743028
 20
185.237160
 30
0.0
  0
SPLINE
  5
275
100
AcDbEntity
  8
Plast_1
 62
7
100
AcDbSpline
 70
8
 71
3
 72
8
 73
4
 74
0
 40
0
 40
0
 40
0
 40
0
 40
1
 40
1
 40
1
 40
1
 10
79.743028
 20
185.237160
 30
0.0
 10
79.989451
 20
185.364107
 30
0.0
 10
80.201027
 20
185.499763
 30
0.0
 10
80.377755
 20
185.644130
 30
0.0
  0
SPLINE
  5
276
100
AcDbEntity
  8
Plast_1
 62
7
100
AcDbSpline
 70
8
 71
3
 72
8
 73
4
 74
0
 40
0
 40
0
 40
0
 40
0
 40
1
 40
1
 40
1
 40
1
 10
80.377755
 20
185.644130
 30
0.0
 10
80.556972
 20
185.788503
 30
0.0
 10
80.695119
 20
185.940340
 30
0.0
 10
80.792195
 20
186.099640
 30
0.0
  0
SPLINE
  5
277
100
AcDbEntity
  8
Plast_1
 62
7
100
AcDbSpline
 70
8
 71
3
 72
8
 73
4
 74
0
 40
0
 40
0
 40
0
 40
0
 40
1
 40
1
 40
1
 40
1
 10
80.792195
 20
186.099640
 30
0.0
 10
80.889271
 20
186.258947
 30
0.0
 10
80.937809
 20
186.421987
 30
0.0
 10
80.937809
 20
186.588760
 30
0.0
  0
SPLINE
  5
278
100
AcDbEntity
  8
Plast_1
 62
7
100
AcDbSpline
 70
8
 71
3
 72
8
 73
4
 74
0
 40
0
 40
0
 40
0
 40
0
 40
1
 40
1
 40
1
 40
1
 10
80.937809
 20
186.588760
 30
0.0
 10
80.937809
 20
186.658453
 30
0.0
 10
80.924119
 20
186.721923
 30
0.0
 10
80.896739
 20
186.779170
 30
0.0
  0
SPLINE
  5
279
100
AcDbEntity
  8
Plast_1
 62
7
100
AcDbSpline
 70
8
 71
3
 72
8
 73
4
 74
0
 40
0
 40
0
 40
0
 40
0
 40
1
 40
1
 40
1
 40
1
 10
80.896739
 20
186.779170
 30
0.0
 10
80.871846
 20
186.838903
 30
0.0
 10
80.836998
 20
186.888687
 30
0.0
 10
80.792196
 20
186.928520
 30
0.0
  0
SPLINE
  5
27a
100
AcDbEntity
  8
Plast_1
 62
7
100
AcDbSpline
 70
8
 71
3
 72
8
 73
4
 74
0
 40
0
 40
0
 40
0
 40
0
 40
1
 40
1
 40
1
 40
1
 10
80.792196
 20
186.928520
 30
0.0
 10
80.749883
 20
186.970853
 30
0.0
 10
80.698856
 20
187.003220
 30
0.0
 10
80.639115
 20
187.025620
 30
0.0
  0
SPLINE
  5
27b
100
AcDbEntity
  8
Plast_1
 62
7
100
AcDbSpline
 70
8
 71
3
 72
8
 73
4
 74
0
 40
0
 40
0
 40
0
 40
0
 40
1
 40
1
 40
1
 40
1
 10
80.639115
 20
187.025620
 30
0.0
 10
80.581862
 20
187.048020
 30
0.0
 10
80.519633
 20
187.059220
 30
0.0
 10
80.452430
 20
187.059220
 30
0.0
  0
SPLINE
  5
27c
100
AcDbEntity
  8
Plast_1
 62
7
100
AcDbSpline
 70
8
 71
3
 72
8
 73
4
 74
0
 40
0
 40
0
 40
0
 40
0
 40
1
 40
1
 40
1
 40
1
 10
80.452430
 20
187.059220
 30
0.0
 10
80.295615
 20
187.059220
 30
0.0
 10
80.132578
 20
187.010683
 30
0.0
 10
79.963317
 20
186.913610
 30
0.0
  0
SPLINE
  5
27d
100
AcDbEntity
  8
Plast_1
 62
7
100
AcDbSpline
 70
8
 71
3
 72
8
 73
4
 74
0
 40
0
 40
0
 40
0
 40
0
 40
1
 40
1
 40
1
 40
1
 10
79.963317
 20
186.913610
 30
0.0
 10
79.796545
 20
186.816530
 30
0.0
 10
79.629773
 20
186.675893
 30
0.0
 10
79.463002
 20
186.491700
 30
0.0
  0
SPLINE
  5
27e
100
AcDbEntity
  8
Plast_1
 62
7
100
AcDbSpline
 70
8
 71
3
 72
8
 73
4
 74
0
 40
0
 40
0
 40
0
 40
0
 40
1
 40
1
 40
1
 40
1
 10
79.463002
 20
186.491700
 30
0.0
 10
79.298719
 20
186.307507
 30
0.0
 10
79.138171
 20
186.082240
 30
0.0
 10
78.981356
 20
185.815900
 30
0.0
  0
SPLINE
  5
27f
100
AcDbEntity
  8
Plast_1
 62
7
100
AcDbSpline
 70
8
 71
3
 72
8
 73
4
 74
0
 40
0
 40
0
 40
0
 40
0
 40
1
 40
1
 40
1
 40
1
 10
78.981356
 20
185.815900
 30
0.0
 10
78.824541
 20
185.549567
 30
0.0
 10
78.678927
 20
185.247140
 30
0.0
 10
78.544514
 20
184.908620
 30
0.0
  0
SPLINE
  5
280
100
AcDbEntity
  8
Plast_1
 62
7
100
AcDbSpline
 70
8
 71
3
 72
8
 73
4
 74
0
 40
0
 40
0
 40
0
 40
0
 40
1
 40
1
 40
1
 40
1
 10
78.544514
 20
184.908620
 30
0.0
 10
78.410101
 20
184.570093
 30
0.0
 10
78.289379
 20
184.197967
 30
0.0
 10
78.182346
 20
183.792240
 30
0.0
  0
SPLINE
  5
281
100
AcDbEntity
  8
Plast_1
 62
7
100
AcDbSpline
 70
8
 71
3
 72
8
 73
4
 74
0
 40
0
 40
0
 40
0
 40
0
 40
1
 40
1
 40
1
 40
1
 10
78.182346
 20
183.792240
 30
0.0
 10
78.075313
 20
183.386513
 30
0.0
 10
77.989438
 20
182.953407
 30
0.0
 10
77.924721
 20
182.492920
 30
0.0
  0
LWPOLYLINE
  5
282
100
AcDbEntity
  8
Plast_1
 62
7
100
AcDbPolyline
 90
2
 70
0
 10
75.285002
 20
186.286170
 30
0.0
 10
75.270064
 20
186.327400
 30
0.0
  0
SPLINE
  5
283
100
AcDbEntity
  8
Plast_1
 62
7
100
AcDbSpline
 70
8
 71
3
 72
8
 73
4
 74
0
 40
0
 40
0
 40
0
 40
0
 40
1
 40
1
 40
1
 40
1
 10
77.110776
 20
182.399820
 30
0.0
 10
77.125709
 20
182.693540
 30
0.0
 10
77.141889
 20
183.017127
 30
0.0
 10
77.159316
 20
183.370580
 30
0.0
  0
SPLINE
  5
284
100
AcDbEntity
  8
Plast_1
 62
7
100
AcDbSpline
 70
8
 71
3
 72
8
 73
4
 74
0
 40
0
 40
0
 40
0
 40
0
 40
1
 40
1
 40
1
 40
1
 10
77.159316
 20
183.370580
 30
0.0
 10
77.179229
 20
183.726527
 30
0.0
 10
77.199143
 20
184.103630
 30
0.0
 10
77.219056
 20
184.501890
 30
0.0
  0
SPLINE
  5
285
100
AcDbEntity
  8
Plast_1
 62
7
100
AcDbSpline
 70
8
 71
3
 72
8
 73
4
 74
0
 40
0
 40
0
 40
0
 40
0
 40
1
 40
1
 40
1
 40
1
 10
77.219056
 20
184.501890
 30
0.0
 10
77.241456
 20
184.900150
 30
0.0
 10
77.263859
 20
185.314590
 30
0.0
 10
77.286266
 20
185.745210
 30
0.0
  0
SPLINE
  5
286
100
AcDbEntity
  8
Plast_1
 62
7
100
AcDbSpline
 70
8
 71
3
 72
8
 73
4
 74
0
 40
0
 40
0
 40
0
 40
0
 40
1
 40
1
 40
1
 40
1
 10
77.286266
 20
185.745210
 30
0.0
 10
77.311159
 20
186.178317
 30
0.0
 10
77.334806
 20
186.618893
 30
0.0
 10
77.357206
 20
187.066940
 30
0.0
  0
SPLINE
  5
287
100
AcDbEntity
  8
Plast_1
 62
7
100
AcDbSpline
 70
8
 71
3
 72
8
 73
4
 74
0
 40
0
 40
0
 40
0
 40
0
 40
1
 40
1
 40
1
 40
1
 10
77.357206
 20
187.066940
 30
0.0
 10
77.382099
 20
187.514980
 30
0.0
 10
77.406989
 20
187.966757
 30
0.0
 10
77.431876
 20
188.422270
 30
0.0
  0
SPLINE
  5
288
100
AcDbEntity
  8
Plast_1
 62
7
100
AcDbSpline
 70
8
 71
3
 72
8
 73
4
 74
0
 40
0
 40
0
 40
0
 40
0
 40
1
 40
1
 40
1
 40
1
 10
77.431876
 20
188.422270
 30
0.0
 10
77.456769
 20
188.877777
 30
0.0
 10
77.480416
 20
189.327063
 30
0.0
 10
77.502816
 20
189.770130
 30
0.0
  0
SPLINE
  5
289
100
AcDbEntity
  8
Plast_1
 62
7
100
AcDbSpline
 70
8
 71
3
 72
8
 73
4
 74
0
 40
0
 40
0
 40
0
 40
0
 40
1
 40
1
 40
1
 40
1
 10
77.502816
 20
189.770130
 30
0.0
 10
77.527709
 20
190.215683
 30
0.0
 10
77.551356
 20
190.651280
 30
0.0
 10
77.573756
 20
191.076920
 30
0.0
  0
SPLINE
  5
28a
100
AcDbEntity
  8
Plast_1
 62
7
100
AcDbSpline
 70
8
 71
3
 72
8
 73
4
 74
0
 40
0
 40
0
 40
0
 40
0
 40
1
 40
1
 40
1
 40
1
 10
77.573756
 20
191.076920
 30
0.0
 10
77.596156
 20
191.502560
 30
0.0
 10
77.617313
 20
191.909533
 30
0.0
 10
77.637226
 20
192.297840
 30
0.0
  0
SPLINE
  5
28b
100
AcDbEntity
  8
Plast_1
 62
7
100
AcDbSpline
 70
8
 71
3
 72
8
 73
4
 74
0
 40
0
 40
0
 40
0
 40
0
 40
1
 40
1
 40
1
 40
1
 10
77.637226
 20
192.297840
 30
0.0
 10
77.639693
 20
192.357573
 30
0.0
 10
77.657116
 20
192.408600
 30
0.0
 10
77.689496
 20
192.450920
 30
0.0
  0
SPLINE
  5
28c
100
AcDbEntity
  8
Plast_1
 62
7
100
AcDbSpline
 70
8
 71
3
 72
8
 73
4
 74
0
 40
0
 40
0
 40
0
 40
0
 40
1
 40
1
 40
1
 40
1
 10
77.689496
 20
192.450920
 30
0.0
 10
77.721856
 20
192.495720
 30
0.0
 10
77.762926
 20
192.530570
 30
0.0
 10
77.812707
 20
192.555470
 30
0.0
  0
SPLINE
  5
28d
100
AcDbEntity
  8
Plast_1
 62
7
100
AcDbSpline
 70
8
 71
3
 72
8
 73
4
 74
0
 40
0
 40
0
 40
0
 40
0
 40
1
 40
1
 40
1
 40
1
 10
77.812707
 20
192.555470
 30
0.0
 10
77.864980
 20
192.582870
 30
0.0
 10
77.923475
 20
192.602770
 30
0.0
 10
77.988191
 20
192.615170
 30
0.0
  0
SPLINE
  5
28e
100
AcDbEntity
  8
Plast_1
 62
7
100
AcDbSpline
 70
8
 71
3
 72
8
 73
4
 74
0
 40
0
 40
0
 40
0
 40
0
 40
1
 40
1
 40
1
 40
1
 10
77.988191
 20
192.615170
 30
0.0
 10
78.052911
 20
192.627637
 30
0.0
 10
78.120117
 20
192.633870
 30
0.0
 10
78.189810
 20
192.633870
 30
0.0
  0
SPLINE
  5
28f
100
AcDbEntity
  8
Plast_1
 62
7
100
AcDbSpline
 70
8
 71
3
 72
8
 73
4
 74
0
 40
0
 40
0
 40
0
 40
0
 40
1
 40
1
 40
1
 40
1
 10
78.189810
 20
192.633870
 30
0.0
 10
78.339158
 20
192.633870
 30
0.0
 10
78.495973
 20
192.594043
 30
0.0
 10
78.660255
 20
192.514390
 30
0.0
  0
SPLINE
  5
290
100
AcDbEntity
  8
Plast_1
 62
7
100
AcDbSpline
 70
8
 71
3
 72
8
 73
4
 74
0
 40
0
 40
0
 40
0
 40
0
 40
1
 40
1
 40
1
 40
1
 10
78.660255
 20
192.514390
 30
0.0
 10
78.603002
 20
192.004123
 30
0.0
 10
78.551975
 20
191.536170
 30
0.0
 10
78.507174
 20
191.110530
 30
0.0
  0
SPLINE
  5
291
100
AcDbEntity
  8
Plast_1
 62
7
100
AcDbSpline
 70
8
 71
3
 72
8
 73
4
 74
0
 40
0
 40
0
 40
0
 40
0
 40
1
 40
1
 40
1
 40
1
 10
78.507174
 20
191.110530
 30
0.0
 10
78.462367
 20
190.684890
 30
0.0
 10
78.421297
 20
190.289117
 30
0.0
 10
78.383962
 20
189.923210
 30
0.0
  0
SPLINE
  5
292
100
AcDbEntity
  8
Plast_1
 62
7
100
AcDbSpline
 70
8
 71
3
 72
8
 73
4
 74
0
 40
0
 40
0
 40
0
 40
0
 40
1
 40
1
 40
1
 40
1
 10
78.383962
 20
189.923210
 30
0.0
 10
78.349115
 20
189.559797
 30
0.0
 10
78.316755
 20
189.218787
 30
0.0
 10
78.286882
 20
188.900180
 30
0.0
  0
SPLINE
  5
293
100
AcDbEntity
  8
Plast_1
 62
7
100
AcDbSpline
 70
8
 71
3
 72
8
 73
4
 74
0
 40
0
 40
0
 40
0
 40
0
 40
1
 40
1
 40
1
 40
1
 10
78.286882
 20
188.900180
 30
0.0
 10
78.257015
 20
188.584060
 30
0.0
 10
78.229635
 20
188.280387
 30
0.0
 10
78.204742
 20
187.989160
 30
0.0
  0
SPLINE
  5
294
100
AcDbEntity
  8
Plast_1
 62
7
100
AcDbSpline
 70
8
 71
3
 72
8
 73
4
 74
0
 40
0
 40
0
 40
0
 40
0
 40
1
 40
1
 40
1
 40
1
 10
78.204742
 20
187.989160
 30
0.0
 10
78.182342
 20
187.700420
 30
0.0
 10
78.159939
 20
187.416660
 30
0.0
 10
78.137532
 20
187.137880
 30
0.0
  0
SPLINE
  5
295
100
AcDbEntity
  8
Plast_1
 62
7
100
AcDbSpline
 70
8
 71
3
 72
8
 73
4
 74
0
 40
0
 40
0
 40
0
 40
0
 40
1
 40
1
 40
1
 40
1
 10
78.137532
 20
187.137880
 30
0.0
 10
78.117619
 20
186.861587
 30
0.0
 10
78.097705
 20
186.580313
 30
0.0
 10
78.077792
 20
186.294060
 30
0.0
  0
SPLINE
  5
296
100
AcDbEntity
  8
Plast_1
 62
7
100
AcDbSpline
 70
8
 71
3
 72
8
 73
4
 74
0
 40
0
 40
0
 40
0
 40
0
 40
1
 40
1
 40
1
 40
1
 10
78.077792
 20
186.294060
 30
0.0
 10
78.057879
 20
186.007813
 30
0.0
 10
78.036722
 20
185.711610
 30
0.0
 10
78.014322
 20
185.405450
 30
0.0
  0
SPLINE
  5
297
100
AcDbEntity
  8
Plast_1
 62
7
100
AcDbSpline
 70
8
 71
3
 72
8
 73
4
 74
0
 40
0
 40
0
 40
0
 40
0
 40
1
 40
1
 40
1
 40
1
 10
78.014322
 20
185.405450
 30
0.0
 10
77.994409
 20
185.099283
 30
0.0
 10
77.972005
 20
184.770717
 30
0.0
 10
77.947112
 20
184.419750
 30
0.0
  0
LWPOLYLINE
  5
298
100
AcDbEntity
  8
Plast_1
 62
7
100
AcDbPolyline
 90
3
 70
0
 10
77.924721
 20
182.492920
 30
0.0
 10
77.170516
 20
182.395820
 30
0.0
 10
77.110776
 20
182.399820
 30
0.0
  0
SPLINE
  5
299
100
AcDbEntity
  8
Plast_1
 62
7
100
AcDbSpline
 70
8
 71
3
 72
8
 73
4
 74
0
 40
0
 40
0
 40
0
 40
0
 40
1
 40
1
 40
1
 40
1
 10
77.969512
 20
184.415750
 30
0.0
 10
78.059121
 20
184.711957
 30
0.0
 10
78.164909
 20
185.004430
 30
0.0
 10
78.286876
 20
185.293170
 30
0.0
  0
SPLINE
  5
29a
100
AcDbEntity
  8
Plast_1
 62
7
100
AcDbSpline
 70
8
 71
3
 72
8
 73
4
 74
0
 40
0
 40
0
 40
0
 40
0
 40
1
 40
1
 40
1
 40
1
 10
78.286876
 20
185.293170
 30
0.0
 10
78.408843
 20
185.581903
 30
0.0
 10
78.543256
 20
185.855707
 30
0.0
 10
78.690115
 20
186.114580
 30
0.0
  0
SPLINE
  5
29b
100
AcDbEntity
  8
Plast_1
 62
7
100
AcDbSpline
 70
8
 71
3
 72
8
 73
4
 74
0
 40
0
 40
0
 40
0
 40
0
 40
1
 40
1
 40
1
 40
1
 10
78.690115
 20
186.114580
 30
0.0
 10
78.836974
 20
186.375940
 30
0.0
 10
78.995033
 20
186.616140
 30
0.0
 10
79.164294
 20
186.835180
 30
0.0
  0
SPLINE
  5
29c
100
AcDbEntity
  8
Plast_1
 62
7
100
AcDbSpline
 70
8
 71
3
 72
8
 73
4
 74
0
 40
0
 40
0
 40
0
 40
0
 40
1
 40
1
 40
1
 40
1
 10
79.164294
 20
186.835180
 30
0.0
 10
79.333555
 20
187.056713
 30
0.0
 10
79.510283
 20
187.247130
 30
0.0
 10
79.694478
 20
187.406430
 30
0.0
  0
SPLINE
  5
29d
100
AcDbEntity
  8
Plast_1
 62
7
100
AcDbSpline
 70
8
 71
3
 72
8
 73
4
 74
0
 40
0
 40
0
 40
0
 40
0
 40
1
 40
1
 40
1
 40
1
 10
79.694478
 20
187.406430
 30
0.0
 10
79.878673
 20
187.565737
 30
0.0
 10
80.069092
 20
187.690193
 30
0.0
 10
80.265733
 20
187.779800
 30
0.0
  0
SPLINE
  5
29e
100
AcDbEntity
  8
Plast_1
 62
7
100
AcDbSpline
 70
8
 71
3
 72
8
 73
4
 74
0
 40
0
 40
0
 40
0
 40
0
 40
1
 40
1
 40
1
 40
1
 10
80.265733
 20
187.779800
 30
0.0
 10
80.462374
 20
187.871900
 30
0.0
 10
80.661504
 20
187.917950
 30
0.0
 10
80.863123
 20
187.917950
 30
0.0
  0
SPLINE
  5
29f
100
AcDbEntity
  8
Plast_1
 62
7
100
AcDbSpline
 70
8
 71
3
 72
8
 73
4
 74
0
 40
0
 40
0
 40
0
 40
0
 40
1
 40
1
 40
1
 40
1
 10
80.863123
 20
187.917950
 30
0.0
 10
80.990068
 20
187.917950
 30
0.0
 10
81.107057
 20
187.896783
 30
0.0
 10
81.214090
 20
187.854450
 30
0.0
  0
SPLINE
  5
2a0
100
AcDbEntity
  8
Plast_1
 62
7
100
AcDbSpline
 70
8
 71
3
 72
8
 73
4
 74
0
 40
0
 40
0
 40
0
 40
0
 40
1
 40
1
 40
1
 40
1
 10
81.214090
 20
187.854450
 30
0.0
 10
81.321123
 20
187.814650
 30
0.0
 10
81.413220
 20
187.756153
 30
0.0
 10
81.490383
 20
187.678960
 30
0.0
  0
SPLINE
  5
2a1
100
AcDbEntity
  8
Plast_1
 62
7
100
AcDbSpline
 70
8
 71
3
 72
8
 73
4
 74
0
 40
0
 40
0
 40
0
 40
0
 40
1
 40
1
 40
1
 40
1
 10
81.490383
 20
187.678960
 30
0.0
 10
81.570035
 20
187.604287
 30
0.0
 10
81.631019
 20
187.513433
 30
0.0
 10
81.673334
 20
187.406400
 30
0.0
  0
SPLINE
  5
2a2
100
AcDbEntity
  8
Plast_1
 62
7
100
AcDbSpline
 70
8
 71
3
 72
8
 73
4
 74
0
 40
0
 40
0
 40
0
 40
0
 40
1
 40
1
 40
1
 40
1
 10
81.673334
 20
187.406400
 30
0.0
 10
81.718141
 20
187.299373
 30
0.0
 10
81.740544
 20
187.179897
 30
0.0
 10
81.740544
 20
187.047970
 30
0.0
  0
SPLINE
  5
2a3
100
AcDbEntity
  8
Plast_1
 62
7
100
AcDbSpline
 70
8
 71
3
 72
8
 73
4
 74
0
 40
0
 40
0
 40
0
 40
0
 40
1
 40
1
 40
1
 40
1
 10
81.740544
 20
187.047970
 30
0.0
 10
81.740544
 20
186.841370
 30
0.0
 10
81.695740
 20
186.640997
 30
0.0
 10
81.606131
 20
186.446850
 30
0.0
  0
SPLINE
  5
2a4
100
AcDbEntity
  8
Plast_1
 62
7
100
AcDbSpline
 70
8
 71
3
 72
8
 73
4
 74
0
 40
0
 40
0
 40
0
 40
0
 40
1
 40
1
 40
1
 40
1
 10
81.606131
 20
186.446850
 30
0.0
 10
81.516522
 20
186.252697
 30
0.0
 10
81.389577
 20
186.066010
 30
0.0
 10
81.225294
 20
185.886790
 30
0.0
  0
SPLINE
  5
2a5
100
AcDbEntity
  8
Plast_1
 62
7
100
AcDbSpline
 70
8
 71
3
 72
8
 73
4
 74
0
 40
0
 40
0
 40
0
 40
0
 40
1
 40
1
 40
1
 40
1
 10
81.225294
 20
185.886790
 30
0.0
 10
81.061012
 20
185.707577
 30
0.0
 10
80.863126
 20
185.537073
 30
0.0
 10
80.631637
 20
185.375280
 30
0.0
  0
SPLINE
  5
2a6
100
AcDbEntity
  8
Plast_1
 62
7
100
AcDbSpline
 70
8
 71
3
 72
8
 73
4
 74
0
 40
0
 40
0
 40
0
 40
0
 40
1
 40
1
 40
1
 40
1
 10
80.631637
 20
185.375280
 30
0.0
 10
80.402638
 20
185.215973
 30
0.0
 10
80.147502
 20
185.067870
 30
0.0
 10
79.866231
 20
184.930970
 30
0.0
  0
SPLINE
  5
2a7
100
AcDbEntity
  8
Plast_1
 62
7
100
AcDbSpline
 70
8
 71
3
 72
8
 73
4
 74
0
 40
0
 40
0
 40
0
 40
0
 40
1
 40
1
 40
1
 40
1
 10
79.866231
 20
184.930970
 30
0.0
 10
80.033002
 20
184.624803
 30
0.0
 10
80.182350
 20
184.362200
 30
0.0
 10
80.314274
 20
184.143160
 30
0.0
  0
SPLINE
  5
2a8
100
AcDbEntity
  8
Plast_1
 62
7
100
AcDbSpline
 70
8
 71
3
 72
8
 73
4
 74
0
 40
0
 40
0
 40
0
 40
0
 40
1
 40
1
 40
1
 40
1
 10
80.314274
 20
184.143160
 30
0.0
 10
80.448687
 20
183.926607
 30
0.0
 10
80.569409
 20
183.743657
 30
0.0
 10
80.676442
 20
183.594310
 30
0.0
  0
SPLINE
  5
2a9
100
AcDbEntity
  8
Plast_1
 62
7
100
AcDbSpline
 70
8
 71
3
 72
8
 73
4
 74
0
 40
0
 40
0
 40
0
 40
0
 40
1
 40
1
 40
1
 40
1
 10
80.676442
 20
183.594310
 30
0.0
 10
80.785963
 20
183.447450
 30
0.0
 10
80.884284
 20
183.330460
 30
0.0
 10
80.971403
 20
183.243340
 30
0.0
  0
SPLINE
  5
2aa
100
AcDbEntity
  8
Plast_1
 62
7
100
AcDbSpline
 70
8
 71
3
 72
8
 73
4
 74
0
 40
0
 40
0
 40
0
 40
0
 40
1
 40
1
 40
1
 40
1
 10
80.971403
 20
183.243340
 30
0.0
 10
81.058522
 20
183.156220
 30
0.0
 10
81.138175
 20
183.090257
 30
0.0
 10
81.210360
 20
183.045450
 30
0.0
  0
SPLINE
  5
2ab
100
AcDbEntity
  8
Plast_1
 62
7
100
AcDbSpline
 70
8
 71
3
 72
8
 73
4
 74
0
 40
0
 40
0
 40
0
 40
0
 40
1
 40
1
 40
1
 40
1
 10
81.210360
 20
183.045450
 30
0.0
 10
81.285033
 20
183.000650
 30
0.0
 10
81.354729
 20
182.970783
 30
0.0
 10
81.419446
 20
182.955850
 30
0.0
  0
SPLINE
  5
2ac
100
AcDbEntity
  8
Plast_1
 62
7
100
AcDbSpline
 70
8
 71
3
 72
8
 73
4
 74
0
 40
0
 40
0
 40
0
 40
0
 40
1
 40
1
 40
1
 40
1
 10
81.419446
 20
182.955850
 30
0.0
 10
81.484166
 20
182.943383
 30
0.0
 10
81.548883
 20
182.937150
 30
0.0
 10
81.613598
 20
182.937150
 30
0.0
  0
SPLINE
  5
2ad
100
AcDbEntity
  8
Plast_1
 62
7
100
AcDbSpline
 70
8
 71
3
 72
8
 73
4
 74
0
 40
0
 40
0
 40
0
 40
0
 40
1
 40
1
 40
1
 40
1
 10
81.613598
 20
182.937150
 30
0.0
 10
81.743033
 20
182.937150
 30
0.0
 10
81.877446
 20
182.957050
 30
0.0
 10
82.016837
 20
182.996850
 30
0.0
  0
SPLINE
  5
2ae
100
AcDbEntity
  8
Plast_1
 62
7
100
AcDbSpline
 70
8
 71
3
 72
8
 73
4
 74
0
 40
0
 40
0
 40
0
 40
0
 40
1
 40
1
 40
1
 40
1
 10
82.016837
 20
182.996850
 30
0.0
 10
82.156228
 20
183.036650
 30
0.0
 10
82.296864
 20
183.088920
 30
0.0
 10
82.438744
 20
183.153660
 30
0.0
  0
LWPOLYLINE
  5
2af
100
AcDbEntity
  8
Plast_1
 62
7
100
AcDbPolyline
 90
2
 70
0
 10
77.947112
 20
184.419750
 30
0.0
 10
77.969512
 20
184.415750
 30
0.0
  0
SPLINE
  5
2b0
100
AcDbEntity
  8
Plast_1
 62
7
100
AcDbSpline
 70
8
 71
3
 72
8
 73
4
 74
0
 40
0
 40
0
 40
0
 40
0
 40
1
 40
1
 40
1
 40
1
 10
82.509684
 20
182.959510
 30
0.0
 10
82.420075
 20
182.887323
 30
0.0
 10
82.306820
 20
182.813893
 30
0.0
 10
82.169918
 20
182.739220
 30
0.0
  0
SPLINE
  5
2b1
100
AcDbEntity
  8
Plast_1
 62
7
100
AcDbSpline
 70
8
 71
3
 72
8
 73
4
 74
0
 40
0
 40
0
 40
0
 40
0
 40
1
 40
1
 40
1
 40
1
 10
82.169918
 20
182.739220
 30
0.0
 10
82.033016
 20
182.664547
 30
0.0
 10
81.887402
 20
182.596097
 30
0.0
 10
81.733076
 20
182.533870
 30
0.0
  0
SPLINE
  5
2b2
100
AcDbEntity
  8
Plast_1
 62
7
100
AcDbSpline
 70
8
 71
3
 72
8
 73
4
 74
0
 40
0
 40
0
 40
0
 40
0
 40
1
 40
1
 40
1
 40
1
 10
81.733076
 20
182.533870
 30
0.0
 10
81.581239
 20
182.471670
 30
0.0
 10
81.429403
 20
182.421887
 30
0.0
 10
81.277566
 20
182.384520
 30
0.0
  0
SPLINE
  5
2b3
100
AcDbEntity
  8
Plast_1
 62
7
100
AcDbSpline
 70
8
 71
3
 72
8
 73
4
 74
0
 40
0
 40
0
 40
0
 40
0
 40
1
 40
1
 40
1
 40
1
 10
81.277566
 20
182.384520
 30
0.0
 10
81.128218
 20
182.344720
 30
0.0
 10
80.996294
 20
182.324820
 30
0.0
 10
80.881795
 20
182.324820
 30
0.0
  0
SPLINE
  5
2b4
100
AcDbEntity
  8
Plast_1
 62
7
100
AcDbSpline
 70
8
 71
3
 72
8
 73
4
 74
0
 40
0
 40
0
 40
0
 40
0
 40
1
 40
1
 40
1
 40
1
 10
80.881795
 20
182.324820
 30
0.0
 10
80.747382
 20
182.324820
 30
0.0
 10
80.612969
 20
182.374603
 30
0.0
 10
80.478556
 20
182.474170
 30
0.0
  0
SPLINE
  5
2b5
100
AcDbEntity
  8
Plast_1
 62
7
100
AcDbSpline
 70
8
 71
3
 72
8
 73
4
 74
0
 40
0
 40
0
 40
0
 40
0
 40
1
 40
1
 40
1
 40
1
 10
80.478556
 20
182.474170
 30
0.0
 10
80.346632
 20
182.571243
 30
0.0
 10
80.203507
 20
182.723080
 30
0.0
 10
80.049182
 20
182.929680
 30
0.0
  0
SPLINE
  5
2b6
100
AcDbEntity
  8
Plast_1
 62
7
100
AcDbSpline
 70
8
 71
3
 72
8
 73
4
 74
0
 40
0
 40
0
 40
0
 40
0
 40
1
 40
1
 40
1
 40
1
 10
80.049182
 20
182.929680
 30
0.0
 10
79.897345
 20
183.136280
 30
0.0
 10
79.729328
 20
183.397637
 30
0.0
 10
79.545133
 20
183.713750
 30
0.0
  0
SPLINE
  5
2b7
100
AcDbEntity
  8
Plast_1
 62
7
100
AcDbSpline
 70
8
 71
3
 72
8
 73
4
 74
0
 40
0
 40
0
 40
0
 40
0
 40
1
 40
1
 40
1
 40
1
 10
79.545133
 20
183.713750
 30
0.0
 10
79.360938
 20
184.032363
 30
0.0
 10
79.149362
 20
184.411957
 30
0.0
 10
78.910406
 20
184.852530
 30
0.0
  0
LWPOLYLINE
  5
2b8
100
AcDbEntity
  8
Plast_1
 62
7
100
AcDbPolyline
 90
2
 70
0
 10
82.438744
 20
183.153660
 30
0.0
 10
82.509684
 20
182.959510
 30
0.0
  0
LWPOLYLINE
  5
2b9
100
AcDbEntity
  8
Plast_1
 62
7
100
AcDbPolyline
 90
2
 70
0
 10
78.910406
 20
184.852530
 30
0.0
 10
78.925349
 20
184.897390
 30
0.0
  0
SPLINE
  5
2ba
100
AcDbEntity
  8
Plast_1
 62
7
100
AcDbSpline
 70
8
 71
3
 72
8
 73
4
 74
0
 40
0
 40
0
 40
0
 40
0
 40
1
 40
1
 40
1
 40
1
 10
69.035156
 20
192.309632
 30
0.0
 10
68.993424
 20
192.309466
 30
0.0
 10
68.953474
 20
192.291610
 30
0.0
 10
68.924149
 20
192.260017
 30
0.0
  0
SPLINE
  5
2bb
100
AcDbEntity
  8
Plast_1
 62
7
100
AcDbSpline
 70
8
 71
3
 72
8
 73
4
 74
0
 40
0
 40
0
 40
0
 40
0
 40
1
 40
1
 40
1
 40
1
 10
68.924149
 20
192.260017
 30
0.0
 10
68.894824
 20
192.228423
 30
0.0
 10
68.878542
 20
192.185697
 30
0.0
 10
68.878906
 20
192.141295
 30
0.0
  0
LWPOLYLINE
  5
2bc
100
AcDbEntity
  8
Plast_1
 62
7
100
AcDbPolyline
 90
2
 70
0
 10
69.035104
 20
192.142231
 30
0.0
 10
69.035104
 20
181.787392
 30
0.0
  0
SPLINE
  5
2bd
100
AcDbEntity
  8
Plast_1
 62
7
100
AcDbSpline
 70
8
 71
3
 72
8
 73
4
 74
0
 40
0
 40
0
 40
0
 40
0
 40
1
 40
1
 40
1
 40
1
 10
68.878906
 20
191.474214
 30
0.0
 10
68.879231
 20
191.382539
 30
0.0
 10
68.948996
 20
191.308308
 30
0.0
 10
69.035156
 20
191.307962
 30
0.0
  0
SPLINE
  5
2be
100
AcDbEntity
  8
Plast_1
 62
7
100
AcDbSpline
 70
8
 71
3
 72
8
 73
4
 74
0
 40
0
 40
0
 40
0
 40
0
 40
1
 40
1
 40
1
 40
1
 10
69.035156
 20
191.307962
 30
0.0
 10
69.121316
 20
191.308308
 30
0.0
 10
69.191081
 20
191.382539
 30
0.0
 10
69.191406
 20
191.474214
 30
0.0
  0
LWPOLYLINE
  5
2bf
100
AcDbEntity
  8
Plast_1
 62
7
100
AcDbPolyline
 90
2
 70
0
 10
68.878906
 20
192.141295
 30
0.0
 10
68.878906
 20
191.474214
 30
0.0
  0
SPLINE
  5
2c0
100
AcDbEntity
  8
Plast_1
 62
7
100
AcDbSpline
 70
8
 71
3
 72
8
 73
4
 74
0
 40
0
 40
0
 40
0
 40
0
 40
1
 40
1
 40
1
 40
1
 10
69.191406
 20
192.141295
 30
0.0
 10
69.191770
 20
192.185697
 30
0.0
 10
69.175488
 20
192.228423
 30
0.0
 10
69.146163
 20
192.260017
 30
0.0
  0
SPLINE
  5
2c1
100
AcDbEntity
  8
Plast_1
 62
7
100
AcDbSpline
 70
8
 71
3
 72
8
 73
4
 74
0
 40
0
 40
0
 40
0
 40
0
 40
1
 40
1
 40
1
 40
1
 10
69.146163
 20
192.260017
 30
0.0
 10
69.116838
 20
192.291610
 30
0.0
 10
69.076888
 20
192.309466
 30
0.0
 10
69.035156
 20
192.309632
 30
0.0
  0
LWPOLYLINE
  5
2c2
100
AcDbEntity
  8
Plast_1
 62
7
100
AcDbPolyline
 90
2
 70
0
 10
69.191406
 20
191.474214
 30
0.0
 10
69.191406
 20
192.141295
 30
0.0
  0
SPLINE
  5
2c3
100
AcDbEntity
  8
Plast_1
 62
7
100
AcDbSpline
 70
8
 71
3
 72
8
 73
4
 74
0
 40
0
 40
0
 40
0
 40
0
 40
1
 40
1
 40
1
 40
1
 10
69.035156
 20
190.640881
 30
0.0
 10
68.993424
 20
190.640715
 30
0.0
 10
68.953474
 20
190.622859
 30
0.0
 10
68.924149
 20
190.591266
 30
0.0
  0
SPLINE
  5
2c4
100
AcDbEntity
  8
Plast_1
 62
7
100
AcDbSpline
 70
8
 71
3
 72
8
 73
4
 74
0
 40
0
 40
0
 40
0
 40
0
 40
1
 40
1
 40
1
 40
1
 10
68.924149
 20
190.591266
 30
0.0
 10
68.894824
 20
190.559673
 30
0.0
 10
68.878542
 20
190.516947
 30
0.0
 10
68.878906
 20
190.472544
 30
0.0
  0
LWPOLYLINE
  5
2c5
100
AcDbEntity
  8
Plast_1
 62
7
100
AcDbPolyline
 90
1
 70
1
 10
69.035156
 20
192.309632
 30
0.0
  0
SPLINE
  5
2c6
100
AcDbEntity
  8
Plast_1
 62
7
100
AcDbSpline
 70
8
 71
3
 72
8
 73
4
 74
0
 40
0
 40
0
 40
0
 40
0
 40
1
 40
1
 40
1
 40
1
 10
68.878906
 20
189.805463
 30
0.0
 10
68.879231
 20
189.713788
 30
0.0
 10
68.948996
 20
189.639557
 30
0.0
 10
69.035156
 20
189.639212
 30
0.0
  0
SPLINE
  5
2c7
100
AcDbEntity
  8
Plast_1
 62
7
100
AcDbSpline
 70
8
 71
3
 72
8
 73
4
 74
0
 40
0
 40
0
 40
0
 40
0
 40
1
 40
1
 40
1
 40
1
 10
69.035156
 20
189.639212
 30
0.0
 10
69.121316
 20
189.639557
 30
0.0
 10
69.191081
 20
189.713788
 30
0.0
 10
69.191406
 20
189.805463
 30
0.0
  0
LWPOLYLINE
  5
2c8
100
AcDbEntity
  8
Plast_1
 62
7
100
AcDbPolyline
 90
2
 70
0
 10
68.878906
 20
190.472544
 30
0.0
 10
68.878906
 20
189.805463
 30
0.0
  0
SPLINE
  5
2c9
100
AcDbEntity
  8
Plast_1
 62
7
100
AcDbSpline
 70
8
 71
3
 72
8
 73
4
 74
0
 40
0
 40
0
 40
0
 40
0
 40
1
 40
1
 40
1
 40
1
 10
69.191406
 20
190.472544
 30
0.0
 10
69.191770
 20
190.516947
 30
0.0
 10
69.175488
 20
190.559673
 30
0.0
 10
69.146163
 20
190.591266
 30
0.0
  0
SPLINE
  5
2ca
100
AcDbEntity
  8
Plast_1
 62
7
100
AcDbSpline
 70
8
 71
3
 72
8
 73
4
 74
0
 40
0
 40
0
 40
0
 40
0
 40
1
 40
1
 40
1
 40
1
 10
69.146163
 20
190.591266
 30
0.0
 10
69.116838
 20
190.622859
 30
0.0
 10
69.076888
 20
190.640715
 30
0.0
 10
69.035156
 20
190.640881
 30
0.0
  0
LWPOLYLINE
  5
2cb
100
AcDbEntity
  8
Plast_1
 62
7
100
AcDbPolyline
 90
2
 70
0
 10
69.191406
 20
189.805463
 30
0.0
 10
69.191406
 20
190.472544
 30
0.0
  0
SPLINE
  5
2cc
100
AcDbEntity
  8
Plast_1
 62
7
100
AcDbSpline
 70
8
 71
3
 72
8
 73
4
 74
0
 40
0
 40
0
 40
0
 40
0
 40
1
 40
1
 40
1
 40
1
 10
69.035156
 20
188.972130
 30
0.0
 10
68.993424
 20
188.971964
 30
0.0
 10
68.953474
 20
188.954109
 30
0.0
 10
68.924149
 20
188.922515
 30
0.0
  0
SPLINE
  5
2cd
100
AcDbEntity
  8
Plast_1
 62
7
100
AcDbSpline
 70
8
 71
3
 72
8
 73
4
 74
0
 40
0
 40
0
 40
0
 40
0
 40
1
 40
1
 40
1
 40
1
 10
68.924149
 20
188.922515
 30
0.0
 10
68.894824
 20
188.890922
 30
0.0
 10
68.878542
 20
188.848196
 30
0.0
 10
68.878906
 20
188.803793
 30
0.0
  0
LWPOLYLINE
  5
2ce
100
AcDbEntity
  8
Plast_1
 62
7
100
AcDbPolyline
 90
1
 70
1
 10
69.035156
 20
190.640881
 30
0.0
  0
SPLINE
  5
2cf
100
AcDbEntity
  8
Plast_1
 62
7
100
AcDbSpline
 70
8
 71
3
 72
8
 73
4
 74
0
 40
0
 40
0
 40
0
 40
0
 40
1
 40
1
 40
1
 40
1
 10
68.878906
 20
188.136712
 30
0.0
 10
68.879231
 20
188.045038
 30
0.0
 10
68.948996
 20
187.970807
 30
0.0
 10
69.035156
 20
187.970461
 30
0.0
  0
SPLINE
  5
2d0
100
AcDbEntity
  8
Plast_1
 62
7
100
AcDbSpline
 70
8
 71
3
 72
8
 73
4
 74
0
 40
0
 40
0
 40
0
 40
0
 40
1
 40
1
 40
1
 40
1
 10
69.035156
 20
187.970461
 30
0.0
 10
69.121316
 20
187.970807
 30
0.0
 10
69.191081
 20
188.045038
 30
0.0
 10
69.191406
 20
188.136712
 30
0.0
  0
LWPOLYLINE
  5
2d1
100
AcDbEntity
  8
Plast_1
 62
7
100
AcDbPolyline
 90
2
 70
0
 10
68.878906
 20
188.803793
 30
0.0
 10
68.878906
 20
188.136712
 30
0.0
  0
SPLINE
  5
2d2
100
AcDbEntity
  8
Plast_1
 62
7
100
AcDbSpline
 70
8
 71
3
 72
8
 73
4
 74
0
 40
0
 40
0
 40
0
 40
0
 40
1
 40
1
 40
1
 40
1
 10
69.191406
 20
188.803793
 30
0.0
 10
69.191770
 20
188.848196
 30
0.0
 10
69.175488
 20
188.890922
 30
0.0
 10
69.146163
 20
188.922515
 30
0.0
  0
SPLINE
  5
2d3
100
AcDbEntity
  8
Plast_1
 62
7
100
AcDbSpline
 70
8
 71
3
 72
8
 73
4
 74
0
 40
0
 40
0
 40
0
 40
0
 40
1
 40
1
 40
1
 40
1
 10
69.146163
 20
188.922515
 30
0.0
 10
69.116838
 20
188.954109
 30
0.0
 10
69.076888
 20
188.971964
 30
0.0
 10
69.035156
 20
188.972130
 30
0.0
  0
LWPOLYLINE
  5
2d4
100
AcDbEntity
  8
Plast_1
 62
7
100
AcDbPolyline
 90
2
 70
0
 10
69.191406
 20
188.136712
 30
0.0
 10
69.191406
 20
188.803793
 30
0.0
  0
SPLINE
  5
2d5
100
AcDbEntity
  8
Plast_1
 62
7
100
AcDbSpline
 70
8
 71
3
 72
8
 73
4
 74
0
 40
0
 40
0
 40
0
 40
0
 40
1
 40
1
 40
1
 40
1
 10
69.035156
 20
187.303380
 30
0.0
 10
68.993424
 20
187.303214
 30
0.0
 10
68.953474
 20
187.285358
 30
0.0
 10
68.924149
 20
187.253765
 30
0.0
  0
SPLINE
  5
2d6
100
AcDbEntity
  8
Plast_1
 62
7
100
AcDbSpline
 70
8
 71
3
 72
8
 73
4
 74
0
 40
0
 40
0
 40
0
 40
0
 40
1
 40
1
 40
1
 40
1
 10
68.924149
 20
187.253765
 30
0.0
 10
68.894824
 20
187.222171
 30
0.0
 10
68.878542
 20
187.179445
 30
0.0
 10
68.878906
 20
187.135043
 30
0.0
  0
LWPOLYLINE
  5
2d7
100
AcDbEntity
  8
Plast_1
 62
7
100
AcDbPolyline
 90
1
 70
1
 10
69.035156
 20
188.972130
 30
0.0
  0
SPLINE
  5
2d8
100
AcDbEntity
  8
Plast_1
 62
7
100
AcDbSpline
 70
8
 71
3
 72
8
 73
4
 74
0
 40
0
 40
0
 40
0
 40
0
 40
1
 40
1
 40
1
 40
1
 10
68.878906
 20
186.467962
 30
0.0
 10
68.879231
 20
186.376287
 30
0.0
 10
68.948996
 20
186.302056
 30
0.0
 10
69.035156
 20
186.301710
 30
0.0
  0
SPLINE
  5
2d9
100
AcDbEntity
  8
Plast_1
 62
7
100
AcDbSpline
 70
8
 71
3
 72
8
 73
4
 74
0
 40
0
 40
0
 40
0
 40
0
 40
1
 40
1
 40
1
 40
1
 10
69.035156
 20
186.301710
 30
0.0
 10
69.121316
 20
186.302056
 30
0.0
 10
69.191081
 20
186.376287
 30
0.0
 10
69.191406
 20
186.467962
 30
0.0
  0
LWPOLYLINE
  5
2da
100
AcDbEntity
  8
Plast_1
 62
7
100
AcDbPolyline
 90
2
 70
0
 10
68.878906
 20
187.135043
 30
0.0
 10
68.878906
 20
186.467962
 30
0.0
  0
SPLINE
  5
2db
100
AcDbEntity
  8
Plast_1
 62
7
100
AcDbSpline
 70
8
 71
3
 72
8
 73
4
 74
0
 40
0
 40
0
 40
0
 40
0
 40
1
 40
1
 40
1
 40
1
 10
69.191406
 20
187.135043
 30
0.0
 10
69.191770
 20
187.179445
 30
0.0
 10
69.175488
 20
187.222171
 30
0.0
 10
69.146163
 20
187.253765
 30
0.0
  0
SPLINE
  5
2dc
100
AcDbEntity
  8
Plast_1
 62
7
100
AcDbSpline
 70
8
 71
3
 72
8
 73
4
 74
0
 40
0
 40
0
 40
0
 40
0
 40
1
 40
1
 40
1
 40
1
 10
69.146163
 20
187.253765
 30
0.0
 10
69.116838
 20
187.285358
 30
0.0
 10
69.076888
 20
187.303214
 30
0.0
 10
69.035156
 20
187.303380
 30
0.0
  0
LWPOLYLINE
  5
2dd
100
AcDbEntity
  8
Plast_1
 62
7
100
AcDbPolyline
 90
2
 70
0
 10
69.191406
 20
186.467962
 30
0.0
 10
69.191406
 20
187.135043
 30
0.0
  0
SPLINE
  5
2de
100
AcDbEntity
  8
Plast_1
 62
7
100
AcDbSpline
 70
8
 71
3
 72
8
 73
4
 74
0
 40
0
 40
0
 40
0
 40
0
 40
1
 40
1
 40
1
 40
1
 10
69.035156
 20
185.634629
 30
0.0
 10
68.993424
 20
185.634463
 30
0.0
 10
68.953474
 20
185.616607
 30
0.0
 10
68.924149
 20
185.585014
 30
0.0
  0
SPLINE
  5
2df
100
AcDbEntity
  8
Plast_1
 62
7
100
AcDbSpline
 70
8
 71
3
 72
8
 73
4
 74
0
 40
0
 40
0
 40
0
 40
0
 40
1
 40
1
 40
1
 40
1
 10
68.924149
 20
185.585014
 30
0.0
 10
68.894824
 20
185.553420
 30
0.0
 10
68.878542
 20
185.510694
 30
0.0
 10
68.878906
 20
185.466292
 30
0.0
  0
LWPOLYLINE
  5
2e0
100
AcDbEntity
  8
Plast_1
 62
7
100
AcDbPolyline
 90
1
 70
1
 10
69.035156
 20
187.303380
 30
0.0
  0
SPLINE
  5
2e1
100
AcDbEntity
  8
Plast_1
 62
7
100
AcDbSpline
 70
8
 71
3
 72
8
 73
4
 74
0
 40
0
 40
0
 40
0
 40
0
 40
1
 40
1
 40
1
 40
1
 10
68.878906
 20
184.799211
 30
0.0
 10
68.879231
 20
184.707536
 30
0.0
 10
68.948996
 20
184.633305
 30
0.0
 10
69.035156
 20
184.632959
 30
0.0
  0
SPLINE
  5
2e2
100
AcDbEntity
  8
Plast_1
 62
7
100
AcDbSpline
 70
8
 71
3
 72
8
 73
4
 74
0
 40
0
 40
0
 40
0
 40
0
 40
1
 40
1
 40
1
 40
1
 10
69.035156
 20
184.632959
 30
0.0
 10
69.121316
 20
184.633305
 30
0.0
 10
69.191081
 20
184.707536
 30
0.0
 10
69.191406
 20
184.799211
 30
0.0
  0
LWPOLYLINE
  5
2e3
100
AcDbEntity
  8
Plast_1
 62
7
100
AcDbPolyline
 90
2
 70
0
 10
68.878906
 20
185.466292
 30
0.0
 10
68.878906
 20
184.799211
 30
0.0
  0
SPLINE
  5
2e4
100
AcDbEntity
  8
Plast_1
 62
7
100
AcDbSpline
 70
8
 71
3
 72
8
 73
4
 74
0
 40
0
 40
0
 40
0
 40
0
 40
1
 40
1
 40
1
 40
1
 10
69.191406
 20
185.466292
 30
0.0
 10
69.191770
 20
185.510694
 30
0.0
 10
69.175488
 20
185.553420
 30
0.0
 10
69.146163
 20
185.585014
 30
0.0
  0
SPLINE
  5
2e5
100
AcDbEntity
  8
Plast_1
 62
7
100
AcDbSpline
 70
8
 71
3
 72
8
 73
4
 74
0
 40
0
 40
0
 40
0
 40
0
 40
1
 40
1
 40
1
 40
1
 10
69.146163
 20
185.585014
 30
0.0
 10
69.116838
 20
185.616607
 30
0.0
 10
69.076888
 20
185.634463
 30
0.0
 10
69.035156
 20
185.634629
 30
0.0
  0
LWPOLYLINE
  5
2e6
100
AcDbEntity
  8
Plast_1
 62
7
100
AcDbPolyline
 90
2
 70
0
 10
69.191406
 20
184.799211
 30
0.0
 10
69.191406
 20
185.466292
 30
0.0
  0
SPLINE
  5
2e7
100
AcDbEntity
  8
Plast_1
 62
7
100
AcDbSpline
 70
8
 71
3
 72
8
 73
4
 74
0
 40
0
 40
0
 40
0
 40
0
 40
1
 40
1
 40
1
 40
1
 10
69.035156
 20
183.965878
 30
0.0
 10
68.993425
 20
183.965712
 30
0.0
 10
68.953477
 20
183.947858
 30
0.0
 10
68.924153
 20
183.916267
 30
0.0
  0
SPLINE
  5
2e8
100
AcDbEntity
  8
Plast_1
 62
7
100
AcDbSpline
 70
8
 71
3
 72
8
 73
4
 74
0
 40
0
 40
0
 40
0
 40
0
 40
1
 40
1
 40
1
 40
1
 10
68.924153
 20
183.916267
 30
0.0
 10
68.894828
 20
183.884676
 30
0.0
 10
68.878545
 20
183.841952
 30
0.0
 10
68.878906
 20
183.797552
 30
0.0
  0
LWPOLYLINE
  5
2e9
100
AcDbEntity
  8
Plast_1
 62
7
100
AcDbPolyline
 90
1
 70
1
 10
69.035156
 20
185.634629
 30
0.0
  0
SPLINE
  5
2ea
100
AcDbEntity
  8
Plast_1
 62
7
100
AcDbSpline
 70
8
 71
3
 72
8
 73
4
 74
0
 40
0
 40
0
 40
0
 40
0
 40
1
 40
1
 40
1
 40
1
 10
68.878906
 20
183.130460
 30
0.0
 10
68.879231
 20
183.038786
 30
0.0
 10
68.948996
 20
182.964554
 30
0.0
 10
69.035156
 20
182.964209
 30
0.0
  0
SPLINE
  5
2eb
100
AcDbEntity
  8
Plast_1
 62
7
100
AcDbSpline
 70
8
 71
3
 72
8
 73
4
 74
0
 40
0
 40
0
 40
0
 40
0
 40
1
 40
1
 40
1
 40
1
 10
69.035156
 20
182.964209
 30
0.0
 10
69.121316
 20
182.964554
 30
0.0
 10
69.191081
 20
183.038786
 30
0.0
 10
69.191406
 20
183.130460
 30
0.0
  0
LWPOLYLINE
  5
2ec
100
AcDbEntity
  8
Plast_1
 62
7
100
AcDbPolyline
 90
2
 70
0
 10
68.878906
 20
183.797552
 30
0.0
 10
68.878906
 20
183.130460
 30
0.0
  0
SPLINE
  5
2ed
100
AcDbEntity
  8
Plast_1
 62
7
100
AcDbSpline
 70
8
 71
3
 72
8
 73
4
 74
0
 40
0
 40
0
 40
0
 40
0
 40
1
 40
1
 40
1
 40
1
 10
69.191406
 20
183.797552
 30
0.0
 10
69.191767
 20
183.841952
 30
0.0
 10
69.175484
 20
183.884676
 30
0.0
 10
69.146159
 20
183.916267
 30
0.0
  0
SPLINE
  5
2ee
100
AcDbEntity
  8
Plast_1
 62
7
100
AcDbSpline
 70
8
 71
3
 72
8
 73
4
 74
0
 40
0
 40
0
 40
0
 40
0
 40
1
 40
1
 40
1
 40
1
 10
69.146159
 20
183.916267
 30
0.0
 10
69.116835
 20
183.947858
 30
0.0
 10
69.076887
 20
183.965712
 30
0.0
 10
69.035156
 20
183.965878
 30
0.0
  0
LWPOLYLINE
  5
2ef
100
AcDbEntity
  8
Plast_1
 62
7
100
AcDbPolyline
 90
2
 70
0
 10
69.191406
 20
183.130460
 30
0.0
 10
69.191406
 20
183.797552
 30
0.0
  0
SPLINE
  5
2f0
100
AcDbEntity
  8
Plast_1
 62
7
100
AcDbSpline
 70
8
 71
3
 72
8
 73
4
 74
0
 40
0
 40
0
 40
0
 40
0
 40
1
 40
1
 40
1
 40
1
 10
69.035156
 20
182.297128
 30
0.0
 10
68.993425
 20
182.296962
 30
0.0
 10
68.953477
 20
182.279107
 30
0.0
 10
68.924153
 20
182.247516
 30
0.0
  0
SPLINE
  5
2f1
100
AcDbEntity
  8
Plast_1
 62
7
100
AcDbSpline
 70
8
 71
3
 72
8
 73
4
 74
0
 40
0
 40
0
 40
0
 40
0
 40
1
 40
1
 40
1
 40
1
 10
68.924153
 20
182.247516
 30
0.0
 10
68.894828
 20
182.215925
 30
0.0
 10
68.878545
 20
182.173202
 30
0.0
 10
68.878906
 20
182.128801
 30
0.0
  0
LWPOLYLINE
  5
2f2
100
AcDbEntity
  8
Plast_1
 62
7
100
AcDbPolyline
 90
1
 70
1
 10
69.035156
 20
183.965878
 30
0.0
  0
SPLINE
  5
2f3
100
AcDbEntity
  8
Plast_1
 62
7
100
AcDbSpline
 70
8
 71
3
 72
8
 73
4
 74
0
 40
0
 40
0
 40
0
 40
0
 40
1
 40
1
 40
1
 40
1
 10
68.878906
 20
181.787978
 30
0.0
 10
68.878545
 20
181.743577
 30
0.0
 10
68.894828
 20
181.700854
 30
0.0
 10
68.924153
 20
181.669263
 30
0.0
  0
SPLINE
  5
2f4
100
AcDbEntity
  8
Plast_1
 62
7
100
AcDbSpline
 70
8
 71
3
 72
8
 73
4
 74
0
 40
0
 40
0
 40
0
 40
0
 40
1
 40
1
 40
1
 40
1
 10
68.924153
 20
181.669263
 30
0.0
 10
68.953477
 20
181.637671
 30
0.0
 10
68.993425
 20
181.619817
 30
0.0
 10
69.035156
 20
181.619651
 30
0.0
  0
SPLINE
  5
2f5
100
AcDbEntity
  8
Plast_1
 62
7
100
AcDbSpline
 70
8
 71
3
 72
8
 73
4
 74
0
 40
0
 40
0
 40
0
 40
0
 40
1
 40
1
 40
1
 40
1
 10
69.035156
 20
181.619651
 30
0.0
 10
69.076887
 20
181.619817
 30
0.0
 10
69.116835
 20
181.637671
 30
0.0
 10
69.146159
 20
181.669263
 30
0.0
  0
SPLINE
  5
2f6
100
AcDbEntity
  8
Plast_1
 62
7
100
AcDbSpline
 70
8
 71
3
 72
8
 73
4
 74
0
 40
0
 40
0
 40
0
 40
0
 40
1
 40
1
 40
1
 40
1
 10
69.146159
 20
181.669263
 30
0.0
 10
69.175484
 20
181.700854
 30
0.0
 10
69.191767
 20
181.743577
 30
0.0
 10
69.191406
 20
181.787978
 30
0.0
  0
LWPOLYLINE
  5
2f7
100
AcDbEntity
  8
Plast_1
 62
7
100
AcDbPolyline
 90
2
 70
0
 10
68.878906
 20
182.128801
 30
0.0
 10
68.878906
 20
181.787978
 30
0.0
  0
SPLINE
  5
2f8
100
AcDbEntity
  8
Plast_1
 62
7
100
AcDbSpline
 70
8
 71
3
 72
8
 73
4
 74
0
 40
0
 40
0
 40
0
 40
0
 40
1
 40
1
 40
1
 40
1
 10
69.191406
 20
182.128801
 30
0.0
 10
69.191767
 20
182.173202
 30
0.0
 10
69.175484
 20
182.215925
 30
0.0
 10
69.146159
 20
182.247516
 30
0.0
  0
SPLINE
  5
2f9
100
AcDbEntity
  8
Plast_1
 62
7
100
AcDbSpline
 70
8
 71
3
 72
8
 73
4
 74
0
 40
0
 40
0
 40
0
 40
0
 40
1
 40
1
 40
1
 40
1
 10
69.146159
 20
182.247516
 30
0.0
 10
69.116835
 20
182.279107
 30
0.0
 10
69.076887
 20
182.296962
 30
0.0
 10
69.035156
 20
182.297128
 30
0.0
  0
LWPOLYLINE
  5
2fa
100
AcDbEntity
  8
Plast_1
 62
7
100
AcDbPolyline
 90
2
 70
0
 10
69.191406
 20
181.787978
 30
0.0
 10
69.191406
 20
182.128801
 30
0.0
  0
SPLINE
  5
2fb
100
AcDbEntity
  8
Plast_1
 62
7
100
AcDbSpline
 70
8
 71
3
 72
8
 73
4
 74
0
 40
0
 40
0
 40
0
 40
0
 40
1
 40
1
 40
1
 40
1
 10
43.299948
 20
187.760890
 30
0.0
 10
43.482567
 20
187.760890
 30
0.0
 10
43.628216
 20
187.609410
 30
0.0
 10
43.628216
 20
187.417590
 30
0.0
  0
SPLINE
  5
2fc
100
AcDbEntity
  8
Plast_1
 62
7
100
AcDbSpline
 70
8
 71
3
 72
8
 73
4
 74
0
 40
0
 40
0
 40
0
 40
0
 40
1
 40
1
 40
1
 40
1
 10
43.628216
 20
187.417590
 30
0.0
 10
43.628216
 20
187.227440
 30
0.0
 10
43.482578
 20
187.071400
 30
0.0
 10
43.299948
 20
187.071400
 30
0.0
  0
SPLINE
  5
2fd
100
AcDbEntity
  8
Plast_1
 62
7
100
AcDbSpline
 70
8
 71
3
 72
8
 73
4
 74
0
 40
0
 40
0
 40
0
 40
0
 40
1
 40
1
 40
1
 40
1
 10
43.299948
 20
187.071400
 30
0.0
 10
43.120204
 20
187.071400
 30
0.0
 10
42.972830
 20
187.226360
 30
0.0
 10
42.972830
 20
187.417590
 30
0.0
  0
SPLINE
  5
2fe
100
AcDbEntity
  8
Plast_1
 62
7
100
AcDbSpline
 70
8
 71
3
 72
8
 73
4
 74
0
 40
0
 40
0
 40
0
 40
0
 40
1
 40
1
 40
1
 40
1
 10
42.972830
 20
187.417590
 30
0.0
 10
42.972830
 20
187.441190
 30
0.0
 10
42.981830
 20
187.461590
 30
0.0
 10
42.984370
 20
187.486990
 30
0.0
  0
SPLINE
  5
2ff
100
AcDbEntity
  8
Plast_1
 62
7
100
AcDbSpline
 70
8
 71
3
 72
8
 73
4
 74
0
 40
0
 40
0
 40
0
 40
0
 40
1
 40
1
 40
1
 40
1
 10
42.984370
 20
187.486990
 30
0.0
 10
42.869358
 20
187.314810
 30
0.0
 10
42.798853
 20
187.102650
 30
0.0
 10
42.798853
 20
186.876110
 30
0.0
  0
SPLINE
  5
300
100
AcDbEntity
  8
Plast_1
 62
7
100
AcDbSpline
 70
8
 71
3
 72
8
 73
4
 74
0
 40
0
 40
0
 40
0
 40
0
 40
1
 40
1
 40
1
 40
1
 10
42.798853
 20
186.876110
 30
0.0
 10
42.798853
 20
186.285440
 30
0.0
 10
43.253690
 20
185.809810
 30
0.0
 10
43.816603
 20
185.809810
 30
0.0
  0
SPLINE
  5
301
100
AcDbEntity
  8
Plast_1
 62
7
100
AcDbSpline
 70
8
 71
3
 72
8
 73
4
 74
0
 40
0
 40
0
 40
0
 40
0
 40
1
 40
1
 40
1
 40
1
 10
43.816603
 20
185.809810
 30
0.0
 10
44.376045
 20
185.809810
 30
0.0
 10
44.831465
 20
186.287180
 30
0.0
 10
44.831465
 20
186.876110
 30
0.0
  0
SPLINE
  5
302
100
AcDbEntity
  8
Plast_1
 62
7
100
AcDbSpline
 70
8
 71
3
 72
8
 73
4
 74
0
 40
0
 40
0
 40
0
 40
0
 40
1
 40
1
 40
1
 40
1
 10
44.831465
 20
186.876110
 30
0.0
 10
44.831465
 20
187.465010
 30
0.0
 10
44.376626
 20
187.942400
 30
0.0
 10
43.816603
 20
187.942400
 30
0.0
  0
SPLINE
  5
303
100
AcDbEntity
  8
Plast_1
 62
7
100
AcDbSpline
 70
8
 71
3
 72
8
 73
4
 74
0
 40
0
 40
0
 40
0
 40
0
 40
1
 40
1
 40
1
 40
1
 10
43.816603
 20
187.942400
 30
0.0
 10
43.599878
 20
187.942400
 30
0.0
 10
43.397022
 20
187.867300
 30
0.0
 10
43.235203
 20
187.745310
 30
0.0
  0
SPLINE
  5
304
100
AcDbEntity
  8
Plast_1
 62
7
100
AcDbSpline
 70
8
 71
3
 72
8
 73
4
 74
0
 40
0
 40
0
 40
0
 40
0
 40
1
 40
1
 40
1
 40
1
 10
43.235203
 20
187.745310
 30
0.0
 10
43.257203
 20
187.752310
 30
0.0
 10
43.277403
 20
187.761810
 30
0.0
 10
43.299903
 20
187.761810
 30
0.0
  0
LWPOLYLINE
  5
305
100
AcDbEntity
  8
Plast_1
 62
7
100
AcDbPolyline
 90
1
 70
1
 10
69.035156
 20
182.297128
 30
0.0
  0
SPLINE
  5
306
100
AcDbEntity
  8
Plast_1
 62
7
100
AcDbSpline
 70
8
 71
3
 72
8
 73
4
 74
0
 40
0
 40
0
 40
0
 40
0
 40
1
 40
1
 40
1
 40
1
 10
43.809114
 20
189.682550
 30
0.0
 10
43.791164
 20
189.671550
 30
0.0
 10
43.383751
 20
189.411480
 30
0.0
 10
42.969940
 20
188.930050
 30
0.0
  0
SPLINE
  5
307
100
AcDbEntity
  8
Plast_1
 62
7
100
AcDbSpline
 70
8
 71
3
 72
8
 73
4
 74
0
 40
0
 40
0
 40
0
 40
0
 40
1
 40
1
 40
1
 40
1
 10
42.969940
 20
188.930050
 30
0.0
 10
42.727206
 20
188.647440
 30
0.0
 10
42.532439
 20
188.346920
 30
0.0
 10
42.392579
 20
188.035990
 30
0.0
  0
SPLINE
  5
308
100
AcDbEntity
  8
Plast_1
 62
7
100
AcDbSpline
 70
8
 71
3
 72
8
 73
4
 74
0
 40
0
 40
0
 40
0
 40
0
 40
1
 40
1
 40
1
 40
1
 10
42.392579
 20
188.035990
 30
0.0
 10
42.217469
 20
187.647030
 30
0.0
 10
42.129037
 20
187.243620
 30
0.0
 10
42.129037
 20
186.834440
 30
0.0
  0
SPLINE
  5
309
100
AcDbEntity
  8
Plast_1
 62
7
100
AcDbSpline
 70
8
 71
3
 72
8
 73
4
 74
0
 40
0
 40
0
 40
0
 40
0
 40
1
 40
1
 40
1
 40
1
 10
42.129037
 20
186.834440
 30
0.0
 10
42.129037
 20
186.426430
 30
0.0
 10
42.217437
 20
186.025910
 30
0.0
 10
42.391430
 20
185.643310
 30
0.0
  0
SPLINE
  5
30a
100
AcDbEntity
  8
Plast_1
 62
7
100
AcDbSpline
 70
8
 71
3
 72
8
 73
4
 74
0
 40
0
 40
0
 40
0
 40
0
 40
1
 40
1
 40
1
 40
1
 10
42.391430
 20
185.643310
 30
0.0
 10
42.530126
 20
185.338730
 30
0.0
 10
42.724318
 20
185.045150
 30
0.0
 10
42.967051
 20
184.771790
 30
0.0
  0
SPLINE
  5
30b
100
AcDbEntity
  8
Plast_1
 62
7
100
AcDbSpline
 70
8
 71
3
 72
8
 73
4
 74
0
 40
0
 40
0
 40
0
 40
0
 40
1
 40
1
 40
1
 40
1
 10
42.967051
 20
184.771790
 30
0.0
 10
43.379123
 20
184.305970
 30
0.0
 10
43.785415
 20
184.061500
 30
0.0
 10
43.803335
 20
184.052810
 30
0.0
  0
LWPOLYLINE
  5
30c
100
AcDbEntity
  8
Plast_1
 62
7
100
AcDbPolyline
 90
2
 70
0
 10
43.299903
 20
187.761810
 30
0.0
 10
43.299948
 20
187.760890
 30
0.0
  0
SPLINE
  5
30d
100
AcDbEntity
  8
Plast_1
 62
7
100
AcDbSpline
 70
8
 71
3
 72
8
 73
4
 74
0
 40
0
 40
0
 40
0
 40
0
 40
1
 40
1
 40
1
 40
1
 10
43.858735
 20
184.054610
 30
0.0
 10
43.876685
 20
184.065610
 30
0.0
 10
44.280056
 20
184.319890
 30
0.0
 10
44.690968
 20
184.795520
 30
0.0
  0
SPLINE
  5
30e
100
AcDbEntity
  8
Plast_1
 62
7
100
AcDbSpline
 70
8
 71
3
 72
8
 73
4
 74
0
 40
0
 40
0
 40
0
 40
0
 40
1
 40
1
 40
1
 40
1
 10
44.690968
 20
184.795520
 30
0.0
 10
44.932542
 20
185.075240
 30
0.0
 10
45.125579
 20
185.372890
 30
0.0
 10
45.263710
 20
185.682080
 30
0.0
  0
SPLINE
  5
30f
100
AcDbEntity
  8
Plast_1
 62
7
100
AcDbSpline
 70
8
 71
3
 72
8
 73
4
 74
0
 40
0
 40
0
 40
0
 40
0
 40
1
 40
1
 40
1
 40
1
 10
45.263710
 20
185.682080
 30
0.0
 10
45.437665
 20
186.068150
 30
0.0
 10
45.526092
 20
186.471560
 30
0.0
 10
45.526092
 20
186.879580
 30
0.0
  0
SPLINE
  5
310
100
AcDbEntity
  8
Plast_1
 62
7
100
AcDbSpline
 70
8
 71
3
 72
8
 73
4
 74
0
 40
0
 40
0
 40
0
 40
0
 40
1
 40
1
 40
1
 40
1
 10
45.526092
 20
186.879580
 30
0.0
 10
45.526092
 20
187.287610
 30
0.0
 10
45.437692
 20
187.689280
 30
0.0
 10
45.265439
 20
188.074190
 30
0.0
  0
SPLINE
  5
311
100
AcDbEntity
  8
Plast_1
 62
7
100
AcDbSpline
 70
8
 71
3
 72
8
 73
4
 74
0
 40
0
 40
0
 40
0
 40
0
 40
1
 40
1
 40
1
 40
1
 10
45.265439
 20
188.074190
 30
0.0
 10
45.126744
 20
188.380490
 30
0.0
 10
44.935431
 20
188.676400
 30
0.0
 10
44.695588
 20
188.953220
 30
0.0
  0
SPLINE
  5
312
100
AcDbEntity
  8
Plast_1
 62
7
100
AcDbSpline
 70
8
 71
3
 72
8
 73
4
 74
0
 40
0
 40
0
 40
0
 40
0
 40
1
 40
1
 40
1
 40
1
 10
44.695588
 20
188.953220
 30
0.0
 10
44.286405
 20
189.423100
 30
0.0
 10
43.882433
 20
189.673350
 30
0.0
 10
43.866245
 20
189.683750
 30
0.0
  0
LWPOLYLINE
  5
313
100
AcDbEntity
  8
Plast_1
 62
7
100
AcDbPolyline
 90
3
 70
0
 10
43.803335
 20
184.052810
 30
0.0
 10
43.831035
 20
184.036310
 30
0.0
 10
43.858735
 20
184.054610
 30
0.0
  0
SPLINE
  5
314
100
AcDbEntity
  8
Plast_1
 62
7
100
AcDbSpline
 70
8
 71
3
 72
8
 73
4
 74
0
 40
0
 40
0
 40
0
 40
0
 40
1
 40
1
 40
1
 40
1
 10
44.582401
 20
188.756670
 30
0.0
 10
44.929737
 20
188.344610
 30
0.0
 10
45.337761
 20
187.748170
 30
0.0
 10
45.337761
 20
186.878950
 30
0.0
  0
SPLINE
  5
315
100
AcDbEntity
  8
Plast_1
 62
7
100
AcDbSpline
 70
8
 71
3
 72
8
 73
4
 74
0
 40
0
 40
0
 40
0
 40
0
 40
1
 40
1
 40
1
 40
1
 10
45.337761
 20
186.878950
 30
0.0
 10
45.337761
 20
186.011460
 30
0.0
 10
44.929737
 20
185.397700
 30
0.0
 10
44.582401
 20
184.980420
 30
0.0
  0
SPLINE
  5
316
100
AcDbEntity
  8
Plast_1
 62
7
100
AcDbSpline
 70
8
 71
3
 72
8
 73
4
 74
0
 40
0
 40
0
 40
0
 40
0
 40
1
 40
1
 40
1
 40
1
 10
44.582401
 20
184.980420
 30
0.0
 10
44.258172
 20
184.594940
 30
0.0
 10
43.922385
 20
184.291520
 30
0.0
 10
43.829921
 20
184.226790
 30
0.0
  0
SPLINE
  5
317
100
AcDbEntity
  8
Plast_1
 62
7
100
AcDbSpline
 70
8
 71
3
 72
8
 73
4
 74
0
 40
0
 40
0
 40
0
 40
0
 40
1
 40
1
 40
1
 40
1
 10
43.829921
 20
184.226790
 30
0.0
 10
43.735741
 20
184.288490
 30
0.0
 10
43.410340
 20
184.516910
 30
0.0
 10
43.086113
 20
184.893720
 30
0.0
  0
SPLINE
  5
318
100
AcDbEntity
  8
Plast_1
 62
7
100
AcDbSpline
 70
8
 71
3
 72
8
 73
4
 74
0
 40
0
 40
0
 40
0
 40
0
 40
1
 40
1
 40
1
 40
1
 10
43.086113
 20
184.893720
 30
0.0
 10
42.735876
 20
185.300010
 30
0.0
 10
42.317454
 20
185.968690
 30
0.0
 10
42.317454
 20
186.836180
 30
0.0
  0
SPLINE
  5
319
100
AcDbEntity
  8
Plast_1
 62
7
100
AcDbSpline
 70
8
 71
3
 72
8
 73
4
 74
0
 40
0
 40
0
 40
0
 40
0
 40
1
 40
1
 40
1
 40
1
 10
42.317454
 20
186.836180
 30
0.0
 10
42.317454
 20
187.703680
 30
0.0
 10
42.703519
 20
188.326690
 30
0.0
 10
43.072824
 20
188.756670
 30
0.0
  0
SPLINE
  5
31a
100
AcDbEntity
  8
Plast_1
 62
7
100
AcDbSpline
 70
8
 71
3
 72
8
 73
4
 74
0
 40
0
 40
0
 40
0
 40
0
 40
1
 40
1
 40
1
 40
1
 10
43.072824
 20
188.756670
 30
0.0
 10
43.416119
 20
189.154290
 30
0.0
 10
43.733978
 20
189.446150
 30
0.0
 10
43.828181
 20
189.512040
 30
0.0
  0
SPLINE
  5
31b
100
AcDbEntity
  8
Plast_1
 62
7
100
AcDbSpline
 70
8
 71
3
 72
8
 73
4
 74
0
 40
0
 40
0
 40
0
 40
0
 40
1
 40
1
 40
1
 40
1
 10
43.828181
 20
189.512040
 30
0.0
 10
43.921271
 20
189.447340
 30
0.0
 10
44.261063
 20
189.136390
 30
0.0
 10
44.582401
 20
188.756670
 30
0.0
  0
LWPOLYLINE
  5
31c
100
AcDbEntity
  8
Plast_1
 62
7
100
AcDbPolyline
 90
3
 70
0
 10
43.866245
 20
189.683750
 30
0.0
 10
43.838545
 20
189.702050
 30
0.0
 10
43.809114
 20
189.682550
 30
0.0
  0
LWPOLYLINE
  5
31d
100
AcDbEntity
  8
Plast_1
 62
7
100
AcDbPolyline
 90
1
 70
1
 10
44.582401
 20
188.756670
 30
0.0
  0
ENDSEC
  0
SECTION
  2
OBJECTS
  0
DICTIONARY
  5
C
330
0
100
AcDbDictionary
  3
ACAD_GROUP
350
D
  3
ACAD_MLINESTYLE
350
17
  0
DICTIONARY
  5
D
330
C
100
AcDbDictionary
  0
DICTIONARY
  5
1A
330
C
100
AcDbDictionary
  0
DICTIONARY
  5
17
330
C
100
AcDbDictionary
  3
STANDARD
350
18
  0
DICTIONARY
  5
19
330
C
100
AcDbDictionary
  0
ENDSEC
  0
EOF
