  0
SECTION
  2
HEADER
  9
$ACADVER
  1
AC1014
  9
$HANDSEED
  5
FFFF
  9
$MEASUREMENT
 70
     1
  0
ENDSEC
  0
SECTION
  2
TABLES
  0
TABLE
  2
VPORT
  5
8
330
0
100
AcDbSymbolTable
 70
     4
  0
VPORT
  5
2E
330
8
100
AcDbSymbolTableRecord
100
AcDbViewportTableRecord
  2
*ACTIVE
 70
     0
 10
0.0
 20
0.0
 11
1.0
 21
1.0
 12
210.0
 22
148.5
 13
0.0
 23
0.0
 14
10.0
 24
10.0
 15
10.0
 25
10.0
 16
0.0
 26
0.0
 36
1.0
 17
0.0
 27
0.0
 37
0.0
 40
341.0
 41
1.24
 42
50.0
 43
0.0
 44
0.0
 50
0.0
 51
0.0
 71
     0
 72
   100
 73
     1
 74
     3
 75
     0
 76
     0
 77
     0
 78
     0
  0
ENDTAB
  0
TABLE
  2
LTYPE
  5
5
330
0
100
AcDbSymbolTable
 70
     1
  0
LTYPE
  5
14
330
5
100
AcDbSymbolTableRecord
100
AcDbLinetypeTableRecord
  2
BYBLOCK
 70
     0
  3

 72
    65
 73
     0
 40
0.0
  0
LTYPE
  5
15
330
5
100
AcDbSymbolTableRecord
100
AcDbLinetypeTableRecord
  2
BYLAYER
 70
     0
  3

 72
    65
 73
     0
 40
0.0
  0
LTYPE
  5
16
330
5
100
AcDbSymbolTableRecord
100
AcDbLinetypeTableRecord
  2
CONTINUOUS
 70
     0
  3
Solid line
 72
    65
 73
     0
 40
0.0
  0
ENDTAB
  0
TABLE
  2
LAYER
  5
2
100
AcDbSymbolTable
 70
2
  0
LAYER
  5
50
100
AcDbSymbolTableRecord
100
AcDbLayerTableRecord
  2
0
 70
0
  6
CONTINUOUS
  0
LAYER
  5
51
100
AcDbSymbolTableRecord
100
AcDbLayerTableRecord
  2
Plast_1
 70
0
  6
CONTINUOUS
  0
ENDTAB
  0
TABLE
  2
STYLE
  5
3
330
0
100
AcDbSymbolTable
 70
     1
  0
STYLE
  5
11
330
3
100
AcDbSymbolTableRecord
100
AcDbTextStyleTableRecord
  2
STANDARD
 70
     0
 40
0.0
 41
1.0
 50
0.0
 71
     0
 42
2.5
  3
txt
  4

  0
ENDTAB
  0
TABLE
  2
VIEW
  5
6
330
0
100
AcDbSymbolTable
 70
     0
  0
ENDTAB
  0
TABLE
  2
UCS
  5
7
330
0
100
AcDbSymbolTable
 70
     0
  0
ENDTAB
  0
TABLE
  2
APPID
  5
9
330
0
100
AcDbSymbolTable
 70
     2
  0
APPID
  5
12
330
9
100
AcDbSymbolTableRecord
100
AcDbRegAppTableRecord
  2
ACAD
 70
     0
  0
ENDTAB
  0
TABLE
  2
DIMSTYLE
  5
A
330
0
100
AcDbSymbolTable
 70
     1
  0
DIMSTYLE
105
27
330
A
100
AcDbSymbolTableRecord
100
AcDbDimStyleTableRecord
  2
ISO-25
 70
     0
  3

  4

  5

  6

  7

 40
1.0
 41
2.5
 42
0.625
 43
3.75
 44
1.25
 45
0.0
 46
0.0
 47
0.0
 48
0.0
140
2.5
141
2.5
142
0.0
143
0.03937007874016
144
1.0
145
0.0
146
1.0
147
0.625
 71
     0
 72
     0
 73
     0
 74
     0
 75
     0
 76
     0
 77
     1
 78
     8
170
     0
171
     3
172
     1
173
     0
174
     0
175
     0
176
     0
177
     0
178
     0
270
     2
271
     2
272
     2
273
     2
274
     3
340
11
275
     0
280
     0
281
     0
282
     0
283
     0
284
     8
285
     0
286
     0
287
     3
288
     0
  0
ENDTAB
  0
TABLE
  2
BLOCK_RECORD
  5
1
330
0
100
AcDbSymbolTable
 70
     1
  0
BLOCK_RECORD
  5
1F
330
1
100
AcDbSymbolTableRecord
100
AcDbBlockTableRecord
  2
*MODEL_SPACE
  0
BLOCK_RECORD
  5
1B
330
1
100
AcDbSymbolTableRecord
100
AcDbBlockTableRecord
  2
*PAPER_SPACE
  0
ENDTAB
  0
ENDSEC
  0
SECTION
  2
BLOCKS
  0
BLOCK
  5
20
330
1F
100
AcDbEntity
  8
0
100
AcDbBlockBegin
  2
*MODEL_SPACE
 70
     0
 10
0.0
 20
0.0
 30
0.0
  3
*MODEL_SPACE
  1

  0
ENDBLK
  5
21
330
1F
100
AcDbEntity
  8
0
100
AcDbBlockEnd
  0
BLOCK
  5
1C
330
1B
100
AcDbEntity
 67
     1
  8
0
100
AcDbBlockBegin
  2
*PAPER_SPACE
  1

  0
ENDBLK
  5
1D
330
1B
100
AcDbEntity
 67
     1
  8
0
100
AcDbBlockEnd
  0
ENDSEC
  0
SECTION
  2
ENTITIES
  0
LWPOLYLINE
  5
100
100
AcDbEntity
  8
Plast_1
 62
7
100
AcDbPolyline
 90
2
 70
0
 10
195.690059
 20
542.859279
 30
0.0
 10
195.690059
 20
515.272791
 30
0.0
  0
LWPOLYLINE
  5
101
100
AcDbEntity
  8
Plast_1
 62
7
100
AcDbPolyline
 90
3
 70
1
 10
126.683473
 20
544.041191
 30
0.0
 10
122.221043
 20
544.041191
 30
0.0
 10
124.452258
 20
547.905770
 30
0.0
  0
LWPOLYLINE
  5
102
100
AcDbEntity
  8
Plast_1
 62
7
100
AcDbPolyline
 90
2
 70
0
 10
121.903940
 20
543.468546
 30
0.0
 10
126.975223
 20
543.468546
 30
0.0
  0
LWPOLYLINE
  5
103
100
AcDbEntity
  8
Plast_1
 62
7
100
AcDbPolyline
 90
3
 70
1
 10
118.614960
 20
542.674886
 30
0.0
 10
114.927417
 20
540.161859
 30
0.0
 10
114.594843
 20
544.611879
 30
0.0
  0
LWPOLYLINE
  5
104
100
AcDbEntity
  8
Plast_1
 62
7
100
AcDbPolyline
 90
2
 70
0
 10
114.987864
 20
539.510075
 30
0.0
 10
119.178534
 20
542.365978
 30
0.0
  0
LWPOLYLINE
  5
105
100
AcDbEntity
  8
Plast_1
 62
7
100
AcDbPolyline
 90
3
 70
1
 10
112.929852
 20
537.538746
 30
0.0
 10
110.918599
 20
533.555264
 30
0.0
 10
108.474428
 20
537.288802
 30
0.0
  0
LWPOLYLINE
  5
106
100
AcDbEntity
  8
Plast_1
 62
7
100
AcDbPolyline
 90
2
 70
0
 10
111.286862
 20
533.014099
 30
0.0
 10
113.572530
 20
537.541087
 30
0.0
  0
LWPOLYLINE
  5
107
100
AcDbEntity
  8
Plast_1
 62
7
100
AcDbPolyline
 90
3
 70
1
 10
110.485615
 20
530.692670
 30
0.0
 10
110.742819
 20
526.237656
 30
0.0
 10
106.756061
 20
528.242418
 30
0.0
  0
LWPOLYLINE
  5
108
100
AcDbEntity
  8
Plast_1
 62
7
100
AcDbPolyline
 90
2
 70
0
 10
111.332790
 20
525.954086
 30
0.0
 10
111.040493
 20
531.016941
 30
0.0
  0
LWPOLYLINE
  5
109
100
AcDbEntity
  8
Plast_1
 62
7
100
AcDbPolyline
 90
3
 70
1
 10
111.409279
 20
523.196467
 30
0.0
 10
113.291408
 20
519.150373
 30
0.0
 10
108.846322
 20
519.543449
 30
0.0
  0
LWPOLYLINE
  5
10a
100
AcDbEntity
  8
Plast_1
 62
7
100
AcDbPolyline
 90
2
 70
0
 10
113.944371
 20
519.104380
 30
0.0
 10
111.805446
 20
523.702523
 30
0.0
  0
LWPOLYLINE
  5
10b
100
AcDbEntity
  8
Plast_1
 62
7
100
AcDbPolyline
 90
3
 70
1
 10
115.561426
 20
516.961810
 30
0.0
 10
119.432571
 20
514.742010
 30
0.0
 10
115.574594
 20
512.499399
 30
0.0
  0
LWPOLYLINE
  5
10c
100
AcDbEntity
  8
Plast_1
 62
7
100
AcDbPolyline
 90
2
 70
0
 10
119.992514
 20
515.081037
 30
0.0
 10
115.593191
 20
517.603707
 30
0.0
  0
LWPOLYLINE
  5
10d
100
AcDbEntity
  8
Plast_1
 62
7
100
AcDbPolyline
 90
3
 70
1
 10
122.543073
 20
514.362176
 30
0.0
 10
126.983285
 20
514.806938
 30
0.0
 10
125.148354
 20
510.739220
 30
0.0
  0
LWPOLYLINE
  5
10e
100
AcDbEntity
  8
Plast_1
 62
7
100
AcDbPolyline
 90
2
 70
0
 10
127.241735
 20
515.408337
 30
0.0
 10
122.195702
 20
514.902892
 30
0.0
  0
ENDSEC
  0
SECTION
  2
OBJECTS
  0
DICTIONARY
  5
C
330
0
100
AcDbDictionary
  3
ACAD_GROUP
350
D
  3
ACAD_MLINESTYLE
350
17
  0
DICTIONARY
  5
D
330
C
100
AcDbDictionary
  0
DICTIONARY
  5
1A
330
C
100
AcDbDictionary
  0
DICTIONARY
  5
17
330
C
100
AcDbDictionary
  3
STANDARD
350
18
  0
DICTIONARY
  5
19
330
C
100
AcDbDictionary
  0
ENDSEC
  0
EOF
