<?xml version="1.0" encoding="UTF-8" standalone="no"?>
<!-- Created with Inkscape (http://www.inkscape.org/) -->

<svg
   width="210mm"
   height="297mm"
   viewBox="0 0 210 297"
   version="1.1"
   id="svg5"
   inkscape:version="1.2.1 (9c6d41e410, 2022-07-14)"
   sodipodi:docname="Logo chaclock.svg"
   inkscape:export-filename="Logo.svg"
   inkscape:export-xdpi="96"
   inkscape:export-ydpi="96"
   xml:space="preserve"
   xmlns:inkscape="http://www.inkscape.org/namespaces/inkscape"
   xmlns:sodipodi="http://sodipodi.sourceforge.net/DTD/sodipodi-0.dtd"
   xmlns="http://www.w3.org/2000/svg"
   xmlns:svg="http://www.w3.org/2000/svg"><sodipodi:namedview
     id="namedview7"
     pagecolor="#ffffff"
     bordercolor="#000000"
     borderopacity="0.25"
     inkscape:showpageshadow="2"
     inkscape:pageopacity="0.0"
     inkscape:pagecheckerboard="0"
     inkscape:deskcolor="#d1d1d1"
     inkscape:document-units="mm"
     showgrid="false"
     inkscape:zoom="4.2179991"
     inkscape:cx="229.25562"
     inkscape:cy="384.7796"
     inkscape:window-width="1920"
     inkscape:window-height="1017"
     inkscape:window-x="-8"
     inkscape:window-y="-8"
     inkscape:window-maximized="1"
     inkscape:current-layer="layer1" /><defs
     id="defs2" /><g
     inkscape:label="Plast 1"
     inkscape:groupmode="layer"
     id="layer1"><g
       aria-label="Chaclock"
       id="text63"
       style="font-size:15.2932px;stroke-width:1.27443"><path
         d="m 44.149748,105.72546 q 0.489113,0 0.903553,0.0896 0.418173,0.0896 0.720602,0.22029 0.302429,0.13068 0.474179,0.28002 0.17175,0.14935 0.17175,0.27256 0,0.25763 -0.01867,0.66833 -0.01867,0.41071 -0.04854,0.99317 l -0.324831,-0.0112 q 0.0037,-0.0523 0.0037,-0.0971 0.0037,-0.0485 0.0037,-0.10081 -0.0037,-0.25763 -0.05974,-0.48911 -0.05227,-0.23523 -0.194152,-0.44805 -0.149348,-0.21282 -0.358435,-0.3771 -0.205353,-0.16428 -0.451776,-0.27629 -0.246424,-0.11201 -0.526451,-0.16802 -0.280027,-0.0597 -0.571255,-0.0597 -0.500314,0 -0.91102,0.15682 -0.406973,0.15308 -0.72807,0.42937 -0.321097,0.27256 -0.560054,0.64966 -0.235222,0.37337 -0.392037,0.81395 -0.153082,0.44057 -0.231489,0.92595 -0.07467,0.48538 -0.07467,0.98196 0,0.58619 0.09708,1.10518 0.09708,0.51898 0.276293,0.95582 0.179217,0.43684 0.433108,0.78408 0.253891,0.34723 0.567521,0.58992 0.317364,0.23896 0.683266,0.3659 0.369635,0.12695 0.776608,0.12695 0.28376,0 0.582456,-0.0597 0.302429,-0.0635 0.612325,-0.19415 0.309896,-0.13442 0.623526,-0.33604 0.317364,-0.20535 0.630994,-0.48911 0.02987,0.0149 0.06721,0.0373 0.04107,0.0224 0.07467,0.0523 0.0336,0.0261 0.05601,0.0597 0.02614,0.0336 0.02614,0.0672 0,0.0224 -0.02987,0.0635 -0.365902,0.40324 -0.739271,0.6758 -0.373369,0.27256 -0.750472,0.44057 -0.377103,0.16802 -0.761673,0.23896 -0.380836,0.0747 -0.761673,0.0747 -0.504048,0 -0.963292,-0.14188 -0.45551,-0.13815 -0.847548,-0.3995 -0.392038,-0.26136 -0.709401,-0.631 -0.317364,-0.37337 -0.541386,-0.83634 -0.224021,-0.46298 -0.347233,-1.00437 -0.119478,-0.54512 -0.119478,-1.14997 0,-0.58246 0.115744,-1.16865 0.119479,-0.58992 0.350967,-1.12757 0.235223,-0.53766 0.58619,-1.00437 0.354701,-0.46671 0.825146,-0.81021 0.470445,-0.34723 1.060368,-0.54138 0.589923,-0.19789 1.299325,-0.19789 z"
         style="font-family:Gabriola;-inkscape-font-specification:Gabriola"
         id="path421" /><path
         d="m 48.424824,112.52451 q 0.287494,-0.94462 0.608592,-1.60175 0.324831,-0.65713 0.657129,-1.0641 0.336033,-0.41071 0.668331,-0.59366 0.332299,-0.18295 0.634728,-0.18295 0.209086,0 0.403238,0.0821 0.194152,0.0784 0.3435,0.24642 0.153081,0.16802 0.24269,0.43311 0.08961,0.26509 0.08961,0.63473 0,0.11201 -0.01493,0.30616 -0.0112,0.19042 -0.02987,0.42938 -0.01867,0.23522 -0.0448,0.49658 -0.0224,0.26136 -0.04107,0.51525 -0.01867,0.25389 -0.0336,0.48164 -0.0112,0.22776 -0.0112,0.39204 0,0.29123 0.0224,0.47418 0.02614,0.18295 0.08214,0.29123 0.05601,0.10454 0.149348,0.14561 0.09334,0.0373 0.227755,0.0373 0.194152,0 0.403239,-0.0523 0.209086,-0.056 0.421907,-0.15308 l 0.07094,0.19415 q -0.134413,0.10827 -0.339766,0.22029 -0.205353,0.11201 -0.433108,0.20535 -0.224022,0.0933 -0.448043,0.14935 -0.224022,0.0597 -0.395771,0.0597 -0.20162,0 -0.317364,-0.10828 -0.115745,-0.10828 -0.175484,-0.29496 -0.05601,-0.18669 -0.07467,-0.43685 -0.01494,-0.25015 -0.01494,-0.53765 0,-0.34723 0.0224,-0.71687 0.02614,-0.36963 0.05227,-0.7094 0.02987,-0.33976 0.05227,-0.61979 0.02614,-0.28376 0.02614,-0.45551 0,-0.41444 -0.160549,-0.61979 -0.160548,-0.20909 -0.433108,-0.20909 -0.21282,0 -0.45551,0.18295 -0.238956,0.18295 -0.477913,0.50405 -0.235222,0.31736 -0.45551,0.75421 -0.220288,0.4331 -0.395771,0.94089 -0.175484,0.50404 -0.291228,1.05663 -0.115745,0.55259 -0.145614,1.10517 l -0.795276,0.0971 -0.05974,-0.004 q 0.0224,-0.44058 0.04854,-0.97076 0.02987,-0.53392 0.05974,-1.13131 0.0336,-0.59739 0.06721,-1.24332 0.03734,-0.64966 0.07094,-1.32173 0.03734,-0.67206 0.07467,-1.35533 0.03734,-0.68326 0.07094,-1.34786 0.03734,-0.66833 0.07094,-1.30679 0.0336,-0.63846 0.06347,-1.22092 0.0037,-0.0896 0.05227,-0.15308 0.04854,-0.0672 0.123212,-0.10455 0.07841,-0.0411 0.175483,-0.0597 0.09708,-0.0187 0.201619,-0.0187 0.224022,0 0.470445,0.11948 -0.08587,0.76167 -0.153081,1.40013 -0.06721,0.63473 -0.123212,1.17985 -0.05227,0.54138 -0.09708,1.01183 -0.04107,0.47044 -0.07841,0.90355 -0.0336,0.42937 -0.06347,0.84008 -0.02987,0.41071 -0.05974,0.83635 -0.02987,0.4219 -0.06347,0.88115 -0.02987,0.45551 -0.06721,0.98196 z"
         style="font-family:Gabriola;-inkscape-font-specification:Gabriola"
         id="path423" /><path
         d="m 56.750955,110.66887 q 0,-0.29496 -0.09708,-0.51152 -0.09708,-0.21655 -0.253891,-0.3547 -0.156815,-0.13814 -0.3547,-0.20535 -0.197886,-0.0672 -0.395772,-0.0672 -0.265092,0 -0.448043,0.056 -0.182951,0.056 -0.298695,0.15308 -0.112011,0.0971 -0.164282,0.23149 -0.04854,0.13068 -0.04854,0.28376 0,0.17922 0.06347,0.36217 0.06721,0.17921 0.194152,0.35096 l -0.01493,0.0411 q -0.212821,0.10455 -0.429375,0.10455 -0.126945,0 -0.238956,-0.0373 -0.108277,-0.0411 -0.190418,-0.11574 -0.07841,-0.0747 -0.126946,-0.18295 -0.0448,-0.10828 -0.0448,-0.24269 0,-0.22029 0.104543,-0.41444 0.108277,-0.19416 0.283761,-0.3547 0.175483,-0.16055 0.406972,-0.2875 0.231489,-0.12694 0.477913,-0.21282 0.246423,-0.0896 0.492847,-0.13441 0.250157,-0.0485 0.462978,-0.0485 0.392037,0 0.66833,0.10454 0.280027,0.10455 0.451777,0.30617 0.175483,0.19788 0.253891,0.48164 0.08214,0.28376 0.08214,0.6422 0,0.24642 -0.0224,0.54138 -0.01867,0.29496 -0.0448,0.61979 -0.02614,0.3211 -0.04854,0.6646 -0.01867,0.3435 -0.01867,0.68327 0,0.53765 0.197886,0.81021 0.201619,0.26882 0.52645,0.26882 0.287495,0 0.642195,-0.21282 l 0.108277,0.16055 q -0.250157,0.25016 -0.545119,0.38084 -0.294961,0.13068 -0.619792,0.13068 -0.24269,0 -0.448043,-0.0821 -0.205353,-0.0821 -0.354701,-0.24269 -0.149348,-0.16429 -0.231489,-0.41071 -0.08214,-0.24642 -0.08214,-0.57125 0,-0.0971 0.0037,-0.19416 0.0075,-0.0971 0.02614,-0.20535 h -0.0224 q -0.160548,0.3211 -0.373369,0.63473 -0.209087,0.30989 -0.462978,0.55632 -0.250157,0.24269 -0.537651,0.39204 -0.283761,0.15308 -0.597391,0.15308 -0.257624,0 -0.470445,-0.0896 -0.21282,-0.0896 -0.365902,-0.24642 -0.149347,-0.15682 -0.235222,-0.36964 -0.08214,-0.21655 -0.08214,-0.47045 0,-0.32856 0.119478,-0.59739 0.123212,-0.26882 0.336032,-0.48164 0.216554,-0.21282 0.515249,-0.3659 0.298696,-0.15682 0.649663,-0.25763 0.350967,-0.10454 0.743004,-0.15308 0.392038,-0.0523 0.79901,-0.0523 0.02614,-0.23522 0.04107,-0.45551 0.01867,-0.22029 0.01867,-0.48538 z m -2.292486,2.56504 q 0,0.14562 0.02987,0.28003 0.0336,0.13068 0.10081,0.23149 0.07094,0.10081 0.175483,0.16055 0.108278,0.056 0.257625,0.056 0.168016,0 0.347233,-0.0784 0.179218,-0.0784 0.350967,-0.21656 0.175484,-0.13814 0.332299,-0.32856 0.160549,-0.19415 0.287494,-0.42191 0.126946,-0.22775 0.209087,-0.47791 0.08588,-0.25389 0.112011,-0.51899 -0.276293,0.007 -0.548853,0.0373 -0.272559,0.0261 -0.518983,0.0859 -0.24269,0.0597 -0.451777,0.15681 -0.209086,0.0971 -0.362168,0.24269 -0.149347,0.14188 -0.235222,0.33977 -0.08588,0.19415 -0.08588,0.45177 z"
         style="font-family:Gabriola;-inkscape-font-specification:Gabriola"
         id="path425" /><path
         d="m 62.202145,110.6726 q 0.104543,-0.20535 0.104543,-0.41817 0,-0.14562 -0.05227,-0.27256 -0.04854,-0.13068 -0.149348,-0.22776 -0.10081,-0.10081 -0.253891,-0.15681 -0.149348,-0.0597 -0.350967,-0.0597 -0.291228,0 -0.522717,0.10454 -0.231489,0.10081 -0.410706,0.28003 -0.175483,0.17922 -0.302429,0.41444 -0.123212,0.23522 -0.205353,0.50405 -0.07841,0.26882 -0.115744,0.55258 -0.03734,0.28003 -0.03734,0.54886 0,0.48164 0.123212,0.87741 0.126945,0.39204 0.339766,0.67207 0.21282,0.27629 0.49658,0.42937 0.283761,0.15308 0.604858,0.15308 0.339766,0 0.687,-0.17548 0.350967,-0.17922 0.679531,-0.57499 0.0224,0.0112 0.05601,0.0336 0.03734,0.0187 0.06721,0.0448 0.02987,0.0261 0.05227,0.0523 0.0224,0.0261 0.0224,0.0485 0,0.0149 -0.0037,0.0187 l -0.0075,0.0149 q -0.362168,0.58619 -0.86995,0.87742 -0.507782,0.29123 -1.11264,0.29123 -0.328565,0 -0.604858,-0.0933 -0.276293,-0.0896 -0.500315,-0.25016 -0.224021,-0.16428 -0.395771,-0.38457 -0.168016,-0.22402 -0.28376,-0.48165 -0.112011,-0.26136 -0.17175,-0.54512 -0.05601,-0.28749 -0.05601,-0.57872 0,-0.39204 0.08588,-0.78407 0.08588,-0.39577 0.250158,-0.75794 0.168016,-0.3659 0.403238,-0.67953 0.238956,-0.31737 0.537652,-0.54886 0.302429,-0.23522 0.664597,-0.3659 0.362168,-0.13441 0.772874,-0.13441 0.306163,0 0.571255,0.0747 0.265092,0.0747 0.45551,0.21282 0.194152,0.13442 0.302429,0.32857 0.112011,0.19042 0.112011,0.42564 0,0.15308 -0.04854,0.27256 -0.0448,0.11574 -0.130679,0.20162 -0.08214,0.0821 -0.197886,0.12694 -0.112011,0.0411 -0.246424,0.0411 -0.08214,0 -0.171749,-0.0149 -0.08588,-0.0187 -0.17175,-0.056 z"
         style="font-family:Gabriola;-inkscape-font-specification:Gabriola"
         id="path427" /><path
         d="m 65.599804,104.48588 q -0.07467,0.63472 -0.149348,1.30305 -0.07094,0.6646 -0.138146,1.34787 -0.06347,0.67953 -0.119478,1.36653 -0.05601,0.687 -0.09708,1.35533 -0.04107,0.66459 -0.06347,1.30679 -0.0224,0.64219 -0.0224,1.23212 0,0.36963 0.0075,0.63472 0.0112,0.2651 0.02987,0.44805 0.0224,0.18295 0.056,0.29496 0.03734,0.11201 0.08961,0.17175 0.05227,0.0597 0.123212,0.0821 0.07094,0.0187 0.168016,0.0187 0.179217,0 0.38457,-0.0523 0.209087,-0.056 0.421907,-0.15308 l 0.07094,0.19415 q -0.134413,0.10827 -0.339766,0.22029 -0.201619,0.11201 -0.425641,0.20535 -0.224021,0.0933 -0.440575,0.14935 -0.212821,0.0597 -0.369636,0.0597 -0.201619,0 -0.321097,-0.10455 -0.115745,-0.10081 -0.179217,-0.3323 -0.05974,-0.23149 -0.07841,-0.60112 -0.01494,-0.37337 -0.01494,-0.90729 0,-0.19415 0.0112,-0.55258 0.0112,-0.36217 0.02987,-0.84008 0.0224,-0.47792 0.04854,-1.04544 0.02614,-0.56752 0.056,-1.17238 0.02987,-0.60859 0.06347,-1.22465 0.0336,-0.61979 0.06721,-1.19478 0.0336,-0.57872 0.06347,-1.09024 0.02987,-0.51151 0.05601,-0.90355 0.0037,-0.0896 0.05227,-0.15308 0.04854,-0.0672 0.123212,-0.10455 0.07841,-0.0411 0.17175,-0.0597 0.09708,-0.0187 0.194152,-0.0187 0.224021,0 0.470445,0.11948 z"
         style="font-family:Gabriola;-inkscape-font-specification:Gabriola"
         id="path429" /><path
         d="m 66.701243,112.36023 q 0,-0.3771 0.07841,-0.76541 0.07841,-0.3883 0.231489,-0.75047 0.153081,-0.3659 0.377102,-0.68326 0.227756,-0.3211 0.522717,-0.56006 0.294962,-0.23895 0.65713,-0.3771 0.362168,-0.13815 0.787809,-0.13815 0.477912,0 0.843814,0.20162 0.369635,0.20162 0.619793,0.53392 0.250157,0.32857 0.377102,0.75047 0.13068,0.42191 0.13068,0.86249 0,0.3771 -0.07841,0.7654 -0.07841,0.38831 -0.235222,0.75421 -0.153082,0.36217 -0.380837,0.68326 -0.224021,0.31737 -0.518983,0.55632 -0.294962,0.23896 -0.65713,0.37711 -0.362168,0.13814 -0.787809,0.13814 -0.477912,0 -0.847547,-0.20162 -0.365902,-0.20162 -0.61606,-0.53018 -0.246423,-0.3323 -0.377102,-0.75421 -0.126946,-0.4219 -0.126946,-0.86248 z m 0.892352,-0.3547 q 0,0.25389 0.03734,0.51525 0.04107,0.26136 0.123212,0.50405 0.08214,0.24269 0.201619,0.45551 0.123212,0.20908 0.287495,0.3659 0.168016,0.15681 0.373369,0.24642 0.209086,0.0896 0.459244,0.0896 0.272559,0 0.477912,-0.11574 0.209087,-0.11948 0.358435,-0.31363 0.153081,-0.19415 0.250157,-0.44431 0.10081,-0.25016 0.160549,-0.51525 0.05974,-0.26883 0.08214,-0.53019 0.02614,-0.26135 0.02614,-0.48164 0,-0.25763 -0.04107,-0.51525 -0.03734,-0.26136 -0.119478,-0.50032 -0.08214,-0.24269 -0.205353,-0.45177 -0.119478,-0.21282 -0.287494,-0.3659 -0.164283,-0.15682 -0.373369,-0.24643 -0.205353,-0.0896 -0.455511,-0.0896 -0.272559,0 -0.481646,0.11575 -0.205353,0.11574 -0.358434,0.30989 -0.149348,0.19416 -0.250158,0.44431 -0.09708,0.25016 -0.156815,0.51525 -0.05974,0.2651 -0.08587,0.53019 -0.0224,0.26136 -0.0224,0.47791 z"
         style="font-family:Gabriola;-inkscape-font-specification:Gabriola"
         id="path431" /><path
         d="m 75.270064,110.6726 q 0.104543,-0.20535 0.104543,-0.41817 0,-0.14562 -0.05227,-0.27256 -0.04854,-0.13068 -0.149347,-0.22776 -0.10081,-0.10081 -0.253891,-0.15681 -0.149348,-0.0597 -0.350967,-0.0597 -0.291228,0 -0.522717,0.10454 -0.231489,0.10081 -0.410706,0.28003 -0.175484,0.17922 -0.302429,0.41444 -0.123212,0.23522 -0.205353,0.50405 -0.07841,0.26882 -0.115744,0.55258 -0.03734,0.28003 -0.03734,0.54886 0,0.48164 0.123211,0.87741 0.126946,0.39204 0.339766,0.67207 0.212821,0.27629 0.496581,0.42937 0.283761,0.15308 0.604858,0.15308 0.339766,0 0.686999,-0.17548 0.350967,-0.17922 0.679532,-0.57499 0.0224,0.0112 0.05601,0.0336 0.03734,0.0187 0.06721,0.0448 0.02987,0.0261 0.05227,0.0523 0.0224,0.0261 0.0224,0.0485 0,0.0149 -0.0037,0.0187 l -0.0075,0.0149 q -0.362168,0.58619 -0.86995,0.87742 -0.507782,0.29123 -1.11264,0.29123 -0.328565,0 -0.604858,-0.0933 -0.276293,-0.0896 -0.500315,-0.25016 -0.224021,-0.16428 -0.395771,-0.38457 -0.168016,-0.22402 -0.283761,-0.48165 -0.11201,-0.26136 -0.171749,-0.54512 -0.05601,-0.28749 -0.05601,-0.57872 0,-0.39204 0.08588,-0.78407 0.08588,-0.39577 0.250157,-0.75794 0.168016,-0.3659 0.403239,-0.67953 0.238956,-0.31737 0.537652,-0.54886 0.302429,-0.23522 0.664597,-0.3659 0.362168,-0.13441 0.772874,-0.13441 0.306162,0 0.571254,0.0747 0.265093,0.0747 0.455511,0.21282 0.194152,0.13442 0.302429,0.32857 0.112011,0.19042 0.112011,0.42564 0,0.15308 -0.04854,0.27256 -0.0448,0.11574 -0.13068,0.20162 -0.08214,0.0821 -0.197885,0.12694 -0.112011,0.0411 -0.246424,0.0411 -0.08214,0 -0.17175,-0.0149 -0.08588,-0.0187 -0.171749,-0.056 z"
         style="font-family:Gabriola;-inkscape-font-specification:Gabriola"
         id="path433" /><path
         d="m 78.925349,112.10261 q 0.448043,-0.14935 0.817679,-0.33977 0.369635,-0.19042 0.634727,-0.40697 0.268826,-0.21656 0.41444,-0.45551 0.145614,-0.23896 0.145614,-0.48912 0,-0.10454 -0.04107,-0.19041 -0.03734,-0.0896 -0.104543,-0.14935 -0.06347,-0.0635 -0.153081,-0.0971 -0.08588,-0.0336 -0.186685,-0.0336 -0.235222,0 -0.489113,0.14561 -0.250158,0.14562 -0.500315,0.42191 -0.246424,0.27629 -0.481646,0.6758 -0.235223,0.3995 -0.436842,0.90728 -0.201619,0.50779 -0.362168,1.11638 -0.160549,0.60859 -0.257625,1.29932 l -0.754205,0.0971 -0.05974,-0.004 q 0.0224,-0.44058 0.04854,-0.97076 0.02987,-0.53392 0.05974,-1.13131 0.0336,-0.59739 0.06721,-1.24332 0.03734,-0.64966 0.07094,-1.32173 0.03734,-0.67206 0.07467,-1.35533 0.03734,-0.68326 0.07094,-1.34786 0.03734,-0.66833 0.07094,-1.30679 0.0336,-0.63846 0.06347,-1.22092 0.0037,-0.0896 0.05227,-0.15308 0.04854,-0.0672 0.123211,-0.10455 0.07841,-0.0411 0.175484,-0.0597 0.09708,-0.0187 0.201619,-0.0187 0.224022,0 0.470445,0.11948 -0.08588,0.7654 -0.153081,1.40386 -0.06721,0.63846 -0.123212,1.18732 -0.05227,0.54512 -0.09708,1.02303 -0.0448,0.47418 -0.08214,0.91102 -0.0336,0.43311 -0.06721,0.85128 -0.02987,0.41444 -0.05974,0.84382 -0.02987,0.42937 -0.06347,0.88861 -0.02987,0.45925 -0.06721,0.9857 l 0.0224,0.004 q 0.134413,-0.44431 0.317364,-0.87742 0.182951,-0.4331 0.403239,-0.82141 0.220288,-0.39204 0.474179,-0.7206 0.253891,-0.3323 0.530184,-0.57125 0.276293,-0.23896 0.571255,-0.37337 0.294961,-0.13815 0.59739,-0.13815 0.190418,0 0.350967,0.0635 0.160549,0.0597 0.276293,0.17549 0.119478,0.11201 0.182951,0.27256 0.06721,0.16054 0.06721,0.35843 0,0.3099 -0.134413,0.60112 -0.134413,0.29123 -0.380837,0.56006 -0.246423,0.26882 -0.593657,0.51151 -0.343499,0.23896 -0.765406,0.44431 0.250157,0.45925 0.448043,0.78781 0.201619,0.32483 0.362168,0.54885 0.164282,0.22029 0.294961,0.35097 0.130679,0.13068 0.238957,0.19789 0.11201,0.0672 0.209086,0.0896 0.09708,0.0187 0.194152,0.0187 0.194152,0 0.403239,-0.0597 0.209087,-0.0597 0.421907,-0.15681 l 0.07094,0.19415 q -0.134413,0.10828 -0.339766,0.22029 -0.205353,0.11201 -0.436842,0.20535 -0.227755,0.0933 -0.45551,0.14935 -0.224022,0.0597 -0.395771,0.0597 -0.20162,0 -0.403239,-0.14935 -0.197886,-0.14561 -0.429374,-0.45551 -0.227756,-0.3099 -0.504049,-0.78407 -0.276293,-0.47792 -0.634727,-1.13878 z"
         style="font-family:Gabriola;-inkscape-font-specification:Gabriola"
         id="path435" /></g><g
       id="path5558"
       transform="matrix(1,0,0,1.0640144,0,-7.3860384)"><path
         style="color:#000000;fill:#000000;stroke-width:0.313685;stroke-linecap:round;stroke-dasharray:0.62737, 0.941055;-inkscape-stroke:none"
         d="m 69.035104,105.49131 v 9.7319"
         id="path540" /><path
         style="color:#000000;fill:#000000;stroke-linecap:round;stroke-dasharray:0.62737, 0.941055;-inkscape-stroke:none"
         d="m 69.035156,105.33398 a 0.1568425,0.1568425 0 0 0 -0.15625,0.15821 v 0.62695 a 0.1568425,0.1568425 0 0 0 0.15625,0.15625 0.1568425,0.1568425 0 0 0 0.15625,-0.15625 v -0.62695 a 0.1568425,0.1568425 0 0 0 -0.15625,-0.15821 z m 0,1.56836 a 0.1568425,0.1568425 0 0 0 -0.15625,0.15821 v 0.62695 a 0.1568425,0.1568425 0 0 0 0.15625,0.15625 0.1568425,0.1568425 0 0 0 0.15625,-0.15625 v -0.62695 a 0.1568425,0.1568425 0 0 0 -0.15625,-0.15821 z m 0,1.56836 a 0.1568425,0.1568425 0 0 0 -0.15625,0.15821 v 0.62695 a 0.1568425,0.1568425 0 0 0 0.15625,0.15625 0.1568425,0.1568425 0 0 0 0.15625,-0.15625 v -0.62695 a 0.1568425,0.1568425 0 0 0 -0.15625,-0.15821 z m 0,1.56836 a 0.1568425,0.1568425 0 0 0 -0.15625,0.15821 v 0.62695 a 0.1568425,0.1568425 0 0 0 0.15625,0.15625 0.1568425,0.1568425 0 0 0 0.15625,-0.15625 v -0.62695 a 0.1568425,0.1568425 0 0 0 -0.15625,-0.15821 z m 0,1.56836 a 0.1568425,0.1568425 0 0 0 -0.15625,0.15821 v 0.62695 a 0.1568425,0.1568425 0 0 0 0.15625,0.15625 0.1568425,0.1568425 0 0 0 0.15625,-0.15625 v -0.62695 a 0.1568425,0.1568425 0 0 0 -0.15625,-0.15821 z m 0,1.56836 a 0.1568425,0.1568425 0 0 0 -0.15625,0.1582 v 0.62696 a 0.1568425,0.1568425 0 0 0 0.15625,0.15625 0.1568425,0.1568425 0 0 0 0.15625,-0.15625 v -0.62696 a 0.1568425,0.1568425 0 0 0 -0.15625,-0.1582 z m 0,1.56836 a 0.1568425,0.1568425 0 0 0 -0.15625,0.1582 v 0.32032 a 0.1568425,0.1568425 0 0 0 0.15625,0.1582 0.1568425,0.1568425 0 0 0 0.15625,-0.1582 v -0.32032 a 0.1568425,0.1568425 0 0 0 -0.15625,-0.1582 z"
         id="path542" /></g><path
       d="m 43.299948,109.23911 c 0.182619,0 0.328268,0.15148 0.328268,0.3433 0,0.19015 -0.145638,0.34619 -0.328268,0.34619 -0.179744,0 -0.327118,-0.15496 -0.327118,-0.34619 0,-0.0236 0.009,-0.044 0.01154,-0.0694 -0.115012,0.17218 -0.185517,0.38434 -0.185517,0.61088 0,0.59067 0.454837,1.0663 1.01775,1.0663 0.559442,0 1.014862,-0.47737 1.014862,-1.0663 0,-0.5889 -0.454839,-1.06629 -1.014862,-1.06629 -0.216725,0 -0.419581,0.0751 -0.5814,0.19709 0.022,-0.007 0.0422,-0.0165 0.0647,-0.0165 z m 0.509166,-1.92166 c -0.01795,0.011 -0.425363,0.27107 -0.839174,0.7525 -0.242734,0.28261 -0.437501,0.58313 -0.577361,0.89406 -0.17511,0.38896 -0.263542,0.79237 -0.263542,1.20155 0,0.40801 0.0884,0.80853 0.262393,1.19113 0.138696,0.30458 0.332888,0.59816 0.575621,0.87152 0.412072,0.46582 0.818364,0.71029 0.836284,0.71898 l 0.0277,0.0165 0.0277,-0.0183 c 0.01795,-0.011 0.421321,-0.26528 0.832233,-0.74091 0.241574,-0.27972 0.434611,-0.57737 0.572742,-0.88656 0.173955,-0.38607 0.262382,-0.78948 0.262382,-1.1975 0,-0.40803 -0.0884,-0.8097 -0.260653,-1.19461 -0.138695,-0.3063 -0.330008,-0.60221 -0.569851,-0.87903 -0.409183,-0.46988 -0.813155,-0.72013 -0.829343,-0.73053 l -0.0277,-0.0183 z m 0.773287,0.92588 c 0.347336,0.41206 0.75536,1.0085 0.75536,1.87772 0,0.86749 -0.408024,1.48125 -0.75536,1.89853 -0.324229,0.38548 -0.660016,0.6889 -0.75248,0.75363 -0.09418,-0.0617 -0.419581,-0.29012 -0.743808,-0.66693 -0.350237,-0.40629 -0.768659,-1.07497 -0.768659,-1.94246 0,-0.8675 0.386065,-1.49051 0.75537,-1.92049 0.343295,-0.39762 0.661154,-0.68948 0.755357,-0.75537 0.09309,0.0647 0.432882,0.37565 0.75422,0.75537 z"
       id="path937"
       style="stroke-width:0.00577938" /></g></svg>
