999
"DXF R12 Output" (www.mydxf.blogspot.com)
 0 
SECTION
 2 
HEADER
 9 
$ACADVER
 1 
AC1009
 9 
$EXTMIN
 10 
 0 
 20 
 0 
 9 
$EXTMAX
 10 
 8.5 
 20 
 11 
 0 
ENDSEC
 0 
SECTION
 2 
ENTITIES
0
LINE
8
Layer 1
10
44.149700
20
191.275000
11
45.053253
21
191.185400
0
LINE
8
Layer 1
10
45.053253
20
191.185400
11
45.773855
21
190.965110
0
LINE
8
Layer 1
10
45.773855
20
190.965110
11
46.248034
21
190.685090
0
LINE
8
Layer 1
10
46.248034
20
190.685090
11
46.419784
21
190.412530
0
LINE
8
Layer 1
10
46.419784
20
190.412530
11
46.401114
21
189.744200
0
LINE
8
Layer 1
10
46.401114
20
189.744200
11
46.352574
21
188.751030
0
LINE
8
Layer 1
10
46.352574
20
188.751030
11
46.027743
21
188.762230
0
LINE
8
Layer 1
10
46.027743
20
188.762230
11
46.031443
21
188.859330
0
LINE
8
Layer 1
10
46.031443
20
188.859330
11
46.035143
21
188.960140
0
LINE
8
Layer 1
10
46.035143
20
188.960140
11
45.975403
21
189.449250
0
LINE
8
Layer 1
10
45.975403
20
189.449250
11
45.781251
21
189.897300
0
LINE
8
Layer 1
10
45.781251
20
189.897300
11
45.422816
21
190.274400
0
LINE
8
Layer 1
10
45.422816
20
190.274400
11
44.971040
21
190.550690
0
LINE
8
Layer 1
10
44.971040
20
190.550690
11
44.444589
21
190.718710
0
LINE
8
Layer 1
10
44.444589
20
190.718710
11
43.873334
21
190.778410
0
LINE
8
Layer 1
10
43.873334
20
190.778410
11
42.962314
21
190.621590
0
LINE
8
Layer 1
10
42.962314
20
190.621590
11
42.234244
21
190.192220
0
LINE
8
Layer 1
10
42.234244
20
190.192220
11
41.674190
21
189.542560
0
LINE
8
Layer 1
10
41.674190
20
189.542560
11
41.282153
21
188.728610
0
LINE
8
Layer 1
10
41.282153
20
188.728610
11
41.050664
21
187.802660
0
LINE
8
Layer 1
10
41.050664
20
187.802660
11
40.975994
21
186.820700
0
LINE
8
Layer 1
10
40.975994
20
186.820700
11
41.073074
21
185.715520
0
LINE
8
Layer 1
10
41.073074
20
185.715520
11
41.349367
21
184.759700
0
LINE
8
Layer 1
10
41.349367
20
184.759700
11
41.782475
21
183.975620
0
LINE
8
Layer 1
10
41.782475
20
183.975620
11
42.349996
21
183.385700
0
LINE
8
Layer 1
10
42.349996
20
183.385700
11
43.033262
21
183.019800
0
LINE
8
Layer 1
10
43.033262
20
183.019800
11
43.809870
21
182.892850
0
LINE
8
Layer 1
10
43.809870
20
182.892850
11
44.392326
21
182.952550
0
LINE
8
Layer 1
10
44.392326
20
182.952550
11
45.004651
21
183.146700
0
LINE
8
Layer 1
10
45.004651
20
183.146700
11
45.628177
21
183.482740
0
LINE
8
Layer 1
10
45.628177
20
183.482740
11
46.259171
21
183.971850
0
LINE
8
Layer 1
10
46.259171
20
183.971850
11
46.326381
21
183.934550
0
LINE
8
Layer 1
10
46.326381
20
183.934550
11
46.401051
21
183.882250
0
LINE
8
Layer 1
10
46.401051
20
183.882250
11
46.457061
21
183.822550
0
LINE
8
Layer 1
10
46.457061
20
183.822550
11
46.483201
21
183.755350
0
LINE
8
Layer 1
10
46.483201
20
183.755350
11
46.453331
21
183.691850
0
LINE
8
Layer 1
10
46.453331
20
183.691850
11
45.714060
21
183.016050
0
LINE
8
Layer 1
10
45.714060
20
183.016050
11
44.963588
21
182.575480
0
LINE
8
Layer 1
10
44.963588
20
182.575480
11
44.201915
21
182.336520
0
LINE
8
Layer 1
10
44.201915
20
182.336520
11
43.440242
21
182.261820
0
LINE
8
Layer 1
10
43.440242
20
182.261820
11
42.476950
21
182.403700
0
LINE
8
Layer 1
10
42.476950
20
182.403700
11
41.629402
21
182.803200
0
LINE
8
Layer 1
10
41.629402
20
182.803200
11
40.920001
21
183.434200
0
LINE
8
Layer 1
10
40.920001
20
183.434200
11
40.378615
21
184.270540
0
LINE
8
Layer 1
10
40.378615
20
184.270540
11
40.031382
21
185.274910
0
LINE
8
Layer 1
10
40.031382
20
185.274910
11
39.911904
21
186.424880
0
LINE
8
Layer 1
10
39.911904
20
186.424880
11
40.027648
21
187.593530
0
LINE
8
Layer 1
10
40.027648
20
187.593530
11
40.378615
21
188.721100
0
LINE
8
Layer 1
10
40.378615
20
188.721100
11
40.964805
21
189.725470
0
LINE
8
Layer 1
10
40.964805
20
189.725470
11
41.789951
21
190.535680
0
LINE
8
Layer 1
10
41.789951
20
190.535680
11
42.850321
21
191.077060
0
LINE
8
Layer 1
10
42.850321
20
191.077060
11
44.149651
21
191.274950
0
LINE
8
Layer 1
10
44.149651
20
191.274950
11
44.149700
21
191.275000
0
LINE
8
Layer 1
10
48.424800
20
184.475000
11
49.033392
21
186.076750
0
LINE
8
Layer 1
10
49.033392
20
186.076750
11
49.690521
21
187.140850
0
LINE
8
Layer 1
10
49.690521
20
187.140850
11
50.358852
21
187.734510
0
LINE
8
Layer 1
10
50.358852
20
187.734510
11
50.993580
21
187.917460
0
LINE
8
Layer 1
10
50.993580
20
187.917460
11
51.396818
21
187.835360
0
LINE
8
Layer 1
10
51.396818
20
187.835360
11
51.740318
21
187.588940
0
LINE
8
Layer 1
10
51.740318
20
187.588940
11
51.983008
21
187.155830
0
LINE
8
Layer 1
10
51.983008
20
187.155830
11
52.072618
21
186.521100
0
LINE
8
Layer 1
10
52.072618
20
186.521100
11
52.057688
21
186.214940
0
LINE
8
Layer 1
10
52.057688
20
186.214940
11
52.027818
21
185.785560
0
LINE
8
Layer 1
10
52.027818
20
185.785560
11
51.983018
21
185.288980
0
LINE
8
Layer 1
10
51.983018
20
185.288980
11
51.941948
21
184.773730
0
LINE
8
Layer 1
10
51.941948
20
184.773730
11
51.908348
21
184.292090
0
LINE
8
Layer 1
10
51.908348
20
184.292090
11
51.897148
21
183.900050
0
LINE
8
Layer 1
10
51.897148
20
183.900050
11
51.919548
21
183.425870
0
LINE
8
Layer 1
10
51.919548
20
183.425870
11
52.001688
21
183.134640
0
LINE
8
Layer 1
10
52.001688
20
183.134640
11
52.151036
21
182.989030
0
LINE
8
Layer 1
10
52.151036
20
182.989030
11
52.378791
21
182.951730
0
LINE
8
Layer 1
10
52.378791
20
182.951730
11
52.782030
21
183.004030
0
LINE
8
Layer 1
10
52.782030
20
183.004030
11
53.203937
21
183.157110
0
LINE
8
Layer 1
10
53.203937
20
183.157110
11
53.274877
21
182.962960
0
LINE
8
Layer 1
10
53.274877
20
182.962960
11
52.935111
21
182.742670
0
LINE
8
Layer 1
10
52.935111
20
182.742670
11
52.502003
21
182.537320
0
LINE
8
Layer 1
10
52.502003
20
182.537320
11
52.053960
21
182.387970
0
LINE
8
Layer 1
10
52.053960
20
182.387970
11
51.658189
21
182.328270
0
LINE
8
Layer 1
10
51.658189
20
182.328270
11
51.340825
21
182.436550
0
LINE
8
Layer 1
10
51.340825
20
182.436550
11
51.165341
21
182.731510
0
LINE
8
Layer 1
10
51.165341
20
182.731510
11
51.090671
21
183.168360
0
LINE
8
Layer 1
10
51.090671
20
183.168360
11
51.075731
21
183.706010
0
LINE
8
Layer 1
10
51.075731
20
183.706010
11
51.098131
21
184.422880
0
LINE
8
Layer 1
10
51.098131
20
184.422880
11
51.150401
21
185.132280
0
LINE
8
Layer 1
10
51.150401
20
185.132280
11
51.202671
21
185.752070
0
LINE
8
Layer 1
10
51.202671
20
185.752070
11
51.228811
21
186.207580
0
LINE
8
Layer 1
10
51.228811
20
186.207580
11
51.068262
21
186.827370
0
LINE
8
Layer 1
10
51.068262
20
186.827370
11
50.635154
21
187.036460
0
LINE
8
Layer 1
10
50.635154
20
187.036460
11
50.179644
21
186.853510
0
LINE
8
Layer 1
10
50.179644
20
186.853510
11
49.701731
21
186.349460
0
LINE
8
Layer 1
10
49.701731
20
186.349460
11
49.246221
21
185.595250
0
LINE
8
Layer 1
10
49.246221
20
185.595250
11
48.850450
21
184.654360
0
LINE
8
Layer 1
10
48.850450
20
184.654360
11
48.559222
21
183.597730
0
LINE
8
Layer 1
10
48.559222
20
183.597730
11
48.413608
21
182.492560
0
LINE
8
Layer 1
10
48.413608
20
182.492560
11
47.618332
21
182.395460
0
LINE
8
Layer 1
10
47.618332
20
182.395460
11
47.558592
21
182.399460
0
LINE
8
Layer 1
10
47.558592
20
182.399460
11
47.607132
21
183.370220
0
LINE
8
Layer 1
10
47.607132
20
183.370220
11
47.666872
21
184.501530
0
LINE
8
Layer 1
10
47.666872
20
184.501530
11
47.734082
21
185.744850
0
LINE
8
Layer 1
10
47.734082
20
185.744850
11
47.805022
21
187.066580
0
LINE
8
Layer 1
10
47.805022
20
187.066580
11
47.879692
21
188.421910
0
LINE
8
Layer 1
10
47.879692
20
188.421910
11
47.950632
21
189.769770
0
LINE
8
Layer 1
10
47.950632
20
189.769770
11
48.021572
21
191.076560
0
LINE
8
Layer 1
10
48.021572
20
191.076560
11
48.085042
21
192.297480
0
LINE
8
Layer 1
10
48.085042
20
192.297480
11
48.137312
21
192.450560
0
LINE
8
Layer 1
10
48.137312
20
192.450560
11
48.260524
21
192.555110
0
LINE
8
Layer 1
10
48.260524
20
192.555110
11
48.436007
21
192.614810
0
LINE
8
Layer 1
10
48.436007
20
192.614810
11
48.637626
21
192.633510
0
LINE
8
Layer 1
10
48.637626
20
192.633510
11
49.108071
21
192.514030
0
LINE
8
Layer 1
10
49.108071
20
192.514030
11
48.954990
21
191.113900
0
LINE
8
Layer 1
10
48.954990
20
191.113900
11
48.831778
21
189.934050
0
LINE
8
Layer 1
10
48.831778
20
189.934050
11
48.734698
21
188.922220
0
LINE
8
Layer 1
10
48.734698
20
188.922220
11
48.656288
21
188.018670
0
LINE
8
Layer 1
10
48.656288
20
188.018670
11
48.592818
21
187.178590
0
LINE
8
Layer 1
10
48.592818
20
187.178590
11
48.533078
21
186.342240
0
LINE
8
Layer 1
10
48.533078
20
186.342240
11
48.469608
21
185.461090
0
LINE
8
Layer 1
10
48.469608
20
185.461090
11
48.402398
21
184.479130
0
LINE
8
Layer 1
10
48.402398
20
184.479130
11
48.424800
21
184.475000
0
LINE
8
Layer 1
10
56.751000
20
186.331000
11
56.653920
21
186.842520
0
LINE
8
Layer 1
10
56.653920
20
186.842520
11
56.400029
21
187.197220
0
LINE
8
Layer 1
10
56.400029
20
187.197220
11
56.045329
21
187.402570
0
LINE
8
Layer 1
10
56.045329
20
187.402570
11
55.649557
21
187.469770
0
LINE
8
Layer 1
10
55.649557
20
187.469770
11
55.201514
21
187.413770
0
LINE
8
Layer 1
10
55.201514
20
187.413770
11
54.902819
21
187.260690
0
LINE
8
Layer 1
10
54.902819
20
187.260690
11
54.738537
21
187.029200
0
LINE
8
Layer 1
10
54.738537
20
187.029200
11
54.689997
21
186.745440
0
LINE
8
Layer 1
10
54.689997
20
186.745440
11
54.753467
21
186.383270
0
LINE
8
Layer 1
10
54.753467
20
186.383270
11
54.947619
21
186.032310
0
LINE
8
Layer 1
10
54.947619
20
186.032310
11
54.932689
21
185.991210
0
LINE
8
Layer 1
10
54.932689
20
185.991210
11
54.503314
21
185.886660
0
LINE
8
Layer 1
10
54.503314
20
185.886660
11
54.264358
21
185.923960
0
LINE
8
Layer 1
10
54.264358
20
185.923960
11
54.073940
21
186.039700
0
LINE
8
Layer 1
10
54.073940
20
186.039700
11
53.946994
21
186.222650
0
LINE
8
Layer 1
10
53.946994
20
186.222650
11
53.902194
21
186.465340
0
LINE
8
Layer 1
10
53.902194
20
186.465340
11
54.006737
21
186.879780
0
LINE
8
Layer 1
10
54.006737
20
186.879780
11
54.290498
21
187.234480
0
LINE
8
Layer 1
10
54.290498
20
187.234480
11
54.697470
21
187.521980
0
LINE
8
Layer 1
10
54.697470
20
187.521980
11
55.175383
21
187.734800
0
LINE
8
Layer 1
10
55.175383
20
187.734800
11
55.668230
21
187.869210
0
LINE
8
Layer 1
10
55.668230
20
187.869210
11
56.131208
21
187.917710
0
LINE
8
Layer 1
10
56.131208
20
187.917710
11
56.799538
21
187.813170
0
LINE
8
Layer 1
10
56.799538
20
187.813170
11
57.251315
21
187.507000
0
LINE
8
Layer 1
10
57.251315
20
187.507000
11
57.505206
21
187.025360
0
LINE
8
Layer 1
10
57.505206
20
187.025360
11
57.587346
21
186.383160
0
LINE
8
Layer 1
10
57.587346
20
186.383160
11
57.564946
21
185.841780
0
LINE
8
Layer 1
10
57.564946
20
185.841780
11
57.520146
21
185.221990
0
LINE
8
Layer 1
10
57.520146
20
185.221990
11
57.471606
21
184.557390
0
LINE
8
Layer 1
10
57.471606
20
184.557390
11
57.452936
21
183.874120
0
LINE
8
Layer 1
10
57.452936
20
183.874120
11
57.650822
21
183.063910
0
LINE
8
Layer 1
10
57.650822
20
183.063910
11
58.177272
21
182.795090
0
LINE
8
Layer 1
10
58.177272
20
182.795090
11
58.819467
21
183.007910
0
LINE
8
Layer 1
10
58.819467
20
183.007910
11
58.927744
21
182.847360
0
LINE
8
Layer 1
10
58.927744
20
182.847360
11
58.382625
21
182.466520
0
LINE
8
Layer 1
10
58.382625
20
182.466520
11
57.762833
21
182.335840
0
LINE
8
Layer 1
10
57.762833
20
182.335840
11
57.314790
21
182.417940
0
LINE
8
Layer 1
10
57.314790
20
182.417940
11
56.960089
21
182.660630
0
LINE
8
Layer 1
10
56.960089
20
182.660630
11
56.728600
21
183.071340
0
LINE
8
Layer 1
10
56.728600
20
183.071340
11
56.646460
21
183.642590
0
LINE
8
Layer 1
10
56.646460
20
183.642590
11
56.650160
21
183.836750
0
LINE
8
Layer 1
10
56.650160
20
183.836750
11
56.676300
21
184.042100
0
LINE
8
Layer 1
10
56.676300
20
184.042100
11
56.653900
21
184.042000
0
LINE
8
Layer 1
10
56.653900
20
184.042000
11
56.280531
21
183.407270
0
LINE
8
Layer 1
10
56.280531
20
183.407270
11
55.817553
21
182.850950
0
LINE
8
Layer 1
10
55.817553
20
182.850950
11
55.279902
21
182.458910
0
LINE
8
Layer 1
10
55.279902
20
182.458910
11
54.682511
21
182.305830
0
LINE
8
Layer 1
10
54.682511
20
182.305830
11
54.212066
21
182.395430
0
LINE
8
Layer 1
10
54.212066
20
182.395430
11
53.846164
21
182.641850
0
LINE
8
Layer 1
10
53.846164
20
182.641850
11
53.610942
21
183.011490
0
LINE
8
Layer 1
10
53.610942
20
183.011490
11
53.528802
21
183.481940
0
LINE
8
Layer 1
10
53.528802
20
183.481940
11
53.648280
21
184.079330
0
LINE
8
Layer 1
10
53.648280
20
184.079330
11
53.984312
21
184.560970
0
LINE
8
Layer 1
10
53.984312
20
184.560970
11
54.499561
21
184.926870
0
LINE
8
Layer 1
10
54.499561
20
184.926870
11
55.149224
21
185.184500
0
LINE
8
Layer 1
10
55.149224
20
185.184500
11
55.892228
21
185.337580
0
LINE
8
Layer 1
10
55.892228
20
185.337580
11
56.691238
21
185.389880
0
LINE
8
Layer 1
10
56.691238
20
185.389880
11
56.732308
21
185.845390
0
LINE
8
Layer 1
10
56.732308
20
185.845390
11
56.750978
21
186.330770
0
LINE
8
Layer 1
10
56.750978
20
186.330770
11
56.751000
21
186.331000
0
LINE
8
Layer 1
10
54.458510
20
183.765960
11
54.488380
21
183.485930
0
LINE
8
Layer 1
10
54.488380
20
183.485930
11
54.589190
21
183.254440
0
LINE
8
Layer 1
10
54.589190
20
183.254440
11
54.764673
21
183.093890
0
LINE
8
Layer 1
10
54.764673
20
183.093890
11
55.022298
21
183.037890
0
LINE
8
Layer 1
10
55.022298
20
183.037890
11
55.369531
21
183.116290
0
LINE
8
Layer 1
10
55.369531
20
183.116290
11
55.720498
21
183.332850
0
LINE
8
Layer 1
10
55.720498
20
183.332850
11
56.052797
21
183.661410
0
LINE
8
Layer 1
10
56.052797
20
183.661410
11
56.340291
21
184.083320
0
LINE
8
Layer 1
10
56.340291
20
184.083320
11
56.549378
21
184.561230
0
LINE
8
Layer 1
10
56.549378
20
184.561230
11
56.661389
21
185.080220
0
LINE
8
Layer 1
10
56.661389
20
185.080220
11
56.112536
21
185.042920
0
LINE
8
Layer 1
10
56.112536
20
185.042920
11
55.593553
21
184.957020
0
LINE
8
Layer 1
10
55.593553
20
184.957020
11
55.141776
21
184.800210
0
LINE
8
Layer 1
10
55.141776
20
184.800210
11
54.779608
21
184.557520
0
LINE
8
Layer 1
10
54.779608
20
184.557520
11
54.544386
21
184.217750
0
LINE
8
Layer 1
10
54.544386
20
184.217750
11
54.458506
21
183.765980
0
LINE
8
Layer 1
10
54.458506
20
183.765980
11
54.458510
21
183.765960
0
LINE
8
Layer 1
10
62.202100
20
186.327000
11
62.306643
21
186.745170
0
LINE
8
Layer 1
10
62.306643
20
186.745170
11
62.254373
21
187.017730
0
LINE
8
Layer 1
10
62.254373
20
187.017730
11
62.105025
21
187.245490
0
LINE
8
Layer 1
10
62.105025
20
187.245490
11
61.851134
21
187.402300
0
LINE
8
Layer 1
10
61.851134
20
187.402300
11
61.500167
21
187.462000
0
LINE
8
Layer 1
10
61.500167
20
187.462000
11
60.977450
21
187.357460
0
LINE
8
Layer 1
10
60.977450
20
187.357460
11
60.566744
21
187.077430
0
LINE
8
Layer 1
10
60.566744
20
187.077430
11
60.264315
21
186.662990
0
LINE
8
Layer 1
10
60.264315
20
186.662990
11
60.058962
21
186.158940
0
LINE
8
Layer 1
10
60.058962
20
186.158940
11
59.943218
21
185.606360
0
LINE
8
Layer 1
10
59.943218
20
185.606360
11
59.905878
21
185.057500
0
LINE
8
Layer 1
10
59.905878
20
185.057500
11
60.029090
21
184.180090
0
LINE
8
Layer 1
10
60.029090
20
184.180090
11
60.368856
21
183.508020
0
LINE
8
Layer 1
10
60.368856
20
183.508020
11
60.865436
21
183.078650
0
LINE
8
Layer 1
10
60.865436
20
183.078650
11
61.470294
21
182.925570
0
LINE
8
Layer 1
10
61.470294
20
182.925570
11
62.157294
21
183.101050
0
LINE
8
Layer 1
10
62.157294
20
183.101050
11
62.836825
21
183.676040
0
LINE
8
Layer 1
10
62.836825
20
183.676040
11
62.892835
21
183.642440
0
LINE
8
Layer 1
10
62.892835
20
183.642440
11
62.960045
21
183.597640
0
LINE
8
Layer 1
10
62.960045
20
183.597640
11
63.012315
21
183.545340
0
LINE
8
Layer 1
10
63.012315
20
183.545340
11
63.034715
21
183.496840
0
LINE
8
Layer 1
10
63.034715
20
183.496840
11
63.031015
21
183.478140
0
LINE
8
Layer 1
10
63.031015
20
183.478140
11
63.023515
21
183.463240
0
LINE
8
Layer 1
10
63.023515
20
183.463240
11
62.624944
21
182.950790
0
LINE
8
Layer 1
10
62.624944
20
182.950790
11
62.153565
21
182.585820
0
LINE
8
Layer 1
10
62.153565
20
182.585820
11
61.621514
21
182.367397
0
LINE
8
Layer 1
10
61.621514
20
182.367397
11
61.040925
21
182.294590
0
LINE
8
Layer 1
10
61.040925
20
182.294590
11
60.436067
21
182.387890
0
LINE
8
Layer 1
10
60.436067
20
182.387890
11
59.935752
21
182.638050
0
LINE
8
Layer 1
10
59.935752
20
182.638050
11
59.539981
21
183.022620
0
LINE
8
Layer 1
10
59.539981
20
183.022620
11
59.256221
21
183.504270
0
LINE
8
Layer 1
10
59.256221
20
183.504270
11
59.084471
21
184.049390
0
LINE
8
Layer 1
10
59.084471
20
184.049390
11
59.028461
21
184.628110
0
LINE
8
Layer 1
10
59.028461
20
184.628110
11
59.114341
21
185.412180
0
LINE
8
Layer 1
10
59.114341
20
185.412180
11
59.364499
21
186.170120
0
LINE
8
Layer 1
10
59.364499
20
186.170120
11
59.767737
21
186.849650
0
LINE
8
Layer 1
10
59.767737
20
186.849650
11
60.305389
21
187.398510
0
LINE
8
Layer 1
10
60.305389
20
187.398510
11
60.969986
21
187.764410
0
LINE
8
Layer 1
10
60.969986
20
187.764410
11
61.742860
21
187.898820
0
LINE
8
Layer 1
10
61.742860
20
187.898820
11
62.314115
21
187.824120
0
LINE
8
Layer 1
10
62.314115
20
187.824120
11
62.769625
21
187.611300
0
LINE
8
Layer 1
10
62.769625
20
187.611300
11
63.072054
21
187.282730
0
LINE
8
Layer 1
10
63.072054
20
187.282730
11
63.184065
21
186.857090
0
LINE
8
Layer 1
10
63.184065
20
186.857090
11
63.135525
21
186.584530
0
LINE
8
Layer 1
10
63.135525
20
186.584530
11
63.004846
21
186.382910
0
LINE
8
Layer 1
10
63.004846
20
186.382910
11
62.806960
21
186.255970
0
LINE
8
Layer 1
10
62.806960
20
186.255970
11
62.560536
21
186.214870
0
LINE
8
Layer 1
10
62.560536
20
186.214870
11
62.388787
21
186.229770
0
LINE
8
Layer 1
10
62.388787
20
186.229770
11
62.217037
21
186.285770
0
LINE
8
Layer 1
10
62.217037
20
186.285770
11
62.202100
21
186.327000
0
LINE
8
Layer 1
10
65.599800
20
192.514000
11
65.450452
21
191.210950
0
LINE
8
Layer 1
10
65.450452
20
191.210950
11
65.312306
21
189.863080
0
LINE
8
Layer 1
10
65.312306
20
189.863080
11
65.192828
21
188.496550
0
LINE
8
Layer 1
10
65.192828
20
188.496550
11
65.095748
21
187.141220
0
LINE
8
Layer 1
10
65.095748
20
187.141220
11
65.032278
21
185.834430
0
LINE
8
Layer 1
10
65.032278
20
185.834430
11
65.009878
21
184.602310
0
LINE
8
Layer 1
10
65.009878
20
184.602310
11
65.017378
21
183.967590
0
LINE
8
Layer 1
10
65.017378
20
183.967590
11
65.047248
21
183.519540
0
LINE
8
Layer 1
10
65.047248
20
183.519540
11
65.103248
21
183.224580
0
LINE
8
Layer 1
10
65.103248
20
183.224580
11
65.192858
21
183.052830
0
LINE
8
Layer 1
10
65.192858
20
183.052830
11
65.316070
21
182.970730
0
LINE
8
Layer 1
10
65.316070
20
182.970730
11
65.484086
21
182.952030
0
LINE
8
Layer 1
10
65.484086
20
182.952030
11
65.868656
21
183.004330
0
LINE
8
Layer 1
10
65.868656
20
183.004330
11
66.290563
21
183.157410
0
LINE
8
Layer 1
10
66.290563
20
183.157410
11
66.361503
21
182.963260
0
LINE
8
Layer 1
10
66.361503
20
182.963260
11
66.021737
21
182.742970
0
LINE
8
Layer 1
10
66.021737
20
182.742970
11
65.596096
21
182.537620
0
LINE
8
Layer 1
10
65.596096
20
182.537620
11
65.155521
21
182.388270
0
LINE
8
Layer 1
10
65.155521
20
182.388270
11
64.785885
21
182.328570
0
LINE
8
Layer 1
10
64.785885
20
182.328570
11
64.464788
21
182.433120
0
LINE
8
Layer 1
10
64.464788
20
182.433120
11
64.285571
21
182.765420
0
LINE
8
Layer 1
10
64.285571
20
182.765420
11
64.207161
21
183.366540
0
LINE
8
Layer 1
10
64.207161
20
183.366540
11
64.192221
21
184.273830
0
LINE
8
Layer 1
10
64.192221
20
184.273830
11
64.203421
21
184.826410
0
LINE
8
Layer 1
10
64.203421
20
184.826410
11
64.233291
21
185.666490
0
LINE
8
Layer 1
10
64.233291
20
185.666490
11
64.281831
21
186.711930
0
LINE
8
Layer 1
10
64.281831
20
186.711930
11
64.337831
21
187.884310
0
LINE
8
Layer 1
10
64.337831
20
187.884310
11
64.401301
21
189.108960
0
LINE
8
Layer 1
10
64.401301
20
189.108960
11
64.468511
21
190.303740
0
LINE
8
Layer 1
10
64.468511
20
190.303740
11
64.531981
21
191.393980
0
LINE
8
Layer 1
10
64.531981
20
191.393980
11
64.587991
21
192.297530
0
LINE
8
Layer 1
10
64.587991
20
192.297530
11
64.640261
21
192.450610
0
LINE
8
Layer 1
10
64.640261
20
192.450610
11
64.763473
21
192.555160
0
LINE
8
Layer 1
10
64.763473
20
192.555160
11
64.935223
21
192.614860
0
LINE
8
Layer 1
10
64.935223
20
192.614860
11
65.129375
21
192.633560
0
LINE
8
Layer 1
10
65.129375
20
192.633560
11
65.599820
21
192.514080
0
LINE
8
Layer 1
10
65.599820
20
192.514080
11
65.599800
21
192.514000
0
LINE
8
Layer 1
10
66.701200
20
184.640000
11
66.779610
21
185.405410
0
LINE
8
Layer 1
10
66.779610
20
185.405410
11
67.011099
21
186.155880
0
LINE
8
Layer 1
10
67.011099
20
186.155880
11
67.388201
21
186.839140
0
LINE
8
Layer 1
10
67.388201
20
186.839140
11
67.910918
21
187.399200
0
LINE
8
Layer 1
10
67.910918
20
187.399200
11
68.568048
21
187.776300
0
LINE
8
Layer 1
10
68.568048
20
187.776300
11
69.355857
21
187.914450
0
LINE
8
Layer 1
10
69.355857
20
187.914450
11
70.199671
21
187.712830
0
LINE
8
Layer 1
10
70.199671
20
187.712830
11
70.819464
21
187.178910
0
LINE
8
Layer 1
10
70.819464
20
187.178910
11
71.196566
21
186.428440
0
LINE
8
Layer 1
10
71.196566
20
186.428440
11
71.327246
21
185.565950
0
LINE
8
Layer 1
10
71.327246
20
185.565950
11
71.248836
21
184.800550
0
LINE
8
Layer 1
10
71.248836
20
184.800550
11
71.013614
21
184.046340
0
LINE
8
Layer 1
10
71.013614
20
184.046340
11
70.632777
21
183.363080
0
LINE
8
Layer 1
10
70.632777
20
183.363080
11
70.113794
21
182.806760
0
LINE
8
Layer 1
10
70.113794
20
182.806760
11
69.456664
21
182.429650
0
LINE
8
Layer 1
10
69.456664
20
182.429650
11
68.668855
21
182.291510
0
LINE
8
Layer 1
10
68.668855
20
182.291510
11
67.821308
21
182.493130
0
LINE
8
Layer 1
10
67.821308
20
182.493130
11
67.205248
21
183.023310
0
LINE
8
Layer 1
10
67.205248
20
183.023310
11
66.828146
21
183.777520
0
LINE
8
Layer 1
10
66.828146
20
183.777520
11
66.701200
21
184.640000
0
LINE
8
Layer 1
10
66.701200
20
184.640000
11
66.701200
21
184.640000
0
LINE
8
Layer 1
10
67.593552
20
184.994700
11
67.630892
21
184.479450
0
LINE
8
Layer 1
10
67.630892
20
184.479450
11
67.754104
21
183.975400
0
LINE
8
Layer 1
10
67.754104
20
183.975400
11
67.955723
21
183.519890
0
LINE
8
Layer 1
10
67.955723
20
183.519890
11
68.243218
21
183.153990
0
LINE
8
Layer 1
10
68.243218
20
183.153990
11
68.616587
21
182.907570
0
LINE
8
Layer 1
10
68.616587
20
182.907570
11
69.075831
21
182.817970
0
LINE
8
Layer 1
10
69.075831
20
182.817970
11
69.553743
21
182.933710
0
LINE
8
Layer 1
10
69.553743
20
182.933710
11
69.912178
21
183.247340
0
LINE
8
Layer 1
10
69.912178
20
183.247340
11
70.162335
21
183.691650
0
LINE
8
Layer 1
10
70.162335
20
183.691650
11
70.322884
21
184.206900
0
LINE
8
Layer 1
10
70.322884
20
184.206900
11
70.405024
21
184.737090
0
LINE
8
Layer 1
10
70.405024
20
184.737090
11
70.431164
21
185.218730
0
LINE
8
Layer 1
10
70.431164
20
185.218730
11
70.390094
21
185.733980
0
LINE
8
Layer 1
10
70.390094
20
185.733980
11
70.270616
21
186.234300
0
LINE
8
Layer 1
10
70.270616
20
186.234300
11
70.065263
21
186.686070
0
LINE
8
Layer 1
10
70.065263
20
186.686070
11
69.777769
21
187.051970
0
LINE
8
Layer 1
10
69.777769
20
187.051970
11
69.404400
21
187.298400
0
LINE
8
Layer 1
10
69.404400
20
187.298400
11
68.948889
21
187.388000
0
LINE
8
Layer 1
10
68.948889
20
187.388000
11
68.467243
21
187.272250
0
LINE
8
Layer 1
10
68.467243
20
187.272250
11
68.108809
21
186.962360
0
LINE
8
Layer 1
10
68.108809
20
186.962360
11
67.858651
21
186.518050
0
LINE
8
Layer 1
10
67.858651
20
186.518050
11
67.701836
21
186.002800
0
LINE
8
Layer 1
10
67.701836
20
186.002800
11
67.615966
21
185.472610
0
LINE
8
Layer 1
10
67.615966
20
185.472610
11
67.593566
21
184.994700
0
LINE
8
Layer 1
10
67.593566
20
184.994700
11
67.593552
21
184.994700
0
LINE
8
Layer 1
10
75.270100
20
186.327000
11
75.374643
21
186.745170
0
LINE
8
Layer 1
10
75.374643
20
186.745170
11
75.322373
21
187.017730
0
LINE
8
Layer 1
10
75.322373
20
187.017730
11
75.173026
21
187.245490
0
LINE
8
Layer 1
10
75.173026
20
187.245490
11
74.919135
21
187.402300
0
LINE
8
Layer 1
10
74.919135
20
187.402300
11
74.568168
21
187.462000
0
LINE
8
Layer 1
10
74.568168
20
187.462000
11
74.045451
21
187.357460
0
LINE
8
Layer 1
10
74.045451
20
187.357460
11
73.634745
21
187.077430
0
LINE
8
Layer 1
10
73.634745
20
187.077430
11
73.332316
21
186.662990
0
LINE
8
Layer 1
10
73.332316
20
186.662990
11
73.126963
21
186.158940
0
LINE
8
Layer 1
10
73.126963
20
186.158940
11
73.011219
21
185.606360
0
LINE
8
Layer 1
10
73.011219
20
185.606360
11
72.973879
21
185.057500
0
LINE
8
Layer 1
10
72.973879
20
185.057500
11
73.097090
21
184.180090
0
LINE
8
Layer 1
10
73.097090
20
184.180090
11
73.436856
21
183.508020
0
LINE
8
Layer 1
10
73.436856
20
183.508020
11
73.933437
21
183.078650
0
LINE
8
Layer 1
10
73.933437
20
183.078650
11
74.538295
21
182.925570
0
LINE
8
Layer 1
10
74.538295
20
182.925570
11
75.225294
21
183.101050
0
LINE
8
Layer 1
10
75.225294
20
183.101050
11
75.904826
21
183.676040
0
LINE
8
Layer 1
10
75.904826
20
183.676040
11
75.960836
21
183.642440
0
LINE
8
Layer 1
10
75.960836
20
183.642440
11
76.028046
21
183.597640
0
LINE
8
Layer 1
10
76.028046
20
183.597640
11
76.080316
21
183.545340
0
LINE
8
Layer 1
10
76.080316
20
183.545340
11
76.102716
21
183.496840
0
LINE
8
Layer 1
10
76.102716
20
183.496840
11
76.099016
21
183.478140
0
LINE
8
Layer 1
10
76.099016
20
183.478140
11
76.091516
21
183.463240
0
LINE
8
Layer 1
10
76.091516
20
183.463240
11
75.692945
21
182.950790
0
LINE
8
Layer 1
10
75.692945
20
182.950790
11
75.221566
21
182.585820
0
LINE
8
Layer 1
10
75.221566
20
182.585820
11
74.689515
21
182.367397
0
LINE
8
Layer 1
10
74.689515
20
182.367397
11
74.108926
21
182.294590
0
LINE
8
Layer 1
10
74.108926
20
182.294590
11
73.504068
21
182.387890
0
LINE
8
Layer 1
10
73.504068
20
182.387890
11
73.003753
21
182.638050
0
LINE
8
Layer 1
10
73.003753
20
182.638050
11
72.607982
21
183.022620
0
LINE
8
Layer 1
10
72.607982
20
183.022620
11
72.324221
21
183.504270
0
LINE
8
Layer 1
10
72.324221
20
183.504270
11
72.152472
21
184.049390
0
LINE
8
Layer 1
10
72.152472
20
184.049390
11
72.096462
21
184.628110
0
LINE
8
Layer 1
10
72.096462
20
184.628110
11
72.182342
21
185.412180
0
LINE
8
Layer 1
10
72.182342
20
185.412180
11
72.432499
21
186.170120
0
LINE
8
Layer 1
10
72.432499
20
186.170120
11
72.835738
21
186.849650
0
LINE
8
Layer 1
10
72.835738
20
186.849650
11
73.373390
21
187.398510
0
LINE
8
Layer 1
10
73.373390
20
187.398510
11
74.037987
21
187.764410
0
LINE
8
Layer 1
10
74.037987
20
187.764410
11
74.810861
21
187.898820
0
LINE
8
Layer 1
10
74.810861
20
187.898820
11
75.382115
21
187.824120
0
LINE
8
Layer 1
10
75.382115
20
187.824120
11
75.837626
21
187.611300
0
LINE
8
Layer 1
10
75.837626
20
187.611300
11
76.140055
21
187.282730
0
LINE
8
Layer 1
10
76.140055
20
187.282730
11
76.252066
21
186.857090
0
LINE
8
Layer 1
10
76.252066
20
186.857090
11
76.203526
21
186.584530
0
LINE
8
Layer 1
10
76.203526
20
186.584530
11
76.072846
21
186.382910
0
LINE
8
Layer 1
10
76.072846
20
186.382910
11
75.874961
21
186.255970
0
LINE
8
Layer 1
10
75.874961
20
186.255970
11
75.628537
21
186.214870
0
LINE
8
Layer 1
10
75.628537
20
186.214870
11
75.456787
21
186.229770
0
LINE
8
Layer 1
10
75.456787
20
186.229770
11
75.285038
21
186.285770
0
LINE
8
Layer 1
10
75.285038
20
186.285770
11
75.270100
21
186.327000
0
LINE
8
Layer 1
10
78.925300
20
184.897000
11
79.742979
21
185.236770
0
LINE
8
Layer 1
10
79.742979
20
185.236770
11
80.377706
21
185.643740
0
LINE
8
Layer 1
10
80.377706
20
185.643740
11
80.792146
21
186.099250
0
LINE
8
Layer 1
10
80.792146
20
186.099250
11
80.937760
21
186.588370
0
LINE
8
Layer 1
10
80.937760
20
186.588370
11
80.896690
21
186.778780
0
LINE
8
Layer 1
10
80.896690
20
186.778780
11
80.792147
21
186.928130
0
LINE
8
Layer 1
10
80.792147
20
186.928130
11
80.639066
21
187.025230
0
LINE
8
Layer 1
10
80.639066
20
187.025230
11
80.452381
21
187.058830
0
LINE
8
Layer 1
10
80.452381
20
187.058830
11
79.963268
21
186.913220
0
LINE
8
Layer 1
10
79.963268
20
186.913220
11
79.462953
21
186.491310
0
LINE
8
Layer 1
10
79.462953
20
186.491310
11
78.981307
21
185.815510
0
LINE
8
Layer 1
10
78.981307
20
185.815510
11
78.544465
21
184.908230
0
LINE
8
Layer 1
10
78.544465
20
184.908230
11
78.182297
21
183.791850
0
LINE
8
Layer 1
10
78.182297
20
183.791850
11
77.924672
21
182.492530
0
LINE
8
Layer 1
10
77.924672
20
182.492530
11
77.170467
21
182.395430
0
LINE
8
Layer 1
10
77.170467
20
182.395430
11
77.110727
21
182.399430
0
LINE
8
Layer 1
10
77.110727
20
182.399430
11
77.159267
21
183.370190
0
LINE
8
Layer 1
10
77.159267
20
183.370190
11
77.219007
21
184.501500
0
LINE
8
Layer 1
10
77.219007
20
184.501500
11
77.286217
21
185.744820
0
LINE
8
Layer 1
10
77.286217
20
185.744820
11
77.357157
21
187.066550
0
LINE
8
Layer 1
10
77.357157
20
187.066550
11
77.431827
21
188.421880
0
LINE
8
Layer 1
10
77.431827
20
188.421880
11
77.502767
21
189.769740
0
LINE
8
Layer 1
10
77.502767
20
189.769740
11
77.573707
21
191.076530
0
LINE
8
Layer 1
10
77.573707
20
191.076530
11
77.637177
21
192.297450
0
LINE
8
Layer 1
10
77.637177
20
192.297450
11
77.689447
21
192.450530
0
LINE
8
Layer 1
10
77.689447
20
192.450530
11
77.812658
21
192.555080
0
LINE
8
Layer 1
10
77.812658
20
192.555080
11
77.988142
21
192.614780
0
LINE
8
Layer 1
10
77.988142
20
192.614780
11
78.189761
21
192.633480
0
LINE
8
Layer 1
10
78.189761
20
192.633480
11
78.660206
21
192.514000
0
LINE
8
Layer 1
10
78.660206
20
192.514000
11
78.507125
21
191.110140
0
LINE
8
Layer 1
10
78.507125
20
191.110140
11
78.383913
21
189.922820
0
LINE
8
Layer 1
10
78.383913
20
189.922820
11
78.286833
21
188.899790
0
LINE
8
Layer 1
10
78.286833
20
188.899790
11
78.204693
21
187.988770
0
LINE
8
Layer 1
10
78.204693
20
187.988770
11
78.137483
21
187.137490
0
LINE
8
Layer 1
10
78.137483
20
187.137490
11
78.077743
21
186.293670
0
LINE
8
Layer 1
10
78.077743
20
186.293670
11
78.014273
21
185.405060
0
LINE
8
Layer 1
10
78.014273
20
185.405060
11
77.947063
21
184.419360
0
LINE
8
Layer 1
10
77.947063
20
184.419360
11
77.969463
21
184.415360
0
LINE
8
Layer 1
10
77.969463
20
184.415360
11
78.286827
21
185.292780
0
LINE
8
Layer 1
10
78.286827
20
185.292780
11
78.690066
21
186.114190
0
LINE
8
Layer 1
10
78.690066
20
186.114190
11
79.164245
21
186.834790
0
LINE
8
Layer 1
10
79.164245
20
186.834790
11
79.694429
21
187.406040
0
LINE
8
Layer 1
10
79.694429
20
187.406040
11
80.265684
21
187.779410
0
LINE
8
Layer 1
10
80.265684
20
187.779410
11
80.863074
21
187.917560
0
LINE
8
Layer 1
10
80.863074
20
187.917560
11
81.214041
21
187.854060
0
LINE
8
Layer 1
10
81.214041
20
187.854060
11
81.490334
21
187.678570
0
LINE
8
Layer 1
10
81.490334
20
187.678570
11
81.673285
21
187.406010
0
LINE
8
Layer 1
10
81.673285
20
187.406010
11
81.740495
21
187.047580
0
LINE
8
Layer 1
10
81.740495
20
187.047580
11
81.606082
21
186.446460
0
LINE
8
Layer 1
10
81.606082
20
186.446460
11
81.225245
21
185.886400
0
LINE
8
Layer 1
10
81.225245
20
185.886400
11
80.631588
21
185.374890
0
LINE
8
Layer 1
10
80.631588
20
185.374890
11
79.866182
21
184.930580
0
LINE
8
Layer 1
10
79.866182
20
184.930580
11
80.314225
21
184.142770
0
LINE
8
Layer 1
10
80.314225
20
184.142770
11
80.676393
21
183.593920
0
LINE
8
Layer 1
10
80.676393
20
183.593920
11
80.971354
21
183.242950
0
LINE
8
Layer 1
10
80.971354
20
183.242950
11
81.210311
21
183.045060
0
LINE
8
Layer 1
10
81.210311
20
183.045060
11
81.419397
21
182.955460
0
LINE
8
Layer 1
10
81.419397
20
182.955460
11
81.613549
21
182.936760
0
LINE
8
Layer 1
10
81.613549
20
182.936760
11
82.016788
21
182.996460
0
LINE
8
Layer 1
10
82.016788
20
182.996460
11
82.438695
21
183.153270
0
LINE
8
Layer 1
10
82.438695
20
183.153270
11
82.509635
21
182.959120
0
LINE
8
Layer 1
10
82.509635
20
182.959120
11
82.169869
21
182.738830
0
LINE
8
Layer 1
10
82.169869
20
182.738830
11
81.733027
21
182.533480
0
LINE
8
Layer 1
10
81.733027
20
182.533480
11
81.277517
21
182.384130
0
LINE
8
Layer 1
10
81.277517
20
182.384130
11
80.881746
21
182.324430
0
LINE
8
Layer 1
10
80.881746
20
182.324430
11
80.478507
21
182.473780
0
LINE
8
Layer 1
10
80.478507
20
182.473780
11
80.049133
21
182.929290
0
LINE
8
Layer 1
10
80.049133
20
182.929290
11
79.545084
21
183.713360
0
LINE
8
Layer 1
10
79.545084
20
183.713360
11
78.910357
21
184.852140
0
LINE
8
Layer 1
10
78.910357
20
184.852140
11
78.925300
21
184.897000
0
LINE
8
Layer 1
10
69.035100
20
191.509000
11
69.035100
21
181.777000
0
LINE
8
Layer 1
10
69.035200
20
191.666000
11
68.924193
21
191.619370
0
LINE
8
Layer 1
10
68.924193
20
191.619370
11
68.878950
21
191.507790
0
LINE
8
Layer 1
10
68.878950
20
191.507790
11
68.878900
21
190.881000
0
LINE
8
Layer 1
10
68.878900
20
190.881000
11
69.035150
21
190.724750
0
LINE
8
Layer 1
10
69.035150
20
190.724750
11
69.191400
21
190.881000
0
LINE
8
Layer 1
10
69.191400
20
190.881000
11
69.191400
21
191.508000
0
LINE
8
Layer 1
10
69.191400
20
191.508000
11
69.146157
21
191.619580
0
LINE
8
Layer 1
10
69.146157
20
191.619580
11
69.035150
21
191.666210
0
LINE
8
Layer 1
10
69.035150
20
191.666210
11
69.035200
21
191.666000
0
LINE
8
Layer 1
10
69.035200
20
190.097640
11
68.924193
21
190.051010
0
LINE
8
Layer 1
10
68.924193
20
190.051010
11
68.878950
21
189.939430
0
LINE
8
Layer 1
10
68.878950
20
189.939430
11
68.878900
21
189.312000
0
LINE
8
Layer 1
10
68.878900
20
189.312000
11
69.035150
21
189.155750
0
LINE
8
Layer 1
10
69.035150
20
189.155750
11
69.191400
21
189.312000
0
LINE
8
Layer 1
10
69.191400
20
189.312000
11
69.191400
21
189.939000
0
LINE
8
Layer 1
10
69.191400
20
189.939000
11
69.146157
21
190.050580
0
LINE
8
Layer 1
10
69.146157
20
190.050580
11
69.035150
21
190.097210
0
LINE
8
Layer 1
10
69.035150
20
190.097210
11
69.035200
21
190.097640
0
LINE
8
Layer 1
10
69.035200
20
188.529280
11
68.924193
21
188.482650
0
LINE
8
Layer 1
10
68.924193
20
188.482650
11
68.878950
21
188.371070
0
LINE
8
Layer 1
10
68.878950
20
188.371070
11
68.878900
21
187.744000
0
LINE
8
Layer 1
10
68.878900
20
187.744000
11
69.035150
21
187.587750
0
LINE
8
Layer 1
10
69.035150
20
187.587750
11
69.191400
21
187.744000
0
LINE
8
Layer 1
10
69.191400
20
187.744000
11
69.191400
21
188.371000
0
LINE
8
Layer 1
10
69.191400
20
188.371000
11
69.146157
21
188.482580
0
LINE
8
Layer 1
10
69.146157
20
188.482580
11
69.035150
21
188.529210
0
LINE
8
Layer 1
10
69.035150
20
188.529210
11
69.035200
21
188.529280
0
LINE
8
Layer 1
10
69.035200
20
186.960920
11
68.924193
21
186.914290
0
LINE
8
Layer 1
10
68.924193
20
186.914290
11
68.878950
21
186.802710
0
LINE
8
Layer 1
10
68.878950
20
186.802710
11
68.878900
21
186.176000
0
LINE
8
Layer 1
10
68.878900
20
186.176000
11
69.035150
21
186.019750
0
LINE
8
Layer 1
10
69.035150
20
186.019750
11
69.191400
21
186.176000
0
LINE
8
Layer 1
10
69.191400
20
186.176000
11
69.191400
21
186.803000
0
LINE
8
Layer 1
10
69.191400
20
186.803000
11
69.146157
21
186.914580
0
LINE
8
Layer 1
10
69.146157
20
186.914580
11
69.035150
21
186.961210
0
LINE
8
Layer 1
10
69.035150
20
186.961210
11
69.035200
21
186.960920
0
LINE
8
Layer 1
10
69.035200
20
185.392560
11
68.924193
21
185.345930
0
LINE
8
Layer 1
10
68.924193
20
185.345930
11
68.878950
21
185.234350
0
LINE
8
Layer 1
10
68.878950
20
185.234350
11
68.878900
21
184.607000
0
LINE
8
Layer 1
10
68.878900
20
184.607000
11
69.035150
21
184.450750
0
LINE
8
Layer 1
10
69.035150
20
184.450750
11
69.191400
21
184.607000
0
LINE
8
Layer 1
10
69.191400
20
184.607000
11
69.191400
21
185.234000
0
LINE
8
Layer 1
10
69.191400
20
185.234000
11
69.146157
21
185.345580
0
LINE
8
Layer 1
10
69.146157
20
185.345580
11
69.035150
21
185.392210
0
LINE
8
Layer 1
10
69.035150
20
185.392210
11
69.035200
21
185.392560
0
LINE
8
Layer 1
10
69.035200
20
183.824200
11
68.924196
21
183.777573
0
LINE
8
Layer 1
10
68.924196
20
183.777573
11
68.878950
21
183.666000
0
LINE
8
Layer 1
10
68.878950
20
183.666000
11
68.878900
21
183.039000
0
LINE
8
Layer 1
10
68.878900
20
183.039000
11
69.035150
21
182.882750
0
LINE
8
Layer 1
10
69.035150
20
182.882750
11
69.191400
21
183.039000
0
LINE
8
Layer 1
10
69.191400
20
183.039000
11
69.191400
21
183.666000
0
LINE
8
Layer 1
10
69.191400
20
183.666000
11
69.146154
21
183.777573
0
LINE
8
Layer 1
10
69.146154
20
183.777573
11
69.035150
21
183.824200
0
LINE
8
Layer 1
10
69.035150
20
183.824200
11
69.035200
21
183.824200
0
LINE
8
Layer 1
10
69.035200
20
182.255840
11
68.924196
21
182.209213
0
LINE
8
Layer 1
10
68.924196
20
182.209213
11
68.878950
21
182.097640
0
LINE
8
Layer 1
10
68.878950
20
182.097640
11
68.878900
21
181.777000
0
LINE
8
Layer 1
10
68.878900
20
181.777000
11
68.924146
21
181.665427
0
LINE
8
Layer 1
10
68.924146
20
181.665427
11
69.035150
21
181.618800
0
LINE
8
Layer 1
10
69.035150
20
181.618800
11
69.146154
21
181.665427
0
LINE
8
Layer 1
10
69.146154
20
181.665427
11
69.191400
21
181.777000
0
LINE
8
Layer 1
10
69.191400
20
181.777000
11
69.191400
21
182.098000
0
LINE
8
Layer 1
10
69.191400
20
182.098000
11
69.146154
21
182.209573
0
LINE
8
Layer 1
10
69.146154
20
182.209573
11
69.035150
21
182.256200
0
LINE
8
Layer 1
10
69.035150
20
182.256200
11
69.035200
21
182.255840
0
LINE
8
Layer 1
10
46.251700
20
194.091000
11
46.247664
21
194.045561
0
LINE
8
Layer 1
10
46.247664
20
194.045561
11
45.911307
21
192.700131
0
LINE
8
Layer 1
10
45.911307
20
192.700131
11
45.763758
21
192.584322
0
LINE
8
Layer 1
10
45.763758
20
192.584322
11
43.745618
21
192.574130
0
LINE
8
Layer 1
10
43.745618
20
192.574130
11
43.744843
21
192.574130
0
LINE
8
Layer 1
10
43.744843
20
192.574130
11
41.726700
21
192.574000
0
LINE
8
Layer 1
10
41.726700
20
192.574000
11
41.578356
21
192.689952
0
LINE
8
Layer 1
10
41.578356
20
192.689952
11
41.241999
21
194.040482
0
LINE
8
Layer 1
10
41.241999
20
194.040482
11
41.237983
21
194.087144
0
LINE
8
Layer 1
10
41.237983
20
194.087144
11
41.013215
21
194.393392
0
LINE
8
Layer 1
10
41.013215
20
194.393392
11
41.107357
21
194.620318
0
LINE
8
Layer 1
10
41.107357
20
194.620318
11
41.334283
21
194.714460
0
LINE
8
Layer 1
10
41.334283
20
194.714460
11
41.561209
21
194.620318
0
LINE
8
Layer 1
10
41.561209
20
194.620318
11
41.655351
21
194.393392
0
LINE
8
Layer 1
10
41.655351
20
194.393392
11
41.538136
21
194.145548
0
LINE
8
Layer 1
10
41.538136
20
194.145548
11
41.959256
21
193.721248
0
LINE
8
Layer 1
10
41.959256
20
193.721248
11
42.364475
21
193.552519
0
LINE
8
Layer 1
10
42.364475
20
193.552519
11
42.820739
21
193.779509
0
LINE
8
Layer 1
10
42.820739
20
193.779509
11
43.512820
21
194.696521
0
LINE
8
Layer 1
10
43.512820
20
194.696521
11
43.418681
21
194.923409
0
LINE
8
Layer 1
10
43.418681
20
194.923409
11
43.512823
21
195.150335
0
LINE
8
Layer 1
10
43.512823
20
195.150335
11
43.739749
21
195.244477
0
LINE
8
Layer 1
10
43.739749
20
195.244477
11
43.966675
21
195.150335
0
LINE
8
Layer 1
10
43.966675
20
195.150335
11
44.060817
21
194.923409
0
LINE
8
Layer 1
10
44.060817
20
194.923409
11
43.971631
21
194.701943
0
LINE
8
Layer 1
10
43.971631
20
194.701943
11
43.972222
21
194.701230
0
LINE
8
Layer 1
10
43.972222
20
194.701230
11
44.659288
21
193.781690
0
LINE
8
Layer 1
10
44.659288
20
193.781690
11
45.116632
21
193.552498
0
LINE
8
Layer 1
10
45.116632
20
193.552498
11
45.520322
21
193.719719
0
LINE
8
Layer 1
10
45.520322
20
193.719719
11
45.944092
21
194.143489
0
LINE
8
Layer 1
10
45.944092
20
194.143489
11
45.824145
21
194.393392
0
LINE
8
Layer 1
10
45.824145
20
194.393392
11
45.918287
21
194.620318
0
LINE
8
Layer 1
10
45.918287
20
194.620318
11
46.145213
21
194.714460
0
LINE
8
Layer 1
10
46.145213
20
194.714460
11
46.372140
21
194.620318
0
LINE
8
Layer 1
10
46.372140
20
194.620318
11
46.466281
21
194.393392
0
LINE
8
Layer 1
10
46.466281
20
194.393392
11
46.251726
21
194.090874
0
LINE
8
Layer 1
10
46.251726
20
194.090874
11
46.251700
21
194.091000
0
LINE
8
Layer 1
10
45.878486
20
192.095080
11
45.725596
21
192.247970
0
LINE
8
Layer 1
10
45.725596
20
192.247970
11
41.770900
21
192.248000
0
LINE
8
Layer 1
10
41.770900
20
192.248000
11
41.618010
21
192.095110
0
LINE
8
Layer 1
10
41.618010
20
192.095110
11
41.618000
21
191.728000
0
LINE
8
Layer 1
10
41.618000
20
191.728000
11
41.770890
21
191.575110
0
LINE
8
Layer 1
10
41.770890
20
191.575110
11
45.725600
21
191.575000
0
LINE
8
Layer 1
10
45.725600
20
191.575000
11
45.878490
21
191.727890
0
LINE
8
Layer 1
10
45.878490
20
191.727890
11
45.878486
21
192.095080
0
LINE
8
Plast 1
10
43.100400
20
187.672000
11
43.333016
21
187.572283
0
LINE
8
Plast 1
10
43.333016
20
187.572283
11
43.428668
21
187.328700
0
LINE
8
Plast 1
10
43.428668
20
187.328700
11
43.333020
21
187.084299
0
LINE
8
Plast 1
10
43.333020
20
187.084299
11
43.100400
21
186.982510
0
LINE
8
Plast 1
10
43.100400
20
186.982510
11
42.869437
21
187.083894
0
LINE
8
Plast 1
10
42.869437
20
187.083894
11
42.773282
21
187.328700
0
LINE
8
Plast 1
10
42.773282
20
187.328700
11
42.784822
21
187.398100
0
LINE
8
Plast 1
10
42.784822
20
187.398100
11
42.599305
21
186.787220
0
LINE
8
Plast 1
10
42.599305
20
186.787220
11
42.679169
21
186.371422
0
LINE
8
Plast 1
10
42.679169
20
186.371422
11
42.897088
21
186.032569
0
LINE
8
Plast 1
10
42.897088
20
186.032569
11
43.220553
21
185.804466
0
LINE
8
Plast 1
10
43.220553
20
185.804466
11
43.617055
21
185.720920
0
LINE
8
Plast 1
10
43.617055
20
185.720920
11
44.011641
21
185.804711
0
LINE
8
Plast 1
10
44.011641
20
185.804711
11
44.334276
21
186.033221
0
LINE
8
Plast 1
10
44.334276
20
186.033221
11
44.552015
21
186.372156
0
LINE
8
Plast 1
10
44.552015
20
186.372156
11
44.631915
21
186.787220
0
LINE
8
Plast 1
10
44.631915
20
186.787220
11
44.552096
21
187.202270
0
LINE
8
Plast 1
10
44.552096
20
187.202270
11
44.334493
21
187.541202
0
LINE
8
Plast 1
10
44.334493
20
187.541202
11
44.011886
21
187.769716
0
LINE
8
Plast 1
10
44.011886
20
187.769716
11
43.617055
21
187.853510
0
LINE
8
Plast 1
10
43.617055
20
187.853510
11
43.035655
21
187.656420
0
LINE
8
Plast 1
10
43.035655
20
187.656420
11
43.100355
21
187.672920
0
LINE
8
Plast 1
10
43.100355
20
187.672920
11
43.100400
21
187.672000
0
LINE
8
Plast 1
10
43.609566
20
189.593660
11
42.770392
21
188.841160
0
LINE
8
Plast 1
10
42.770392
20
188.841160
11
42.193031
21
187.947100
0
LINE
8
Plast 1
10
42.193031
20
187.947100
11
41.929489
21
186.745550
0
LINE
8
Plast 1
10
41.929489
20
186.745550
11
42.191882
21
185.554420
0
LINE
8
Plast 1
10
42.191882
20
185.554420
11
42.767503
21
184.682900
0
LINE
8
Plast 1
10
42.767503
20
184.682900
11
43.603787
21
183.963920
0
LINE
8
Plast 1
10
43.603787
20
183.963920
11
43.631487
21
183.947420
0
LINE
8
Plast 1
10
43.631487
20
183.947420
11
43.659187
21
183.965720
0
LINE
8
Plast 1
10
43.659187
20
183.965720
11
44.491420
21
184.706630
0
LINE
8
Plast 1
10
44.491420
20
184.706630
11
45.064162
21
185.593190
0
LINE
8
Plast 1
10
45.064162
20
185.593190
11
45.326544
21
186.790690
0
LINE
8
Plast 1
10
45.326544
20
186.790690
11
45.065891
21
187.985300
0
LINE
8
Plast 1
10
45.065891
20
187.985300
11
44.496040
21
188.864330
0
LINE
8
Plast 1
10
44.496040
20
188.864330
11
43.666697
21
189.594860
0
LINE
8
Plast 1
10
43.666697
20
189.594860
11
43.638997
21
189.613160
0
LINE
8
Plast 1
10
43.638997
20
189.613160
11
43.609566
21
189.593660
0
LINE
8
Plast 1
10
44.382853
20
188.667780
11
44.890784
21
187.900355
0
LINE
8
Plast 1
10
44.890784
20
187.900355
11
45.138213
21
186.790060
0
LINE
8
Plast 1
10
45.138213
20
186.790060
11
44.890784
21
185.671966
0
LINE
8
Plast 1
10
44.890784
20
185.671966
11
44.382853
21
184.891530
0
LINE
8
Plast 1
10
44.382853
20
184.891530
11
43.630373
21
184.137900
0
LINE
8
Plast 1
10
43.630373
20
184.137900
11
42.886565
21
184.804830
0
LINE
8
Plast 1
10
42.886565
20
184.804830
11
42.370897
21
185.603110
0
LINE
8
Plast 1
10
42.370897
20
185.603110
11
42.117906
21
186.747290
0
LINE
8
Plast 1
10
42.117906
20
186.747290
11
42.357102
21
187.871605
0
LINE
8
Plast 1
10
42.357102
20
187.871605
11
42.873276
21
188.667780
0
LINE
8
Plast 1
10
42.873276
20
188.667780
11
43.628633
21
189.423150
0
LINE
8
Plast 1
10
43.628633
20
189.423150
11
44.382853
21
188.667780
0
LINE
8
Plast 1
10
44.382853
20
188.667780
11
44.382853
21
188.667780
0
LINE
8
Plast 1
10
62.174400
20
186.213000
11
62.017772
21
185.718165
0
LINE
8
Plast 1
10
62.017772
20
185.718165
11
61.814190
21
185.506612
0
LINE
8
Plast 1
10
61.814190
20
185.506612
11
61.520167
21
185.680740
0
LINE
8
Plast 1
10
61.520167
20
185.680740
11
61.274655
21
186.190994
0
LINE
8
Plast 1
10
61.274655
20
186.190994
11
61.177801
21
186.718920
0
LINE
8
Plast 1
10
61.177801
20
186.718920
11
61.176415
21
187.299690
 0 
ENDSEC
 0 
EOF